SplineFontDB: 3.2
FontName: Entity-Medium
FullName: Entity Medium
FamilyName: Entity
Weight: Medium
Copyright: Based on Geist Copyright 2024 The Geist Project Authors https:github.comvercelgeist-font.git
Version: 0.1
ItalicAngle: 0
UnderlinePosition: -125
UnderlineWidth: 50
Ascent: 800
Descent: 200
InvalidEm: 0
sfntRevision: 0x0000199a
LayerCount: 2
Layer: 0 0 "Back" 1
Layer: 1 0 "Fore" 0
XUID: [1021 1008 -1557834819 12120758]
StyleMap: 0x0040
FSType: 0
OS2Version: 4
OS2_WeightWidthSlopeOnly: 0
OS2_UseTypoMetrics: 1
CreationTime: 1728311655
ModificationTime: 1746831832
PfmFamily: 81
TTFWeight: 500
TTFWidth: 5
LineGap: 0
VLineGap: 0
Panose: 0 0 0 0 0 0 0 0 0 0
OS2TypoAscent: 1005
OS2TypoAOffset: 0
OS2TypoDescent: -295
OS2TypoDOffset: 0
OS2TypoLinegap: 0
OS2WinAscent: 1012
OS2WinAOffset: 0
OS2WinDescent: 262
OS2WinDOffset: 0
HheadAscent: 1005
HheadAOffset: 0
HheadDescent: -295
HheadDOffset: 0
OS2SubXSize: 650
OS2SubYSize: 600
OS2SubXOff: 0
OS2SubYOff: 75
OS2SupXSize: 650
OS2SupYSize: 600
OS2SupXOff: 0
OS2SupYOff: 350
OS2StrikeYSize: 50
OS2StrikeYPos: 319
OS2CapHeight: 710
OS2XHeight: 532
OS2Vendor: 'VRCL'
OS2CodePages: 20000097.00000000
OS2UnicodeRanges: a10002ff.5001e5fb.00000000.00000000
Lookup: 1 0 0 "'aalt' Access All Alternates in Latin lookup 0" { "'aalt' Access All Alternates in Latin lookup 0 subtable"  } ['aalt' ('DFLT' <'dflt' > 'latn' <'AZE ' 'CAT ' 'CRT ' 'KAZ ' 'MAH ' 'MOL ' 'NLD ' 'ROM ' 'TAT ' 'TRK ' 'dflt' > ) ]
Lookup: 3 0 0 "'aalt' Access All Alternates in Latin lookup 1" { "'aalt' Access All Alternates in Latin lookup 1 subtable"  } ['aalt' ('DFLT' <'dflt' > 'latn' <'AZE ' 'CAT ' 'CRT ' 'KAZ ' 'MAH ' 'MOL ' 'NLD ' 'ROM ' 'TAT ' 'TRK ' 'dflt' > ) ]

StartChar: .notdef
Encoding: 65536 -1 0
Width: 600
GlyphClass: 1
Flags: MW
HStem: 0 36<95 510 95 565> 674 36<95 95 95 510>
VStem: 40 33<64 646 64 710> 532 33<64 646 646 646>
LayerCount: 2
Fore
SplineSet
40 0 m 1
 40 710 l 1
 565 710 l 1
 565 0 l 1
 40 0 l 1
95 674 m 1
 303 384 l 1
 510 674 l 1
 95 674 l 1
73 646 m 1
 73 64 l 1
 282 355 l 1
 73 646 l 1
323 355 m 1
 532 64 l 1
 532 646 l 1
 323 355 l 1
95 36 m 1
 510 36 l 1
 303 326 l 1
 95 36 l 1
EndSplineSet
EndChar

StartChar: A
Encoding: 65 65 1
Width: 689
GlyphClass: 2
Flags: MW
HStem: 0 21G<20 20 20 135 554 554 554 669> 185 98<233 456 233 489 199 456> 607 103<344 344> 690 20G<276 413 413 413>
VStem: 20 649<0 0>
AnchorPoint: "Anchor-3" 344 710 basechar 0
AnchorPoint: "Anchor-2" 669 0 basechar 0
AnchorPoint: "Anchor-0" 344 0 basechar 0
LayerCount: 2
Fore
SplineSet
20 0 m 1xd8
 276 710 l 1
 413 710 l 1
 669 0 l 1
 554 0 l 1
 489 185 l 1
 199 185 l 1
 135 0 l 1
 20 0 l 1xd8
233 283 m 1
 456 283 l 1
 344 607 l 1xe8
 233 283 l 1
EndSplineSet
Substitution2: "Single Substitution lookup 27 subtable" ordfeminine
Substitution2: "'aalt' Access All Alternates in Latin lookup 0 subtable" ordfeminine
EndChar

StartChar: Aacute
Encoding: 193 193 2
Width: 689
GlyphClass: 2
Flags: MW
HStem: 0 21G<20 20 20 135 554 554 554 669> 185 98<233 456 233 489 199 456> 607 103<344 344> 690 20G<276 413 413 413> 774 134<297 472 361 382>
VStem: 20 649<0 0>
AnchorPoint: "Anchor-3" 344 710 basechar 0
AnchorPoint: "Anchor-2" 669 0 basechar 0
AnchorPoint: "Anchor-0" 344 0 basechar 0
LayerCount: 2
Fore
SplineSet
297 774 m 1xdc
 361 908 l 1
 472 908 l 1
 382 774 l 1
 297 774 l 1xdc
20 0 m 1
 276 710 l 1
 413 710 l 1
 669 0 l 1
 554 0 l 1
 489 185 l 1
 199 185 l 1
 135 0 l 1
 20 0 l 1
233 283 m 1
 456 283 l 1
 344 607 l 1xec
 233 283 l 1
EndSplineSet
EndChar

StartChar: Abreve
Encoding: 258 258 3
Width: 689
GlyphClass: 2
Flags: MW
HStem: 0 21G<20 20 20 135 554 554 554 669> 185 98<233 456 233 489 199 456> 607 103<344 344> 690 20G<276 413 413 413> 777 69<322 366 322 387>
VStem: 20 649<0 0>
AnchorPoint: "Anchor-3" 344 710 basechar 0
AnchorPoint: "Anchor-2" 669 0 basechar 0
AnchorPoint: "Anchor-0" 344 0 basechar 0
LayerCount: 2
Fore
SplineSet
344 777 m 0xdc
 259 777 203 828 199 912 c 1
 266 912 l 1
 272 866 300 846 344 846 c 0
 388 846 416 866 422 912 c 1
 489 912 l 1
 485 828 430 777 344 777 c 0xdc
20 0 m 1
 276 710 l 1
 413 710 l 1
 669 0 l 1
 554 0 l 1
 489 185 l 1
 199 185 l 1
 135 0 l 1
 20 0 l 1
233 283 m 1
 456 283 l 1
 344 607 l 1xec
 233 283 l 1
EndSplineSet
EndChar

StartChar: uni01CD
Encoding: 461 461 4
Width: 689
GlyphClass: 2
Flags: MW
HStem: 0 21G<20 20 20 135 554 554 554 669> 185 98<233 456 233 489 199 456> 607 103<344 344> 690 20G<276 413 413 413> 774 139<197 400 197 289>
VStem: 20 649<0 0>
AnchorPoint: "Anchor-3" 344 710 basechar 0
AnchorPoint: "Anchor-2" 669 0 basechar 0
AnchorPoint: "Anchor-0" 344 0 basechar 0
LayerCount: 2
Fore
SplineSet
197 913 m 1xdc
 279 913 l 1
 344 824 l 1
 410 913 l 1
 492 913 l 1
 400 774 l 1
 289 774 l 1
 197 913 l 1xdc
20 0 m 1
 276 710 l 1
 413 710 l 1
 669 0 l 1
 554 0 l 1
 489 185 l 1
 199 185 l 1
 135 0 l 1
 20 0 l 1
233 283 m 1
 456 283 l 1
 344 607 l 1xec
 233 283 l 1
EndSplineSet
EndChar

StartChar: Acircumflex
Encoding: 194 194 5
Width: 689
GlyphClass: 2
Flags: MW
HStem: 0 21G<20 20 20 135 554 554 554 669> 185 98<233 456 233 489 199 456> 607 103<344 344> 690 20G<276 413 413 413> 774 139<197 400 197 400 289 410 289 492>
VStem: 20 649<0 0>
AnchorPoint: "Anchor-3" 344 710 basechar 0
AnchorPoint: "Anchor-2" 669 0 basechar 0
AnchorPoint: "Anchor-0" 344 0 basechar 0
LayerCount: 2
Fore
SplineSet
197 774 m 1xdc
 289 913 l 1
 400 913 l 1
 492 774 l 1
 410 774 l 1
 344 863 l 1
 279 774 l 1
 197 774 l 1xdc
20 0 m 1
 276 710 l 1
 413 710 l 1
 669 0 l 1
 554 0 l 1
 489 185 l 1
 199 185 l 1
 135 0 l 1
 20 0 l 1
233 283 m 1
 456 283 l 1
 344 607 l 1xec
 233 283 l 1
EndSplineSet
EndChar

StartChar: Adieresis
Encoding: 196 196 6
Width: 689
GlyphClass: 2
Flags: MW
HStem: 0 21G<20 20 20 135 554 554 554 669> 185 98<233 456 233 489 199 456> 607 103<344 344> 690 20G<276 413 413 413> 786 106<197 304 197 304 385 491 197 385>
VStem: 197 107<786 892 786 892> 385 106<786 892 786 892>
AnchorPoint: "Anchor-3" 344 710 basechar 0
AnchorPoint: "Anchor-2" 669 0 basechar 0
AnchorPoint: "Anchor-0" 344 0 basechar 0
LayerCount: 2
Fore
SplineSet
197 786 m 1xde
 197 892 l 1
 304 892 l 1
 304 786 l 1
 197 786 l 1xde
385 786 m 1
 385 892 l 1
 491 892 l 1
 491 786 l 1
 385 786 l 1
20 0 m 1
 276 710 l 1
 413 710 l 1
 669 0 l 1
 554 0 l 1
 489 185 l 1
 199 185 l 1
 135 0 l 1
 20 0 l 1
233 283 m 1
 456 283 l 1
 344 607 l 1xee
 233 283 l 1
EndSplineSet
Substitution2: "'ss08' Style Set 8 in Latin lookup 41 subtable" Adieresis.ss08
Substitution2: "'aalt' Access All Alternates in Latin lookup 0 subtable" Adieresis.ss08
EndChar

StartChar: Agrave
Encoding: 192 192 7
Width: 689
GlyphClass: 2
Flags: MW
HStem: 0 21G<20 20 20 135 554 554 554 669> 185 98<233 456 233 489 199 456> 607 103<344 344> 690 20G<276 413 413 413> 779 135<308 308 308 329 218 393>
VStem: 20 649<0 0>
AnchorPoint: "Anchor-3" 344 710 basechar 0
AnchorPoint: "Anchor-2" 669 0 basechar 0
AnchorPoint: "Anchor-0" 344 0 basechar 0
LayerCount: 2
Fore
SplineSet
308 779 m 1xdc
 218 914 l 1
 329 914 l 1
 393 779 l 1
 308 779 l 1xdc
20 0 m 1
 276 710 l 1
 413 710 l 1
 669 0 l 1
 554 0 l 1
 489 185 l 1
 199 185 l 1
 135 0 l 1
 20 0 l 1
233 283 m 1
 456 283 l 1
 344 607 l 1xec
 233 283 l 1
EndSplineSet
EndChar

StartChar: Amacron
Encoding: 256 256 8
Width: 689
GlyphClass: 2
Flags: MW
HStem: 0 21G<20 20 20 135 554 554 554 669> 185 98<233 456 233 489 199 456> 607 103<344 344> 690 20G<276 413 413 413> 797 85<205 484 205 484>
VStem: 20 649<0 0> 205 279<797 882 797 882>
AnchorPoint: "Anchor-3" 344 710 basechar 0
AnchorPoint: "Anchor-2" 669 0 basechar 0
AnchorPoint: "Anchor-0" 344 0 basechar 0
LayerCount: 2
Fore
SplineSet
205 797 m 1xda
 205 882 l 1
 484 882 l 1
 484 797 l 1
 205 797 l 1xda
20 0 m 1
 276 710 l 1
 413 710 l 1
 669 0 l 1
 554 0 l 1
 489 185 l 1
 199 185 l 1
 135 0 l 1xdc
 20 0 l 1
233 283 m 1
 456 283 l 1
 344 607 l 1xec
 233 283 l 1
EndSplineSet
EndChar

StartChar: Aogonek
Encoding: 260 260 9
Width: 689
GlyphClass: 2
Flags: MW
HStem: -212 75<624 630.5> 0 21G<20 20 20 135 554 554 554 583 669 669> 185 98<233 456 233 489 199 456> 607 103<344 344> 690 20G<276 413 413 413>
VStem: 20 685<-186 0> 512 92<-120 -117.5>
AnchorPoint: "Anchor-3" 344 710 basechar 0
AnchorPoint: "Anchor-2" 669 0 basechar 0
AnchorPoint: "Anchor-0" 344 0 basechar 0
LayerCount: 2
Fore
SplineSet
20 0 m 1xec
 276 710 l 1
 413 710 l 1
 669 0 l 1
 636 -45 l 2
 612 -77 604 -95 604 -112 c 0xea
 604 -128 616 -137 632 -137 c 0
 651 -137 667 -132 679 -124 c 1
 705 -186 l 1xec
 689 -201 649 -212 612 -212 c 0
 550 -212 512 -186 512 -137 c 0xea
 512 -98 540 -57 567 -21 c 2
 583 0 l 1
 554 0 l 1
 489 185 l 1
 199 185 l 1
 135 0 l 1
 20 0 l 1xec
233 283 m 1
 456 283 l 1
 344 607 l 1xf4
 233 283 l 1
EndSplineSet
EndChar

StartChar: Aring
Encoding: 197 197 10
Width: 691
GlyphClass: 2
Flags: MW
HStem: 0 21G<17 17 17 132 551 551 551 666> 185 98<230 453 230 486 197 453> 607 103<342 342> 690 20G<273 410 410 410> 756 54<329.5 352.5 329.5 368> 891 55<329.5 352.5>
VStem: 245 56<839.5 862.5 839.5 878> 381 56<839.5 862.5>
AnchorPoint: "Anchor-3" 342 710 basechar 0
AnchorPoint: "Anchor-2" 666 0 basechar 0
AnchorPoint: "Anchor-0" 342 0 basechar 0
LayerCount: 2
Fore
SplineSet
341 756 m 0xdf
 287 756 245 797 245 851 c 0
 245 905 287 946 341 946 c 0
 395 946 437 905 437 851 c 0
 437 797 395 756 341 756 c 0xdf
341 810 m 0
 364 810 381 828 381 851 c 0
 381 874 364 891 341 891 c 0
 318 891 301 874 301 851 c 0
 301 828 318 810 341 810 c 0
17 0 m 1
 273 710 l 1
 410 710 l 1
 666 0 l 1
 551 0 l 1
 486 185 l 1
 197 185 l 1
 132 0 l 1
 17 0 l 1
230 283 m 1
 453 283 l 1
 342 607 l 1xef
 230 283 l 1
EndSplineSet
EndChar

StartChar: Atilde
Encoding: 195 195 11
Width: 691
GlyphClass: 2
Flags: MW
HStem: 0 21G<17 17 17 132 551 551 551 666> 185 98<230 453 230 486 197 453> 607 103<342 342> 690 20G<273 410 410 410> 787 67<387.5 407 387.5 423> 839 67<261 281>
VStem: 171 60<780 780> 436 59<915 915>
AnchorPoint: "Anchor-3" 342 710 basechar 0
AnchorPoint: "Anchor-2" 666 0 basechar 0
AnchorPoint: "Anchor-0" 342 0 basechar 0
LayerCount: 2
Fore
SplineSet
392 787 m 0xdb
 364 787 343 796 320 815 c 0
 299 832 290 839 272 839 c 0
 250 839 233 826 231 780 c 1
 171 780 l 1
 173 861 212 906 271 906 c 0xd7
 303 906 325 895 349 876 c 0
 368 860 380 854 395 854 c 0
 419 854 432 867 436 915 c 1
 495 915 l 1
 492 835 454 787 392 787 c 0xdb
17 0 m 1
 273 710 l 1
 410 710 l 1
 666 0 l 1
 551 0 l 1
 486 185 l 1
 197 185 l 1
 132 0 l 1
 17 0 l 1
230 283 m 1
 453 283 l 1
 342 607 l 1xe7
 230 283 l 1
EndSplineSet
EndChar

StartChar: AE
Encoding: 198 198 12
Width: 995
GlyphClass: 2
Flags: MW
HStem: 0 99<611 942 611 942> 185 97<284 503 284 503 233 503> 308 96<611 922 611 922> 611 99<611 934 611 611> 614 96<455 503 455 455>
VStem: 503 108<99 185 185 185 282 308 404 611>
AnchorPoint: "Anchor-3" 525 710 basechar 0
AnchorPoint: "Anchor-0" 525 0 basechar 0
LayerCount: 2
Fore
SplineSet
20 0 m 1xd4
 400 710 l 1
 934 710 l 1
 934 611 l 1
 611 611 l 1
 611 404 l 1
 922 404 l 1
 922 308 l 1
 611 308 l 1xb4
 611 99 l 1
 942 99 l 1
 942 0 l 1
 503 0 l 1
 503 185 l 1
 233 185 l 1
 138 0 l 1
 20 0 l 1xd4
503 614 m 1xcc
 455 614 l 1
 284 282 l 1
 503 282 l 1
 503 614 l 1xcc
EndSplineSet
EndChar

StartChar: B
Encoding: 66 66 13
Width: 688
GlyphClass: 2
Flags: MW
HStem: 0 97<194 376 376 379> 315 52 315 92<194 339 339 376 194 339> 613 97<194 339 194 194>
VStem: 86 108<97 97 97 315 407 613> 488 111<477.5 545> 518 111<169.5 240>
AnchorPoint: "Anchor-3" 344 710 basechar 0
AnchorPoint: "Anchor-0" 344 0 basechar 0
LayerCount: 2
Fore
SplineSet
86 0 m 1xda
 86 710 l 1
 341 710 l 2
 511 710 599 651 599 518 c 0xbc
 599 437 550 379 467 367 c 1
 569 355 629 290 629 195 c 0
 629 65 539 0 379 0 c 2
 86 0 l 1xda
194 407 m 1
 339 407 l 2
 434 407 488 444 488 510 c 0
 488 580 437 613 339 613 c 2
 194 613 l 1
 194 407 l 1
194 97 m 1
 376 97 l 2
 465 97 518 134 518 205 c 0xba
 518 275 465 315 376 315 c 2
 194 315 l 1
 194 97 l 1
EndSplineSet
EndChar

StartChar: C
Encoding: 67 67 14
Width: 713
GlyphClass: 2
Flags: MW
HStem: -16 99<304.5 425.5 304.5 455.5> 627 99<304.5 423>
VStem: 44 112<269 438.5 269 468.5>
AnchorPoint: "Anchor-3" 367 710 basechar 0
AnchorPoint: "Anchor-0" 370 0 basechar 0
LayerCount: 2
Fore
SplineSet
368 -16 m 0
 176 -16 44 123 44 354 c 0
 44 583 174 726 369 726 c 0
 545 726 639 632 669 477 c 1
 556 471 l 1
 537 568 477 627 369 627 c 0
 240 627 156 523 156 354 c 0
 156 184 241 83 368 83 c 0
 483 83 544 148 561 254 c 1
 674 248 l 1
 647 87 543 -16 368 -16 c 0
EndSplineSet
EndChar

StartChar: Cacute
Encoding: 262 262 15
Width: 713
GlyphClass: 2
Flags: MW
HStem: -16 99<304.5 425.5 304.5 455.5> 627 99<304.5 423> 774 134<320 494 383 404>
VStem: 44 112<269 438.5 269 468.5>
AnchorPoint: "Anchor-3" 367 710 basechar 0
AnchorPoint: "Anchor-0" 370 0 basechar 0
LayerCount: 2
Fore
SplineSet
320 774 m 1
 383 908 l 1
 494 908 l 1
 404 774 l 1
 320 774 l 1
368 -16 m 0
 176 -16 44 123 44 354 c 0
 44 583 174 726 369 726 c 0
 545 726 639 632 669 477 c 1
 556 471 l 1
 537 568 477 627 369 627 c 0
 240 627 156 523 156 354 c 0
 156 184 241 83 368 83 c 0
 483 83 544 148 561 254 c 1
 674 248 l 1
 647 87 543 -16 368 -16 c 0
EndSplineSet
EndChar

StartChar: Ccaron
Encoding: 268 268 16
Width: 713
GlyphClass: 2
Flags: MW
HStem: -16 99<304.5 425.5 304.5 455.5> 627 99<304.5 423> 774 139<220 422 220 312>
VStem: 44 112<269 438.5 269 468.5>
AnchorPoint: "Anchor-3" 367 710 basechar 0
AnchorPoint: "Anchor-0" 370 0 basechar 0
LayerCount: 2
Fore
SplineSet
220 913 m 1
 301 913 l 1
 367 824 l 1
 433 913 l 1
 514 913 l 1
 422 774 l 1
 312 774 l 1
 220 913 l 1
368 -16 m 0
 176 -16 44 123 44 354 c 0
 44 583 174 726 369 726 c 0
 545 726 639 632 669 477 c 1
 556 471 l 1
 537 568 477 627 369 627 c 0
 240 627 156 523 156 354 c 0
 156 184 241 83 368 83 c 0
 483 83 544 148 561 254 c 1
 674 248 l 1
 647 87 543 -16 368 -16 c 0
EndSplineSet
EndChar

StartChar: Ccedilla
Encoding: 199 199 17
Width: 713
GlyphClass: 2
Flags: MW
HStem: -224 62<343 375.5 343 395> -81 47<339 382> -81 164<339 369> -14 21G<328 328> -14 97<328 328> 627 99<304.5 423>
VStem: 44 112<269 438.5 269 468.5> 411 67<-136 -111.5>
AnchorPoint: "Anchor-3" 367 710 basechar 0
AnchorPoint: "Anchor-0" 370 0 basechar 0
LayerCount: 2
Fore
SplineSet
362 -224 m 0xc7
 297 -224 256 -190 241 -144 c 1
 297 -122 l 1
 308 -150 327 -162 359 -162 c 0
 392 -162 411 -148 411 -124 c 0
 411 -99 399 -81 339 -81 c 1xa7
 307 -48 l 1
 328 -14 l 1x97
 158 4 44 140 44 354 c 0
 44 583 174 726 369 726 c 0
 545 726 639 632 669 477 c 1
 556 471 l 1
 537 568 477 627 369 627 c 0
 240 627 156 523 156 354 c 0
 156 184 241 83 368 83 c 0x8f
 483 83 544 148 561 254 c 1
 674 248 l 1
 649 96 554 -4 396 -15 c 1
 382 -34 l 1
 448 -38 478 -75 478 -126 c 0
 478 -187 428 -224 362 -224 c 0xc7
EndSplineSet
EndChar

StartChar: Ccircumflex
Encoding: 264 264 18
Width: 713
GlyphClass: 2
Flags: MW
HStem: -16 99<304.5 425.5 304.5 455.5> 627 99<304.5 423> 774 139<220 422 220 422 312 433 312 514>
VStem: 44 112<269 438.5 269 468.5>
AnchorPoint: "Anchor-3" 367 710 basechar 0
AnchorPoint: "Anchor-0" 370 0 basechar 0
LayerCount: 2
Fore
SplineSet
220 774 m 1
 312 913 l 1
 422 913 l 1
 514 774 l 1
 433 774 l 1
 367 863 l 1
 301 774 l 1
 220 774 l 1
368 -16 m 0
 176 -16 44 123 44 354 c 0
 44 583 174 726 369 726 c 0
 545 726 639 632 669 477 c 1
 556 471 l 1
 537 568 477 627 369 627 c 0
 240 627 156 523 156 354 c 0
 156 184 241 83 368 83 c 0
 483 83 544 148 561 254 c 1
 674 248 l 1
 647 87 543 -16 368 -16 c 0
EndSplineSet
EndChar

StartChar: Cdotaccent
Encoding: 266 266 19
Width: 713
GlyphClass: 2
Flags: MW
HStem: -16 99<304.5 425.5 304.5 455.5> 627 99<304.5 423> 787 106<312 422 312 422>
VStem: 44 112<269 438.5 269 468.5> 312 110<787 893 787 893>
AnchorPoint: "Anchor-3" 367 710 basechar 0
AnchorPoint: "Anchor-0" 370 0 basechar 0
LayerCount: 2
Fore
SplineSet
312 787 m 1
 312 893 l 1
 422 893 l 1
 422 787 l 1
 312 787 l 1
368 -16 m 0
 176 -16 44 123 44 354 c 0
 44 583 174 726 369 726 c 0
 545 726 639 632 669 477 c 1
 556 471 l 1
 537 568 477 627 369 627 c 0
 240 627 156 523 156 354 c 0
 156 184 241 83 368 83 c 0
 483 83 544 148 561 254 c 1
 674 248 l 1
 647 87 543 -16 368 -16 c 0
EndSplineSet
Substitution2: "'ss08' Style Set 8 in Latin lookup 41 subtable" Cdotaccent.ss08
Substitution2: "'aalt' Access All Alternates in Latin lookup 0 subtable" Cdotaccent.ss08
EndChar

StartChar: D
Encoding: 68 68 20
Width: 705
GlyphClass: 2
Flags: MW
HStem: 0 99<194 314 314 320> 611 99<194 314 194 194>
VStem: 86 108<99 99 99 611> 549 112<268.5 440.5>
AnchorPoint: "Anchor-3" 324 710 basechar 0
AnchorPoint: "Anchor-1" 203 355 basechar 0
AnchorPoint: "Anchor-0" 324 0 basechar 0
LayerCount: 2
Fore
SplineSet
86 0 m 1
 86 710 l 1
 314 710 l 2
 536 710 661 582 661 354 c 0
 661 127 539 0 320 0 c 2
 86 0 l 1
194 99 m 1
 314 99 l 2
 471 99 549 183 549 354 c 0
 549 527 471 611 314 611 c 2
 194 611 l 1
 194 99 l 1
EndSplineSet
EndChar

StartChar: Dcaron
Encoding: 270 270 21
Width: 705
GlyphClass: 2
Flags: MW
HStem: 0 99<194 314 314 320> 611 99<194 314 194 194> 774 139<176 379 176 268>
VStem: 86 108<99 99 99 611> 549 112<268.5 440.5>
AnchorPoint: "Anchor-3" 324 710 basechar 0
AnchorPoint: "Anchor-1" 203 355 basechar 0
AnchorPoint: "Anchor-0" 324 0 basechar 0
LayerCount: 2
Fore
SplineSet
176 913 m 1
 258 913 l 1
 324 824 l 1
 390 913 l 1
 471 913 l 1
 379 774 l 1
 268 774 l 1
 176 913 l 1
86 0 m 1
 86 710 l 1
 314 710 l 2
 536 710 661 582 661 354 c 0
 661 127 539 0 320 0 c 2
 86 0 l 1
194 99 m 1
 314 99 l 2
 471 99 549 183 549 354 c 0
 549 527 471 611 314 611 c 2
 194 611 l 1
 194 99 l 1
EndSplineSet
EndChar

StartChar: Dcroat
Encoding: 272 272 22
Width: 705
GlyphClass: 2
Flags: MW
HStem: 0 99<194 314 314 320> 310 90<16 86 16 86 194 390> 611 99<194 314 194 194>
VStem: 86 108<99 99 99 310 400 611> 549 112<268.5 440.5>
AnchorPoint: "Anchor-3" 324 710 basechar 0
AnchorPoint: "Anchor-1" 203 355 basechar 0
AnchorPoint: "Anchor-0" 324 0 basechar 0
LayerCount: 2
Fore
SplineSet
86 0 m 1
 86 310 l 1
 16 310 l 1
 16 400 l 1
 86 400 l 1
 86 710 l 1
 314 710 l 2
 536 710 661 582 661 354 c 0
 661 127 539 0 320 0 c 2
 86 0 l 1
194 99 m 1
 314 99 l 2
 471 99 549 183 549 354 c 0
 549 527 471 611 314 611 c 2
 194 611 l 1
 194 400 l 1
 390 400 l 1
 390 310 l 1
 194 310 l 1
 194 99 l 1
EndSplineSet
EndChar

StartChar: Eth
Encoding: 208 208 23
Width: 705
GlyphClass: 2
Flags: MW
HStem: 0 99<194 314 314 320> 310 90<16 86 16 86 194 390> 611 99<194 314 194 194>
VStem: 86 108<99 99 99 310 400 611> 549 112<268.5 440.5>
AnchorPoint: "Anchor-3" 324 710 basechar 0
AnchorPoint: "Anchor-1" 203 355 basechar 0
AnchorPoint: "Anchor-0" 324 0 basechar 0
LayerCount: 2
Fore
SplineSet
86 0 m 1
 86 310 l 1
 16 310 l 1
 16 400 l 1
 86 400 l 1
 86 710 l 1
 314 710 l 2
 536 710 661 582 661 354 c 0
 661 127 539 0 320 0 c 2
 86 0 l 1
194 99 m 1
 314 99 l 2
 471 99 549 183 549 354 c 0
 549 527 471 611 314 611 c 2
 194 611 l 1
 194 400 l 1
 390 400 l 1
 390 310 l 1
 194 310 l 1
 194 99 l 1
EndSplineSet
EndChar

StartChar: E
Encoding: 69 69 24
Width: 609
GlyphClass: 2
Flags: MW
HStem: 0 99<194 556 194 556> 308 96<194 536 194 536> 611 99<194 548 194 194>
VStem: 86 108<99 308 404 611>
AnchorPoint: "Anchor-3" 319 710 basechar 0
AnchorPoint: "Anchor-2" 556 0 basechar 0
AnchorPoint: "Anchor-0" 320 0 basechar 0
LayerCount: 2
Fore
SplineSet
86 0 m 1
 86 710 l 1
 548 710 l 1
 548 611 l 1
 194 611 l 1
 194 404 l 1
 536 404 l 1
 536 308 l 1
 194 308 l 1
 194 99 l 1
 556 99 l 1
 556 0 l 1
 86 0 l 1
EndSplineSet
EndChar

StartChar: Eacute
Encoding: 201 201 25
Width: 609
GlyphClass: 2
Flags: MW
HStem: 0 99<194 556 194 556> 308 96<194 536 194 536> 611 99<194 548 194 194> 774 134<271 446 335 356>
VStem: 86 108<99 308 404 611>
AnchorPoint: "Anchor-3" 319 710 basechar 0
AnchorPoint: "Anchor-2" 556 0 basechar 0
AnchorPoint: "Anchor-0" 320 0 basechar 0
LayerCount: 2
Fore
SplineSet
271 774 m 1
 335 908 l 1
 446 908 l 1
 356 774 l 1
 271 774 l 1
86 0 m 1
 86 710 l 1
 548 710 l 1
 548 611 l 1
 194 611 l 1
 194 404 l 1
 536 404 l 1
 536 308 l 1
 194 308 l 1
 194 99 l 1
 556 99 l 1
 556 0 l 1
 86 0 l 1
EndSplineSet
EndChar

StartChar: Ecaron
Encoding: 282 282 26
Width: 609
GlyphClass: 2
Flags: MW
HStem: 0 99<194 556 194 556> 308 96<194 536 194 536> 611 99<194 548 194 194> 774 139<171 374 171 263>
VStem: 86 108<99 308 404 611>
AnchorPoint: "Anchor-3" 319 710 basechar 0
AnchorPoint: "Anchor-2" 556 0 basechar 0
AnchorPoint: "Anchor-0" 320 0 basechar 0
LayerCount: 2
Fore
SplineSet
171 913 m 1
 253 913 l 1
 319 824 l 1
 384 913 l 1
 466 913 l 1
 374 774 l 1
 263 774 l 1
 171 913 l 1
86 0 m 1
 86 710 l 1
 548 710 l 1
 548 611 l 1
 194 611 l 1
 194 404 l 1
 536 404 l 1
 536 308 l 1
 194 308 l 1
 194 99 l 1
 556 99 l 1
 556 0 l 1
 86 0 l 1
EndSplineSet
EndChar

StartChar: Ecircumflex
Encoding: 202 202 27
Width: 609
GlyphClass: 2
Flags: MW
HStem: 0 99<194 556 194 556> 308 96<194 536 194 536> 611 99<194 548 194 194> 774 139<171 374 171 374 263 384 263 466>
VStem: 86 108<99 308 404 611>
AnchorPoint: "Anchor-3" 319 710 basechar 0
AnchorPoint: "Anchor-2" 556 0 basechar 0
AnchorPoint: "Anchor-0" 320 0 basechar 0
LayerCount: 2
Fore
SplineSet
171 774 m 1
 263 913 l 1
 374 913 l 1
 466 774 l 1
 384 774 l 1
 319 863 l 1
 253 774 l 1
 171 774 l 1
86 0 m 1
 86 710 l 1
 548 710 l 1
 548 611 l 1
 194 611 l 1
 194 404 l 1
 536 404 l 1
 536 308 l 1
 194 308 l 1
 194 99 l 1
 556 99 l 1
 556 0 l 1
 86 0 l 1
EndSplineSet
EndChar

StartChar: Edieresis
Encoding: 203 203 28
Width: 609
GlyphClass: 2
Flags: MW
HStem: 0 99<194 556 194 556> 308 96<194 536 194 536> 611 99<194 548 194 194> 786 106<172 278 172 278 359 466 172 359>
VStem: 86 108<99 308 404 611> 172 106<786 892 786 892> 359 107<786 892 786 892>
AnchorPoint: "Anchor-3" 319 710 basechar 0
AnchorPoint: "Anchor-2" 556 0 basechar 0
AnchorPoint: "Anchor-0" 320 0 basechar 0
LayerCount: 2
Fore
SplineSet
172 786 m 1xf6
 172 892 l 1
 278 892 l 1
 278 786 l 1
 172 786 l 1xf6
359 786 m 1
 359 892 l 1
 466 892 l 1
 466 786 l 1
 359 786 l 1
86 0 m 1xfa
 86 710 l 1
 548 710 l 1
 548 611 l 1
 194 611 l 1
 194 404 l 1
 536 404 l 1
 536 308 l 1
 194 308 l 1
 194 99 l 1
 556 99 l 1
 556 0 l 1
 86 0 l 1xfa
EndSplineSet
Substitution2: "'ss08' Style Set 8 in Latin lookup 41 subtable" Edieresis.ss08
Substitution2: "'aalt' Access All Alternates in Latin lookup 0 subtable" Edieresis.ss08
EndChar

StartChar: Edotaccent
Encoding: 278 278 29
Width: 609
GlyphClass: 2
Flags: MW
HStem: 0 99<194 556 194 556> 308 96<194 536 194 536> 611 99<194 548 194 194> 787 106<263 374 263 374>
VStem: 86 108<99 308 404 611> 263 111<787 893 787 893>
AnchorPoint: "Anchor-3" 319 710 basechar 0
AnchorPoint: "Anchor-2" 556 0 basechar 0
AnchorPoint: "Anchor-0" 320 0 basechar 0
LayerCount: 2
Fore
SplineSet
263 787 m 1
 263 893 l 1
 374 893 l 1
 374 787 l 1
 263 787 l 1
86 0 m 1
 86 710 l 1
 548 710 l 1
 548 611 l 1
 194 611 l 1
 194 404 l 1
 536 404 l 1
 536 308 l 1
 194 308 l 1
 194 99 l 1
 556 99 l 1
 556 0 l 1
 86 0 l 1
EndSplineSet
Substitution2: "'ss08' Style Set 8 in Latin lookup 41 subtable" Edotaccent.ss08
Substitution2: "'aalt' Access All Alternates in Latin lookup 0 subtable" Edotaccent.ss08
EndChar

StartChar: Egrave
Encoding: 200 200 30
Width: 609
GlyphClass: 2
Flags: MW
HStem: 0 99<194 556 194 556> 308 96<194 536 194 536> 611 99<194 548 194 194> 779 135<282 282 282 303 192 367>
VStem: 86 108<99 308 404 611>
AnchorPoint: "Anchor-3" 319 710 basechar 0
AnchorPoint: "Anchor-2" 556 0 basechar 0
AnchorPoint: "Anchor-0" 320 0 basechar 0
LayerCount: 2
Fore
SplineSet
282 779 m 1
 192 914 l 1
 303 914 l 1
 367 779 l 1
 282 779 l 1
86 0 m 1
 86 710 l 1
 548 710 l 1
 548 611 l 1
 194 611 l 1
 194 404 l 1
 536 404 l 1
 536 308 l 1
 194 308 l 1
 194 99 l 1
 556 99 l 1
 556 0 l 1
 86 0 l 1
EndSplineSet
EndChar

StartChar: Emacron
Encoding: 274 274 31
Width: 609
GlyphClass: 2
Flags: MW
HStem: 0 99<194 556 194 556> 308 96<194 536 194 536> 611 99<194 548 194 194> 797 85<179 458 179 458>
VStem: 86 108<99 308 404 611> 179 279<797 882 797 882>
AnchorPoint: "Anchor-3" 319 710 basechar 0
AnchorPoint: "Anchor-2" 556 0 basechar 0
AnchorPoint: "Anchor-0" 320 0 basechar 0
LayerCount: 2
Fore
SplineSet
179 797 m 1xf4
 179 882 l 1
 458 882 l 1
 458 797 l 1
 179 797 l 1xf4
86 0 m 1xf8
 86 710 l 1
 548 710 l 1
 548 611 l 1
 194 611 l 1
 194 404 l 1
 536 404 l 1
 536 308 l 1
 194 308 l 1
 194 99 l 1
 556 99 l 1
 556 0 l 1
 86 0 l 1xf8
EndSplineSet
EndChar

StartChar: Eogonek
Encoding: 280 280 32
Width: 609
GlyphClass: 2
Flags: MW
HStem: -212 75<511 517.5> 0 99<194 470 194 556> 308 96<194 536 194 536> 611 99<194 548 194 194>
VStem: 86 108<99 308 404 611> 399 92<-120 -117.5>
AnchorPoint: "Anchor-3" 319 710 basechar 0
AnchorPoint: "Anchor-2" 556 0 basechar 0
AnchorPoint: "Anchor-0" 320 0 basechar 0
LayerCount: 2
Fore
SplineSet
86 0 m 1
 86 710 l 1
 548 710 l 1
 548 611 l 1
 194 611 l 1
 194 404 l 1
 536 404 l 1
 536 308 l 1
 194 308 l 1
 194 99 l 1
 556 99 l 1
 556 0 l 1
 523 -45 l 2
 499 -77 491 -95 491 -112 c 0
 491 -128 503 -137 519 -137 c 0
 538 -137 554 -132 566 -124 c 1
 592 -186 l 1
 576 -201 536 -212 499 -212 c 0
 437 -212 399 -186 399 -137 c 0
 399 -98 427 -57 454 -21 c 2
 470 0 l 1
 86 0 l 1
EndSplineSet
EndChar

StartChar: uni1EBC
Encoding: 7868 7868 33
Width: 609
GlyphClass: 2
Flags: MW
HStem: 0 99<194 556 194 556> 308 96<194 536 194 536> 611 99<194 548 194 194> 785 67<372.5 392 372.5 408> 837 67<246 266>
VStem: 86 108<99 308 404 611> 156 60<778 778> 421 59<913 913>
AnchorPoint: "Anchor-3" 319 710 basechar 0
AnchorPoint: "Anchor-2" 556 0 basechar 0
AnchorPoint: "Anchor-0" 320 0 basechar 0
LayerCount: 2
Fore
SplineSet
377 785 m 0xf5
 349 785 328 794 305 813 c 0
 284 830 275 837 257 837 c 0
 235 837 218 824 216 778 c 1
 156 778 l 1
 158 859 197 904 256 904 c 0xea
 288 904 310 893 334 874 c 0
 353 858 365 852 380 852 c 0
 404 852 417 865 421 913 c 1
 480 913 l 1
 477 833 439 785 377 785 c 0xf5
86 0 m 1xe4
 86 710 l 1
 548 710 l 1
 548 611 l 1
 194 611 l 1
 194 404 l 1
 536 404 l 1
 536 308 l 1
 194 308 l 1
 194 99 l 1
 556 99 l 1
 556 0 l 1
 86 0 l 1xe4
EndSplineSet
EndChar

StartChar: uni018F
Encoding: 399 399 34
Width: 728
GlyphClass: 1
Flags: MW
HStem: -16 99<303 413.5 303 450> 299 96<160 570 160 160> 627 99<317.5 412.5>
VStem: 570 114<299 299> 571 113<395 395>
LayerCount: 2
Fore
SplineSet
684 355 m 0xe8
 684 118 544 -16 356 -16 c 0
 194 -16 44 105 44 343 c 2
 44 395 l 1
 571 395 l 1
 560 543 469 627 356 627 c 0
 279 627 214 584 179 498 c 1
 65 507 l 1
 107 642 215 726 356 726 c 0
 554 726 684 585 684 355 c 0xe8
357 83 m 0
 470 83 557 157 570 299 c 1xf0
 160 299 l 1
 178 156 249 83 357 83 c 0
EndSplineSet
EndChar

StartChar: F
Encoding: 70 70 35
Width: 595
GlyphClass: 1
Flags: MW
HStem: 0 21G<86 86 86 194> 299 96<194 529 194 529> 611 99<194 547 194 194>
VStem: 86 108<0 299 395 611>
LayerCount: 2
Fore
SplineSet
86 0 m 1
 86 710 l 1
 547 710 l 1
 547 611 l 1
 194 611 l 1
 194 395 l 1
 529 395 l 1
 529 299 l 1
 194 299 l 1
 194 0 l 1
 86 0 l 1
EndSplineSet
EndChar

StartChar: G
Encoding: 71 71 36
Width: 713
GlyphClass: 2
Flags: MW
HStem: -16 99<296 414> 0 21G<590 664 590 590> 271 91<371 561 371 664> 627 99<295 425>
VStem: 44 112<276.5 428.5 276.5 460.5> 561 103<271 271> 587.5 76.5
AnchorPoint: "Anchor-3" 369 710 basechar 0
AnchorPoint: "Anchor-0" 372 0 basechar 0
LayerCount: 2
Fore
SplineSet
365 -16 m 0xba
 163 -16 44 138 44 354 c 0
 44 567 165 726 369 726 c 0
 544 726 634 625 662 487 c 1
 549 481 l 1
 532 568 481 627 369 627 c 0
 221 627 156 503 156 354 c 0
 156 199 222 83 370 83 c 0
 486 83 557 167 561 271 c 1xbc
 371 271 l 1
 371 362 l 1
 664 362 l 1
 664 0 l 1
 590 0 l 1x7a
 585 113 l 1
 550 36 463 -16 365 -16 c 0xba
EndSplineSet
Substitution2: "'ss06' Style Set 6 in Latin lookup 39 subtable" G.ss06
Substitution2: "'aalt' Access All Alternates in Latin lookup 0 subtable" G.ss06
EndChar

StartChar: Gbreve
Encoding: 286 286 37
Width: 713
GlyphClass: 2
Flags: MW
HStem: -16 99<296 414> 0 21G<590 664 590 590> 271 91<371 561 371 664> 627 99<295 425> 777 69<347 391 347 412>
VStem: 44 112<276.5 428.5 276.5 460.5> 561 103<271 271> 587.5 76.5
AnchorPoint: "Anchor-3" 369 710 basechar 0
AnchorPoint: "Anchor-0" 372 0 basechar 0
LayerCount: 2
Fore
SplineSet
369 777 m 0xbd
 284 777 228 828 224 912 c 1
 291 912 l 1
 297 866 325 846 369 846 c 0
 413 846 441 866 447 912 c 1
 514 912 l 1
 510 828 455 777 369 777 c 0xbd
365 -16 m 0
 163 -16 44 138 44 354 c 0
 44 567 165 726 369 726 c 0
 544 726 634 625 662 487 c 1
 549 481 l 1
 532 568 481 627 369 627 c 0
 221 627 156 503 156 354 c 0
 156 199 222 83 370 83 c 0
 486 83 557 167 561 271 c 1xbe
 371 271 l 1
 371 362 l 1
 664 362 l 1
 664 0 l 1
 590 0 l 1x7d
 585 113 l 1
 550 36 463 -16 365 -16 c 0
EndSplineSet
Substitution2: "'ss06' Style Set 6 in Latin lookup 39 subtable" Gbreve.ss06
Substitution2: "'aalt' Access All Alternates in Latin lookup 0 subtable" Gbreve.ss06
EndChar

StartChar: Gcaron
Encoding: 486 486 38
Width: 713
GlyphClass: 2
Flags: MW
HStem: -16 99<296 414> 0 21G<590 664 590 590> 271 91<371 561 371 664> 627 99<295 425> 774 139<222 425 222 314>
VStem: 44 112<276.5 428.5 276.5 460.5> 561 103<271 271> 587.5 76.5
AnchorPoint: "Anchor-3" 369 710 basechar 0
AnchorPoint: "Anchor-0" 372 0 basechar 0
LayerCount: 2
Fore
SplineSet
222 913 m 1xbd
 304 913 l 1
 369 824 l 1
 435 913 l 1
 517 913 l 1
 425 774 l 1
 314 774 l 1
 222 913 l 1xbd
365 -16 m 0
 163 -16 44 138 44 354 c 0
 44 567 165 726 369 726 c 0
 544 726 634 625 662 487 c 1
 549 481 l 1
 532 568 481 627 369 627 c 0
 221 627 156 503 156 354 c 0
 156 199 222 83 370 83 c 0
 486 83 557 167 561 271 c 1xbe
 371 271 l 1
 371 362 l 1
 664 362 l 1
 664 0 l 1
 590 0 l 1x7d
 585 113 l 1
 550 36 463 -16 365 -16 c 0
EndSplineSet
EndChar

StartChar: Gcircumflex
Encoding: 284 284 39
Width: 713
GlyphClass: 2
Flags: MW
HStem: -16 99<296 414> 0 21G<590 664 590 590> 271 91<371 561 371 664> 627 99<295 425> 774 139<222 425 222 425 314 435 314 517>
VStem: 44 112<276.5 428.5 276.5 460.5> 561 103<271 271> 587.5 76.5
AnchorPoint: "Anchor-3" 369 710 basechar 0
AnchorPoint: "Anchor-0" 372 0 basechar 0
LayerCount: 2
Fore
SplineSet
222 774 m 1xbd
 314 913 l 1
 425 913 l 1
 517 774 l 1
 435 774 l 1
 369 863 l 1
 304 774 l 1
 222 774 l 1xbd
365 -16 m 0
 163 -16 44 138 44 354 c 0
 44 567 165 726 369 726 c 0
 544 726 634 625 662 487 c 1
 549 481 l 1
 532 568 481 627 369 627 c 0
 221 627 156 503 156 354 c 0
 156 199 222 83 370 83 c 0
 486 83 557 167 561 271 c 1xbe
 371 271 l 1
 371 362 l 1
 664 362 l 1
 664 0 l 1
 590 0 l 1x7d
 585 113 l 1
 550 36 463 -16 365 -16 c 0
EndSplineSet
Substitution2: "'ss06' Style Set 6 in Latin lookup 39 subtable" Gcircumflex.ss06
Substitution2: "'aalt' Access All Alternates in Latin lookup 0 subtable" Gcircumflex.ss06
EndChar

StartChar: uni0122
Encoding: 290 290 40
Width: 713
GlyphClass: 2
Flags: MW
HStem: -150 98<317 352 317 427> -16 99<296 414> 0 21G<590 664 590 590> 271 91<371 561 371 664> 627 99<295 425>
VStem: 44 112<276.5 428.5 276.5 460.5> 317 110<-141 -52 -141 -52 -141 -52> 561 103<271 271> 587.5 76.5
AnchorPoint: "Anchor-3" 369 710 basechar 0
AnchorPoint: "Anchor-0" 372 -244 basechar 0
LayerCount: 2
Fore
SplineSet
365 -16 m 0xde80
 163 -16 44 138 44 354 c 0
 44 567 165 726 369 726 c 0
 544 726 634 625 662 487 c 1
 549 481 l 1
 532 568 481 627 369 627 c 0
 221 627 156 503 156 354 c 0
 156 199 222 83 370 83 c 0
 486 83 557 167 561 271 c 1xdf
 371 271 l 1
 371 362 l 1
 664 362 l 1
 664 0 l 1
 590 0 l 1xbe80
 585 113 l 1
 550 36 463 -16 365 -16 c 0xde80
298 -244 m 1
 352 -150 l 1
 317 -150 l 1
 317 -52 l 1
 427 -52 l 1
 427 -141 l 1
 366 -244 l 1
 298 -244 l 1
EndSplineSet
Substitution2: "'ss06' Style Set 6 in Latin lookup 39 subtable" uni0122.ss06
Substitution2: "'aalt' Access All Alternates in Latin lookup 0 subtable" uni0122.ss06
EndChar

StartChar: Gdotaccent
Encoding: 288 288 41
Width: 713
GlyphClass: 2
Flags: MW
HStem: -16 99<296 414> 0 21G<590 664 590 590> 271 91<371 561 371 664> 627 99<295 425> 787 106<314 425 314 425>
VStem: 44 112<276.5 428.5 276.5 460.5> 314 111<787 893 787 893> 561 103<271 271> 587.5 76.5
AnchorPoint: "Anchor-3" 369 710 basechar 0
AnchorPoint: "Anchor-0" 372 0 basechar 0
LayerCount: 2
Fore
SplineSet
314 787 m 1xbe80
 314 893 l 1
 425 893 l 1
 425 787 l 1
 314 787 l 1xbe80
365 -16 m 0
 163 -16 44 138 44 354 c 0
 44 567 165 726 369 726 c 0
 544 726 634 625 662 487 c 1
 549 481 l 1
 532 568 481 627 369 627 c 0
 221 627 156 503 156 354 c 0
 156 199 222 83 370 83 c 0
 486 83 557 167 561 271 c 1xbf
 371 271 l 1
 371 362 l 1
 664 362 l 1
 664 0 l 1
 590 0 l 1x7e80
 585 113 l 1
 550 36 463 -16 365 -16 c 0
EndSplineSet
Substitution2: "'ss08' Style Set 8 in Latin lookup 41 subtable" Gdotaccent.ss08
Substitution2: "'ss06' Style Set 6 in Latin lookup 39 subtable" Gdotaccent.ss06
AlternateSubs2: "'aalt' Access All Alternates in Latin lookup 1 subtable" Gdotaccent.ss06 Gdotaccent.ss08
EndChar

StartChar: uni1E20
Encoding: 7712 7712 42
Width: 713
GlyphClass: 2
Flags: MW
HStem: -16 99<296 414> 0 21G<590 664 590 590> 271 91<371 561 371 664> 627 99<295 425> 797 85<230 509 230 509>
VStem: 44 112<276.5 428.5 276.5 460.5> 230 279<797 882 797 882> 561 103<271 271> 587.5 76.5
AnchorPoint: "Anchor-3" 369 710 basechar 0
AnchorPoint: "Anchor-0" 372 0 basechar 0
LayerCount: 2
Fore
SplineSet
230 797 m 1xbe80
 230 882 l 1
 509 882 l 1
 509 797 l 1
 230 797 l 1xbe80
365 -16 m 0
 163 -16 44 138 44 354 c 0
 44 567 165 726 369 726 c 0
 544 726 634 625 662 487 c 1
 549 481 l 1
 532 568 481 627 369 627 c 0
 221 627 156 503 156 354 c 0
 156 199 222 83 370 83 c 0
 486 83 557 167 561 271 c 1xbd
 371 271 l 1
 371 362 l 1
 664 362 l 1
 664 0 l 1
 590 0 l 1x7c80
 585 113 l 1
 550 36 463 -16 365 -16 c 0
EndSplineSet
Substitution2: "'ss06' Style Set 6 in Latin lookup 39 subtable" uni1E20.ss06
Substitution2: "'aalt' Access All Alternates in Latin lookup 0 subtable" uni1E20.ss06
EndChar

StartChar: uni01E4
Encoding: 484 484 43
Width: 756
GlyphClass: 2
Flags: MW
HStem: -16 99<294.5 403.5 294.5 434.5> 156 70<371 524 371 554 656 717> 280 82<371 561 371 664> 627 99<295 427>
VStem: 44 112<276 428.5 276 458> 561 103<280 319>
AnchorPoint: "Anchor-3" 371 710 basechar 0
AnchorPoint: "Anchor-0" 373 0 basechar 0
LayerCount: 2
Fore
SplineSet
368 -16 m 0
 156 -16 44 146 44 354 c 0
 44 562 162 726 372 726 c 0
 537 726 634 632 662 487 c 1
 549 481 l 1
 533 565 483 627 371 627 c 0
 219 627 156 503 156 354 c 0
 156 198 222 83 367 83 c 0
 440 83 492 110 524 156 c 1
 371 156 l 1
 371 226 l 1
 554 226 l 1
 558 243 560 261 561 280 c 1
 371 280 l 1
 371 362 l 1
 664 362 l 1
 664 319 l 2
 664 286 661 255 656 226 c 1
 717 226 l 1
 717 156 l 1
 637 156 l 1
 594 44 501 -16 368 -16 c 0
EndSplineSet
EndChar

StartChar: H
Encoding: 72 72 44
Width: 716
GlyphClass: 2
Flags: MW
HStem: 0 21G<86 86 86 194 522 522 522 630> 308 98<194 522 194 522> 690 20G<86 194 194 194 522 630 630 630>
VStem: 86 108<0 308 406 710> 522 108<0 308 308 308 406 710 0 710>
AnchorPoint: "Anchor-3" 358 710 basechar 0
AnchorPoint: "Anchor-1" 358 570 basechar 0
AnchorPoint: "Anchor-0" 358 0 basechar 0
LayerCount: 2
Fore
SplineSet
86 0 m 1
 86 710 l 1
 194 710 l 1
 194 406 l 1
 522 406 l 1
 522 710 l 1
 630 710 l 1
 630 0 l 1
 522 0 l 1
 522 308 l 1
 194 308 l 1
 194 0 l 1
 86 0 l 1
EndSplineSet
EndChar

StartChar: Hbar
Encoding: 294 294 45
Width: 716
GlyphClass: 2
Flags: MW
HStem: 0 21G<86 86 86 194 522 522 522 630> 308 98<194 522 194 522> 525 91<12 86 12 86 194 522 630 704> 525 185<12 194 12 194 86 194 86 522>
VStem: 86 108<0 308 406 525 616 710> 522 108<0 308 308 308 406 525 0 525 616 710>
AnchorPoint: "Anchor-3" 358 710 basechar 0
AnchorPoint: "Anchor-1" 358 570 basechar 0
AnchorPoint: "Anchor-0" 358 0 basechar 0
LayerCount: 2
Fore
SplineSet
86 0 m 1xdc
 86 525 l 1
 12 525 l 1xdc
 12 616 l 1
 86 616 l 1xec
 86 710 l 1
 194 710 l 1xdc
 194 616 l 1
 522 616 l 1xec
 522 710 l 1
 630 710 l 1xdc
 630 616 l 1
 704 616 l 1xec
 704 525 l 1
 630 525 l 1
 630 0 l 1
 522 0 l 1
 522 308 l 1
 194 308 l 1
 194 0 l 1
 86 0 l 1xdc
194 406 m 1
 522 406 l 1
 522 525 l 1
 194 525 l 1
 194 406 l 1
EndSplineSet
EndChar

StartChar: Hcircumflex
Encoding: 292 292 46
Width: 716
GlyphClass: 2
Flags: MW
HStem: 0 21G<86 86 86 194 522 522 522 630> 308 98<194 522 194 522> 690 20G<86 194 194 194 522 630 630 630> 774 139<211 414 211 414 303 424 303 506>
VStem: 86 108<0 308 406 710> 522 108<0 308 308 308 406 710 0 710>
AnchorPoint: "Anchor-3" 358 710 basechar 0
AnchorPoint: "Anchor-1" 358 570 basechar 0
AnchorPoint: "Anchor-0" 358 0 basechar 0
LayerCount: 2
Fore
SplineSet
211 774 m 1
 303 913 l 1
 414 913 l 1
 506 774 l 1
 424 774 l 1
 358 863 l 1
 292 774 l 1
 211 774 l 1
86 0 m 1
 86 710 l 1
 194 710 l 1
 194 406 l 1
 522 406 l 1
 522 710 l 1
 630 710 l 1
 630 0 l 1
 522 0 l 1
 522 308 l 1
 194 308 l 1
 194 0 l 1
 86 0 l 1
EndSplineSet
EndChar

StartChar: I
Encoding: 73 73 47
Width: 280
GlyphClass: 2
Flags: MW
HStem: 0 21G<86 86 86 194> 690 20G<86 194 194 194>
VStem: 86 108<0 710 0 710>
AnchorPoint: "Anchor-3" 140 710 basechar 0
AnchorPoint: "Anchor-2" 194 0 basechar 0
AnchorPoint: "Anchor-0" 140 0 basechar 0
LayerCount: 2
Fore
SplineSet
86 0 m 1
 86 710 l 1
 194 710 l 1
 194 0 l 1
 86 0 l 1
EndSplineSet
Substitution2: "'ss05' Style Set 5 in Latin lookup 38 subtable" I.ss05
Substitution2: "'aalt' Access All Alternates in Latin lookup 0 subtable" I.ss05
EndChar

StartChar: IJ
Encoding: 306 306 48
Width: 869
GlyphClass: 2
Flags: MW
HStem: -16 99<520 601.5 520 632.5> 0 21G<86 86 86 194> 690 20G<86 194 194 194 690 798 798 798>
VStem: 86 108<0 710 0 710> 323 110<239 245> 690 108<250 710>
AnchorPoint: "Anchor-3" 745 710 basechar 0
AnchorPoint: "Anchor-2" 194 0 basechar 0
AnchorPoint: "Anchor-0" 140 0 basechar 0
LayerCount: 2
Fore
SplineSet
86 0 m 1x74
 86 710 l 1
 194 710 l 1
 194 0 l 1
 86 0 l 1x74
560 -16 m 0
 417 -16 324 90 323 239 c 1
 433 245 l 1
 434 139 480 83 560 83 c 0
 643 83 690 141 690 250 c 2
 690 710 l 1
 798 710 l 1
 798 250 l 2xbc
 798 87 705 -16 560 -16 c 0
EndSplineSet
EndChar

StartChar: Iacute
Encoding: 205 205 49
Width: 280
GlyphClass: 2
Flags: MW
HStem: 0 21G<86 86 86 194> 690 20G<86 194 194 194> 774 134<93 267 156 177>
VStem: 86 108<0 710 0 710>
AnchorPoint: "Anchor-3" 140 710 basechar 0
AnchorPoint: "Anchor-2" 194 0 basechar 0
AnchorPoint: "Anchor-0" 140 0 basechar 0
LayerCount: 2
Fore
SplineSet
93 774 m 1
 156 908 l 1
 267 908 l 1
 177 774 l 1
 93 774 l 1
86 0 m 1
 86 710 l 1
 194 710 l 1
 194 0 l 1
 86 0 l 1
EndSplineSet
Substitution2: "'ss05' Style Set 5 in Latin lookup 38 subtable" Iacute.ss05
Substitution2: "'aalt' Access All Alternates in Latin lookup 0 subtable" Iacute.ss05
EndChar

StartChar: Icircumflex
Encoding: 206 206 50
Width: 280
GlyphClass: 2
Flags: MW
HStem: 0 21G<86 86 86 194> 690 20G<86 194 194 194> 774 139<-7 195 -7 195 85 206 85 287>
VStem: 86 108<0 710 0 710>
AnchorPoint: "Anchor-3" 140 710 basechar 0
AnchorPoint: "Anchor-2" 194 0 basechar 0
AnchorPoint: "Anchor-0" 140 0 basechar 0
LayerCount: 2
Fore
SplineSet
-7 774 m 1
 85 913 l 1
 195 913 l 1
 287 774 l 1
 206 774 l 1
 140 863 l 1
 74 774 l 1
 -7 774 l 1
86 0 m 1
 86 710 l 1
 194 710 l 1
 194 0 l 1
 86 0 l 1
EndSplineSet
Substitution2: "'ss05' Style Set 5 in Latin lookup 38 subtable" Icircumflex.ss05
Substitution2: "'aalt' Access All Alternates in Latin lookup 0 subtable" Icircumflex.ss05
EndChar

StartChar: Idieresis
Encoding: 207 207 51
Width: 280
GlyphClass: 2
Flags: MW
HStem: 0 21G<86 86 86 194> 690 20G<86 194 194 194> 786 106<-7 99 -7 99 181 287 -7 181>
VStem: -7 106<786 892 786 892> 86 108<0 710 0 710> 181 106<786 892 786 892>
AnchorPoint: "Anchor-3" 140 710 basechar 0
AnchorPoint: "Anchor-2" 194 0 basechar 0
AnchorPoint: "Anchor-0" 140 0 basechar 0
LayerCount: 2
Fore
SplineSet
-7 786 m 1xf4
 -7 892 l 1
 99 892 l 1
 99 786 l 1
 -7 786 l 1xf4
181 786 m 1
 181 892 l 1
 287 892 l 1
 287 786 l 1
 181 786 l 1
86 0 m 1xe8
 86 710 l 1
 194 710 l 1
 194 0 l 1
 86 0 l 1xe8
EndSplineSet
Substitution2: "'ss08' Style Set 8 in Latin lookup 41 subtable" Idieresis.ss08
Substitution2: "'ss05' Style Set 5 in Latin lookup 38 subtable" Idieresis.ss05
AlternateSubs2: "'aalt' Access All Alternates in Latin lookup 1 subtable" Idieresis.ss05 Idieresis.ss08
EndChar

StartChar: Idotaccent
Encoding: 304 304 52
Width: 280
GlyphClass: 2
Flags: MW
HStem: 0 21G<86 86 86 194> 690 20G<86 194 194 194> 787 106<85 195 85 195>
VStem: 85 110<787 893 787 893> 86 108<0 710 0 710>
AnchorPoint: "Anchor-3" 140 710 basechar 0
AnchorPoint: "Anchor-2" 194 0 basechar 0
AnchorPoint: "Anchor-0" 140 0 basechar 0
LayerCount: 2
Fore
SplineSet
85 787 m 1xf0
 85 893 l 1
 195 893 l 1
 195 787 l 1
 85 787 l 1xf0
86 0 m 1xe8
 86 710 l 1
 194 710 l 1
 194 0 l 1
 86 0 l 1xe8
EndSplineSet
Substitution2: "'ss08' Style Set 8 in Latin lookup 41 subtable" Idotaccent.ss08
Substitution2: "'ss05' Style Set 5 in Latin lookup 38 subtable" Idotaccent.ss05
AlternateSubs2: "'aalt' Access All Alternates in Latin lookup 1 subtable" Idotaccent.ss05 Idotaccent.ss08
EndChar

StartChar: Igrave
Encoding: 204 204 53
Width: 280
GlyphClass: 2
Flags: MW
HStem: 0 21G<86 86 86 194> 690 20G<86 194 194 194> 779 135<103 103 103 125 13 188>
VStem: 86 108<0 710 0 710>
AnchorPoint: "Anchor-3" 140 710 basechar 0
AnchorPoint: "Anchor-2" 194 0 basechar 0
AnchorPoint: "Anchor-0" 140 0 basechar 0
LayerCount: 2
Fore
SplineSet
103 779 m 1
 13 914 l 1
 125 914 l 1
 188 779 l 1
 103 779 l 1
86 0 m 1
 86 710 l 1
 194 710 l 1
 194 0 l 1
 86 0 l 1
EndSplineSet
Substitution2: "'ss05' Style Set 5 in Latin lookup 38 subtable" Igrave.ss05
Substitution2: "'aalt' Access All Alternates in Latin lookup 0 subtable" Igrave.ss05
EndChar

StartChar: Imacron
Encoding: 298 298 54
Width: 280
GlyphClass: 2
Flags: MW
HStem: 0 21G<86 86 86 194> 690 20G<86 194 194 194> 797 85<1 279 1 279>
VStem: 86 108<0 710 0 710>
AnchorPoint: "Anchor-3" 140 710 basechar 0
AnchorPoint: "Anchor-2" 194 0 basechar 0
AnchorPoint: "Anchor-0" 140 0 basechar 0
LayerCount: 2
Fore
SplineSet
1 797 m 1
 1 882 l 1
 279 882 l 1
 279 797 l 1
 1 797 l 1
86 0 m 1
 86 710 l 1
 194 710 l 1
 194 0 l 1
 86 0 l 1
EndSplineSet
Substitution2: "'ss05' Style Set 5 in Latin lookup 38 subtable" Imacron.ss05
Substitution2: "'aalt' Access All Alternates in Latin lookup 0 subtable" Imacron.ss05
EndChar

StartChar: Iogonek
Encoding: 302 302 55
Width: 280
GlyphClass: 2
Flags: MW
HStem: -212 75<149 155.5> 0 21G<86 86 86 108 194 194> 690 20G<86 194 194 194>
VStem: 37 92<-120 -117.5> 86 108<0 710 0 710>
AnchorPoint: "Anchor-3" 140 710 basechar 0
AnchorPoint: "Anchor-2" 194 0 basechar 0
AnchorPoint: "Anchor-0" 140 0 basechar 0
LayerCount: 2
Fore
SplineSet
86 0 m 1xe8
 86 710 l 1
 194 710 l 1
 194 0 l 1xe8
 161 -45 l 2
 137 -77 129 -95 129 -112 c 0
 129 -128 141 -137 157 -137 c 0
 176 -137 192 -132 204 -124 c 1
 230 -186 l 1
 214 -201 174 -212 137 -212 c 0
 75 -212 37 -186 37 -137 c 0xf0
 37 -98 65 -57 92 -21 c 2
 108 0 l 1
 86 0 l 1xe8
EndSplineSet
Substitution2: "'ss05' Style Set 5 in Latin lookup 38 subtable" Iogonek.ss05
Substitution2: "'aalt' Access All Alternates in Latin lookup 0 subtable" Iogonek.ss05
EndChar

StartChar: Itilde
Encoding: 296 296 56
Width: 280
GlyphClass: 2
Flags: MW
HStem: 0 21G<86 86 86 194> 690 20G<86 194 194 194> 785 67<194.5 213.5 194.5 229> 837 67<67 87>
VStem: -23 60<778 778> 86 108<0 710 0 710> 242 60<913 913>
AnchorPoint: "Anchor-3" 140 710 basechar 0
AnchorPoint: "Anchor-2" 194 0 basechar 0
AnchorPoint: "Anchor-0" 140 0 basechar 0
LayerCount: 2
Fore
SplineSet
198 785 m 0xe6
 170 785 149 794 126 813 c 0
 106 830 96 837 78 837 c 0
 56 837 39 824 37 778 c 1
 -23 778 l 1
 -21 859 19 904 78 904 c 0xdc
 110 904 131 893 155 874 c 0
 175 858 187 852 202 852 c 0
 225 852 238 865 242 913 c 1
 302 913 l 1
 298 833 260 785 198 785 c 0xe6
86 0 m 1
 86 710 l 1
 194 710 l 1
 194 0 l 1
 86 0 l 1
EndSplineSet
Substitution2: "'ss05' Style Set 5 in Latin lookup 38 subtable" Itilde.ss05
Substitution2: "'aalt' Access All Alternates in Latin lookup 0 subtable" Itilde.ss05
EndChar

StartChar: J
Encoding: 74 74 57
Width: 607
GlyphClass: 2
Flags: MW
HStem: -16 99<258 339.5 258 370.5> 690 20G<428 536 536 536>
VStem: 61 110<239 245> 428 108<250 710>
AnchorPoint: "Anchor-3" 483 710 basechar 0
LayerCount: 2
Fore
SplineSet
298 -16 m 0
 155 -16 62 90 61 239 c 1
 171 245 l 1
 172 139 218 83 298 83 c 0
 381 83 428 141 428 250 c 2
 428 710 l 1
 536 710 l 1
 536 250 l 2
 536 87 443 -16 298 -16 c 0
EndSplineSet
Substitution2: "Single Substitution lookup 16 subtable" uni004A0301
Substitution2: "'aalt' Access All Alternates in Latin lookup 0 subtable" uni004A0301
EndChar

StartChar: uni004A0301
Encoding: 65537 -1 58
Width: 607
GlyphClass: 2
Flags: MW
HStem: -16 99<258 339.5 258 370.5> 690 20G<428 536 536 536> 774 134<435 610 499 520>
VStem: 61 110<239 245> 428 108<250 710>
AnchorPoint: "Anchor-3" 483 710 basechar 0
LayerCount: 2
Fore
SplineSet
435 774 m 1
 499 908 l 1
 610 908 l 1
 520 774 l 1
 435 774 l 1
298 -16 m 0
 155 -16 62 90 61 239 c 1
 171 245 l 1
 172 139 218 83 298 83 c 0
 381 83 428 141 428 250 c 2
 428 710 l 1
 536 710 l 1
 536 250 l 2
 536 87 443 -16 298 -16 c 0
EndSplineSet
EndChar

StartChar: Jcircumflex
Encoding: 308 308 59
Width: 607
GlyphClass: 2
Flags: MW
HStem: -16 99<258 339.5 258 370.5> 690 20G<428 536 536 536> 774 139<335 538 335 538 427 549 427 630>
VStem: 61 110<239 245> 428 108<250 710>
AnchorPoint: "Anchor-3" 483 710 basechar 0
LayerCount: 2
Fore
SplineSet
335 774 m 1
 427 913 l 1
 538 913 l 1
 630 774 l 1
 549 774 l 1
 483 863 l 1
 417 774 l 1
 335 774 l 1
298 -16 m 0
 155 -16 62 90 61 239 c 1
 171 245 l 1
 172 139 218 83 298 83 c 0
 381 83 428 141 428 250 c 2
 428 710 l 1
 536 710 l 1
 536 250 l 2
 536 87 443 -16 298 -16 c 0
EndSplineSet
EndChar

StartChar: K
Encoding: 75 75 60
Width: 656
GlyphClass: 2
Flags: MW
HStem: 0 21G<86 86 86 194 515 515 515 642> 690 20G<86 194 194 194 493 624 624 624>
VStem: 86 108<0 228 371 710>
AnchorPoint: "Anchor-3" 334 710 basechar 0
AnchorPoint: "Anchor-0" 350 0 basechar 0
LayerCount: 2
Fore
SplineSet
86 0 m 1
 86 710 l 1
 194 710 l 1
 194 371 l 1
 493 710 l 1
 624 710 l 1
 352 400 l 1
 642 0 l 1
 515 0 l 1
 280 324 l 1
 194 228 l 1
 194 0 l 1
 86 0 l 1
EndSplineSet
EndChar

StartChar: uni01E8
Encoding: 488 488 61
Width: 656
GlyphClass: 2
Flags: MW
HStem: 0 21G<86 86 86 194 515 515 515 642> 690 20G<86 194 194 194 493 624 624 624> 774 139<187 389 187 279>
VStem: 86 108<0 228 371 710>
AnchorPoint: "Anchor-3" 334 710 basechar 0
AnchorPoint: "Anchor-0" 350 0 basechar 0
LayerCount: 2
Fore
SplineSet
187 913 m 1
 268 913 l 1
 334 824 l 1
 400 913 l 1
 481 913 l 1
 389 774 l 1
 279 774 l 1
 187 913 l 1
86 0 m 1
 86 710 l 1
 194 710 l 1
 194 371 l 1
 493 710 l 1
 624 710 l 1
 352 400 l 1
 642 0 l 1
 515 0 l 1
 280 324 l 1
 194 228 l 1
 194 0 l 1
 86 0 l 1
EndSplineSet
EndChar

StartChar: uni0136
Encoding: 310 310 62
Width: 656
GlyphClass: 2
Flags: MW
HStem: -150 98<295 331 295 405> 0 21G<86 86 86 194 515 515 515 642> 690 20G<86 194 194 194 493 624 624 624>
VStem: 86 108<0 228 371 710> 295 110<-141 -52 -141 -52 -141 -52>
AnchorPoint: "Anchor-3" 334 710 basechar 0
AnchorPoint: "Anchor-0" 350 -244 basechar 0
LayerCount: 2
Fore
SplineSet
86 0 m 1
 86 710 l 1
 194 710 l 1
 194 371 l 1
 493 710 l 1
 624 710 l 1
 352 400 l 1
 642 0 l 1
 515 0 l 1
 280 324 l 1
 194 228 l 1
 194 0 l 1
 86 0 l 1
277 -244 m 1
 331 -150 l 1
 295 -150 l 1
 295 -52 l 1
 405 -52 l 1
 405 -141 l 1
 345 -244 l 1
 277 -244 l 1
EndSplineSet
EndChar

StartChar: L
Encoding: 76 76 63
Width: 583
GlyphClass: 2
Flags: MW
HStem: 0 99<194 540 194 540> 690 20G<86 194 194 194>
VStem: 86 108<99 710 99 710 99 710>
AnchorPoint: "Anchor-4" 374 532 basechar 0
AnchorPoint: "Anchor-3" 140 710 basechar 0
AnchorPoint: "Anchor-1" 177 380 basechar 0
AnchorPoint: "Anchor-0" 313 0 basechar 0
LayerCount: 2
Fore
SplineSet
86 0 m 1
 86 710 l 1
 194 710 l 1
 194 99 l 1
 540 99 l 1
 540 0 l 1
 86 0 l 1
EndSplineSet
EndChar

StartChar: Lacute
Encoding: 313 313 64
Width: 583
GlyphClass: 2
Flags: MW
HStem: 0 99<194 540 194 540> 690 20G<86 194 194 194> 774 134<93 267 156 177>
VStem: 86 108<99 710 99 710 99 710>
AnchorPoint: "Anchor-4" 374 532 basechar 0
AnchorPoint: "Anchor-3" 140 710 basechar 0
AnchorPoint: "Anchor-1" 177 380 basechar 0
AnchorPoint: "Anchor-0" 313 0 basechar 0
LayerCount: 2
Fore
SplineSet
93 774 m 1
 156 908 l 1
 267 908 l 1
 177 774 l 1
 93 774 l 1
86 0 m 1
 86 710 l 1
 194 710 l 1
 194 99 l 1
 540 99 l 1
 540 0 l 1
 86 0 l 1
EndSplineSet
EndChar

StartChar: Lcaron
Encoding: 317 317 65
Width: 583
GlyphClass: 2
Flags: MW
HStem: 0 99<194 540 194 540> 445 265<86 394 424 470> 690 20G<86 194 194 194 424 523 523 523>
VStem: 86 108<99 710 99 710 99 710>
AnchorPoint: "Anchor-4" 374 532 basechar 0
AnchorPoint: "Anchor-3" 140 710 basechar 0
AnchorPoint: "Anchor-1" 177 380 basechar 0
AnchorPoint: "Anchor-0" 313 0 basechar 0
LayerCount: 2
Fore
SplineSet
86 0 m 1xb0
 86 710 l 1
 194 710 l 1
 194 99 l 1
 540 99 l 1
 540 0 l 1
 86 0 l 1xb0
394 445 m 1xd0
 424 710 l 1
 523 710 l 1
 470 445 l 1
 394 445 l 1xd0
EndSplineSet
EndChar

StartChar: uni013B
Encoding: 315 315 66
Width: 583
GlyphClass: 2
Flags: MW
HStem: -150 98<258 294 258 368> 0 99<194 540 194 540> 690 20G<86 194 194 194>
VStem: 86 108<99 710 99 710 99 710> 258 110<-141 -52 -141 -52 -141 -52>
AnchorPoint: "Anchor-4" 374 532 basechar 0
AnchorPoint: "Anchor-3" 140 710 basechar 0
AnchorPoint: "Anchor-1" 177 380 basechar 0
AnchorPoint: "Anchor-0" 313 -244 basechar 0
LayerCount: 2
Fore
SplineSet
86 0 m 1
 86 710 l 1
 194 710 l 1
 194 99 l 1
 540 99 l 1
 540 0 l 1
 86 0 l 1
240 -244 m 1
 294 -150 l 1
 258 -150 l 1
 258 -52 l 1
 368 -52 l 1
 368 -141 l 1
 308 -244 l 1
 240 -244 l 1
EndSplineSet
Substitution2: "'locl' Localized Forms in Latin lookup 11 subtable" uni013B.loclMAH
Substitution2: "'aalt' Access All Alternates in Latin lookup 0 subtable" uni013B.loclMAH
EndChar

StartChar: Lslash
Encoding: 321 321 67
Width: 583
GlyphClass: 2
Flags: MW
HStem: 0 99<194 540 194 540> 690 20G<86 194 194 194>
VStem: 86 108<99 291 291 291 431 710>
AnchorPoint: "Anchor-4" 374 532 basechar 0
AnchorPoint: "Anchor-3" 140 710 basechar 0
AnchorPoint: "Anchor-1" 177 380 basechar 0
AnchorPoint: "Anchor-0" 313 0 basechar 0
LayerCount: 2
Fore
SplineSet
86 0 m 1
 86 291 l 1
 15 255 l 1
 15 340 l 1
 86 376 l 1
 86 710 l 1
 194 710 l 1
 194 431 l 1
 339 504 l 1
 339 420 l 1
 194 346 l 1
 194 99 l 1
 540 99 l 1
 540 0 l 1
 86 0 l 1
EndSplineSet
EndChar

StartChar: M
Encoding: 77 77 68
Width: 890
GlyphClass: 2
Flags: MW
HStem: 0 21G<86 86 86 194 696 696 696 804> 520 190<194 194 696 696>
VStem: 86 108<0 520 0 710> 696 108<0 520 520 520>
AnchorPoint: "Anchor-3" 445 710 basechar 0
AnchorPoint: "Anchor-0" 445 0 basechar 0
LayerCount: 2
Fore
SplineSet
86 0 m 1
 86 710 l 1
 234 710 l 1
 445 127 l 1
 656 710 l 1
 804 710 l 1
 804 0 l 1
 696 0 l 1
 696 520 l 1
 505 1 l 1
 385 1 l 1
 194 520 l 1
 194 0 l 1
 86 0 l 1
EndSplineSet
EndChar

StartChar: N
Encoding: 78 78 69
Width: 745
GlyphClass: 2
Flags: MW
HStem: 0 21G<86 86 86 194 517 517 517 659> 0 131<517 551 551 551 551 659> 566 144<194 194> 690 20G<86 223 223 223 551 659 659 659>
VStem: 86 108<0 566 0 710> 551 108<131 710 0 710>
AnchorPoint: "Anchor-3" 384 710 basechar 0
AnchorPoint: "Anchor-0" 373 0 basechar 0
LayerCount: 2
Fore
SplineSet
86 0 m 1xac
 86 710 l 1
 223 710 l 1
 551 131 l 1x5c
 551 710 l 1
 659 710 l 1
 659 0 l 1
 517 0 l 1
 194 566 l 1
 194 0 l 1
 86 0 l 1xac
EndSplineSet
EndChar

StartChar: Nacute
Encoding: 323 323 70
Width: 745
GlyphClass: 2
Flags: MW
HStem: 0 21G<86 86 86 194 517 517 517 659> 0 131<517 551 551 551 551 659> 566 144<194 194> 690 20G<86 223 223 223 551 659 659 659> 774 134<337 512 401 422>
VStem: 86 108<0 566 0 710> 551 108<131 710 0 710>
AnchorPoint: "Anchor-3" 384 710 basechar 0
AnchorPoint: "Anchor-0" 373 0 basechar 0
LayerCount: 2
Fore
SplineSet
337 774 m 1xae
 401 908 l 1
 512 908 l 1
 422 774 l 1
 337 774 l 1xae
86 0 m 1
 86 710 l 1
 223 710 l 1
 551 131 l 1x5e
 551 710 l 1
 659 710 l 1
 659 0 l 1
 517 0 l 1
 194 566 l 1
 194 0 l 1
 86 0 l 1
EndSplineSet
EndChar

StartChar: Ncaron
Encoding: 327 327 71
Width: 745
GlyphClass: 2
Flags: MW
HStem: 0 21G<86 86 86 194 517 517 517 659> 0 131<517 551 551 551 551 659> 566 144<194 194> 690 20G<86 223 223 223 551 659 659 659> 774 139<237 440 237 329>
VStem: 86 108<0 566 0 710> 551 108<131 710 0 710>
AnchorPoint: "Anchor-3" 384 710 basechar 0
AnchorPoint: "Anchor-0" 373 0 basechar 0
LayerCount: 2
Fore
SplineSet
237 913 m 1xae
 319 913 l 1
 384 824 l 1
 450 913 l 1
 532 913 l 1
 440 774 l 1
 329 774 l 1
 237 913 l 1xae
86 0 m 1
 86 710 l 1
 223 710 l 1
 551 131 l 1x5e
 551 710 l 1
 659 710 l 1
 659 0 l 1
 517 0 l 1
 194 566 l 1
 194 0 l 1
 86 0 l 1
EndSplineSet
EndChar

StartChar: uni0145
Encoding: 325 325 72
Width: 745
GlyphClass: 2
Flags: MW
HStem: -150 98<318 354 318 428> 0 21G<86 86 86 194 517 517 517 659> 0 131<517 551 551 551 551 659> 566 144<194 194> 690 20G<86 223 223 223 551 659 659 659>
VStem: 86 108<0 566 0 710> 318 110<-141 -52 -141 -52 -141 -52> 551 108<131 710 0 710>
AnchorPoint: "Anchor-3" 384 710 basechar 0
AnchorPoint: "Anchor-0" 373 -244 basechar 0
LayerCount: 2
Fore
SplineSet
86 0 m 1xd7
 86 710 l 1
 223 710 l 1
 551 131 l 1xaf
 551 710 l 1
 659 710 l 1
 659 0 l 1
 517 0 l 1
 194 566 l 1
 194 0 l 1
 86 0 l 1xd7
300 -244 m 1
 354 -150 l 1
 318 -150 l 1
 318 -52 l 1
 428 -52 l 1
 428 -141 l 1
 368 -244 l 1
 300 -244 l 1
EndSplineSet
Substitution2: "'locl' Localized Forms in Latin lookup 11 subtable" uni0145.loclMAH
Substitution2: "'aalt' Access All Alternates in Latin lookup 0 subtable" uni0145.loclMAH
EndChar

StartChar: Ntilde
Encoding: 209 209 73
Width: 745
GlyphClass: 2
Flags: MW
HStem: 0 21G<86 86 86 194 517 517 517 659> 0 131<517 551 551 551 551 659> 566 144<194 194> 690 20G<86 223 223 223 551 659 659 659> 785 67<438.5 457.5 438.5 473.5> 837 67<311.5 332>
VStem: 86 108<0 566 0 710> 222 59<778 778> 486 60<913 913> 551 108<131 710 0 710>
AnchorPoint: "Anchor-3" 384 710 basechar 0
AnchorPoint: "Anchor-0" 373 0 basechar 0
LayerCount: 2
Fore
SplineSet
442 785 m 0x9a80
 415 785 394 794 370 813 c 0
 350 830 341 837 323 837 c 0
 300 837 284 824 281 778 c 1
 222 778 l 1
 223 859 263 904 322 904 c 0x9540
 354 904 376 893 400 874 c 0
 419 858 431 852 446 852 c 0
 469 852 483 865 486 913 c 1
 546 913 l 1
 543 833 505 785 442 785 c 0x9a80
86 0 m 1xa640
 86 710 l 1
 223 710 l 1
 551 131 l 1x5640
 551 710 l 1
 659 710 l 1
 659 0 l 1
 517 0 l 1
 194 566 l 1
 194 0 l 1
 86 0 l 1xa640
EndSplineSet
EndChar

StartChar: Eng
Encoding: 330 330 74
Width: 745
GlyphClass: 2
Flags: MW
HStem: -154 88<394 494 494 506 394 494> 0 21G<86 86 86 194 517 517 517 554> 565 145<194 194> 690 20G<86 223 223 223 551 659 659 659>
VStem: 86 108<0 565 0 710> 551 108<132 710> 554 105<-8 -7 -7 0 0 0>
AnchorPoint: "Anchor-3" 373 710 basechar 0
AnchorPoint: "Anchor-0" 373 -150 basechar 0
LayerCount: 2
Fore
SplineSet
86 0 m 1xea
 86 710 l 1
 223 710 l 1
 551 132 l 1
 551 710 l 1
 659 710 l 1
 659 -7 l 2xdc
 659 -97 602 -154 506 -154 c 2
 394 -154 l 1
 394 -66 l 1
 494 -66 l 2
 534 -66 554 -45 554 -8 c 2
 554 0 l 1
 517 0 l 1
 194 565 l 1
 194 0 l 1
 86 0 l 1xea
EndSplineSet
EndChar

StartChar: O
Encoding: 79 79 75
Width: 751
GlyphClass: 2
Flags: MW
HStem: -16 99<306.5 444 306.5 479> 627 99<306.5 444>
VStem: 44 112<268.5 439.5 268.5 469> 595 112<268.5 439.5>
AnchorPoint: "Anchor-3" 375 710 basechar 0
AnchorPoint: "Anchor-1" 376 355 basechar 0
AnchorPoint: "Anchor-0" 375 0 basechar 0
LayerCount: 2
Fore
SplineSet
375 -16 m 0
 169 -16 44 124 44 354 c 0
 44 584 169 726 375 726 c 0
 583 726 707 584 707 354 c 0
 707 124 583 -16 375 -16 c 0
375 83 m 0
 513 83 595 183 595 354 c 0
 595 525 513 627 375 627 c 0
 238 627 156 525 156 354 c 0
 156 183 238 83 375 83 c 0
EndSplineSet
Substitution2: "Single Substitution lookup 27 subtable" ordmasculine
Substitution2: "'aalt' Access All Alternates in Latin lookup 0 subtable" ordmasculine
EndChar

StartChar: Oacute
Encoding: 211 211 76
Width: 751
GlyphClass: 2
Flags: MW
HStem: -16 99<306.5 444 306.5 479> 627 99<306.5 444> 774 134<328 503 391 413>
VStem: 44 112<268.5 439.5 268.5 469> 595 112<268.5 439.5>
AnchorPoint: "Anchor-3" 375 710 basechar 0
AnchorPoint: "Anchor-1" 376 355 basechar 0
AnchorPoint: "Anchor-0" 375 0 basechar 0
LayerCount: 2
Fore
SplineSet
328 774 m 1
 391 908 l 1
 503 908 l 1
 413 774 l 1
 328 774 l 1
375 -16 m 0
 169 -16 44 124 44 354 c 0
 44 584 169 726 375 726 c 0
 583 726 707 584 707 354 c 0
 707 124 583 -16 375 -16 c 0
375 83 m 0
 513 83 595 183 595 354 c 0
 595 525 513 627 375 627 c 0
 238 627 156 525 156 354 c 0
 156 183 238 83 375 83 c 0
EndSplineSet
EndChar

StartChar: Ocircumflex
Encoding: 212 212 77
Width: 751
GlyphClass: 2
Flags: MW
HStem: -16 99<306.5 444 306.5 479> 627 99<306.5 444> 774 139<228 431 228 431 320 441 320 523>
VStem: 44 112<268.5 439.5 268.5 469> 595 112<268.5 439.5>
AnchorPoint: "Anchor-3" 375 710 basechar 0
AnchorPoint: "Anchor-1" 376 355 basechar 0
AnchorPoint: "Anchor-0" 375 0 basechar 0
LayerCount: 2
Fore
SplineSet
228 774 m 1
 320 913 l 1
 431 913 l 1
 523 774 l 1
 441 774 l 1
 375 863 l 1
 309 774 l 1
 228 774 l 1
375 -16 m 0
 169 -16 44 124 44 354 c 0
 44 584 169 726 375 726 c 0
 583 726 707 584 707 354 c 0
 707 124 583 -16 375 -16 c 0
375 83 m 0
 513 83 595 183 595 354 c 0
 595 525 513 627 375 627 c 0
 238 627 156 525 156 354 c 0
 156 183 238 83 375 83 c 0
EndSplineSet
EndChar

StartChar: Odieresis
Encoding: 214 214 78
Width: 751
GlyphClass: 2
Flags: MW
HStem: -16 99<306.5 444 306.5 479> 627 99<306.5 444> 786 106<228 335 228 335 416 522 228 416>
VStem: 44 112<268.5 439.5 268.5 469> 228 107<786 892 786 892> 416 106<786 892 786 892> 595 112<268.5 439.5>
AnchorPoint: "Anchor-3" 375 710 basechar 0
AnchorPoint: "Anchor-1" 376 355 basechar 0
AnchorPoint: "Anchor-0" 375 0 basechar 0
LayerCount: 2
Fore
SplineSet
228 786 m 1
 228 892 l 1
 335 892 l 1
 335 786 l 1
 228 786 l 1
416 786 m 1
 416 892 l 1
 522 892 l 1
 522 786 l 1
 416 786 l 1
375 -16 m 0
 169 -16 44 124 44 354 c 0
 44 584 169 726 375 726 c 0
 583 726 707 584 707 354 c 0
 707 124 583 -16 375 -16 c 0
375 83 m 0
 513 83 595 183 595 354 c 0
 595 525 513 627 375 627 c 0
 238 627 156 525 156 354 c 0
 156 183 238 83 375 83 c 0
EndSplineSet
Substitution2: "'ss08' Style Set 8 in Latin lookup 41 subtable" Odieresis.ss08
Substitution2: "'aalt' Access All Alternates in Latin lookup 0 subtable" Odieresis.ss08
EndChar

StartChar: Ograve
Encoding: 210 210 79
Width: 751
GlyphClass: 2
Flags: MW
HStem: -16 99<306.5 444 306.5 479> 627 99<306.5 444> 779 135<339 339 339 360 249 423>
VStem: 44 112<268.5 439.5 268.5 469> 595 112<268.5 439.5>
AnchorPoint: "Anchor-3" 375 710 basechar 0
AnchorPoint: "Anchor-1" 376 355 basechar 0
AnchorPoint: "Anchor-0" 375 0 basechar 0
LayerCount: 2
Fore
SplineSet
339 779 m 1
 249 914 l 1
 360 914 l 1
 423 779 l 1
 339 779 l 1
375 -16 m 0
 169 -16 44 124 44 354 c 0
 44 584 169 726 375 726 c 0
 583 726 707 584 707 354 c 0
 707 124 583 -16 375 -16 c 0
375 83 m 0
 513 83 595 183 595 354 c 0
 595 525 513 627 375 627 c 0
 238 627 156 525 156 354 c 0
 156 183 238 83 375 83 c 0
EndSplineSet
EndChar

StartChar: Ohungarumlaut
Encoding: 336 336 80
Width: 751
GlyphClass: 2
Flags: MW
HStem: -16 99<306.5 444 306.5 479> 627 99<306.5 444> 774 134<257 432 321 342 404 432 467 488 404 404>
VStem: 44 112<268.5 439.5 268.5 469> 595 112<268.5 439.5>
AnchorPoint: "Anchor-3" 375 710 basechar 0
AnchorPoint: "Anchor-1" 376 355 basechar 0
AnchorPoint: "Anchor-0" 375 0 basechar 0
LayerCount: 2
Fore
SplineSet
257 774 m 1
 321 908 l 1
 432 908 l 1
 342 774 l 1
 257 774 l 1
404 774 m 1
 467 908 l 1
 578 908 l 1
 488 774 l 1
 404 774 l 1
375 -16 m 0
 169 -16 44 124 44 354 c 0
 44 584 169 726 375 726 c 0
 583 726 707 584 707 354 c 0
 707 124 583 -16 375 -16 c 0
375 83 m 0
 513 83 595 183 595 354 c 0
 595 525 513 627 375 627 c 0
 238 627 156 525 156 354 c 0
 156 183 238 83 375 83 c 0
EndSplineSet
EndChar

StartChar: Omacron
Encoding: 332 332 81
Width: 751
GlyphClass: 2
Flags: MW
HStem: -16 99<306.5 444 306.5 479> 627 99<306.5 444> 797 85<236 514 236 514>
VStem: 44 112<268.5 439.5 268.5 469> 236 278<797 882 797 882> 595 112<268.5 439.5>
AnchorPoint: "Anchor-3" 375 710 basechar 0
AnchorPoint: "Anchor-1" 376 355 basechar 0
AnchorPoint: "Anchor-0" 375 0 basechar 0
LayerCount: 2
Fore
SplineSet
236 797 m 1
 236 882 l 1
 514 882 l 1
 514 797 l 1
 236 797 l 1
375 -16 m 0
 169 -16 44 124 44 354 c 0
 44 584 169 726 375 726 c 0
 583 726 707 584 707 354 c 0
 707 124 583 -16 375 -16 c 0
375 83 m 0
 513 83 595 183 595 354 c 0
 595 525 513 627 375 627 c 0
 238 627 156 525 156 354 c 0
 156 183 238 83 375 83 c 0
EndSplineSet
EndChar

StartChar: Oslash
Encoding: 216 216 82
Width: 751
GlyphClass: 2
Flags: MW
HStem: -16 99<352 444 352 479> 627 99<306.5 398>
VStem: 44 112<316 439.5 316 469> 595 112<268.5 392>
AnchorPoint: "Anchor-3" 375 710 basechar 0
AnchorPoint: "Anchor-1" 376 355 basechar 0
AnchorPoint: "Anchor-0" 375 0 basechar 0
LayerCount: 2
Fore
SplineSet
74 -16 m 1
 138 77 l 1
 77 141 44 235 44 354 c 0
 44 584 169 726 375 726 c 0
 444 726 504 710 553 681 c 1
 584 726 l 1
 677 726 l 1
 613 633 l 1
 674 568 707 473 707 354 c 0
 707 124 583 -16 375 -16 c 0
 307 -16 247 0 198 29 c 1
 167 -16 l 1
 74 -16 l 1
156 354 m 0
 156 278 172 216 202 171 c 1
 494 594 l 1
 461 616 421 627 375 627 c 0
 238 627 156 525 156 354 c 0
375 83 m 0
 513 83 595 183 595 354 c 0
 595 430 579 493 548 539 c 1
 257 115 l 1
 290 94 329 83 375 83 c 0
EndSplineSet
EndChar

StartChar: Otilde
Encoding: 213 213 83
Width: 751
GlyphClass: 2
Flags: MW
HStem: -16 99<306.5 444 306.5 479> 627 99<306.5 444> 785 67<429.5 448.5 429.5 464> 837 67<302.5 323>
VStem: 44 112<268.5 439.5 268.5 469> 213 59<778 778> 477 60<913 913> 595 112<268.5 439.5>
AnchorPoint: "Anchor-3" 375 710 basechar 0
AnchorPoint: "Anchor-1" 376 355 basechar 0
AnchorPoint: "Anchor-0" 375 0 basechar 0
LayerCount: 2
Fore
SplineSet
433 785 m 0xeb
 406 785 384 794 361 813 c 0
 341 830 332 837 314 837 c 0
 291 837 275 824 272 778 c 1
 213 778 l 1
 214 859 254 904 313 904 c 0xdd
 345 904 367 893 391 874 c 0
 410 858 422 852 437 852 c 0
 460 852 474 865 477 913 c 1
 537 913 l 1
 534 833 495 785 433 785 c 0xeb
375 -16 m 0
 169 -16 44 124 44 354 c 0
 44 584 169 726 375 726 c 0
 583 726 707 584 707 354 c 0
 707 124 583 -16 375 -16 c 0
375 83 m 0
 513 83 595 183 595 354 c 0
 595 525 513 627 375 627 c 0
 238 627 156 525 156 354 c 0
 156 183 238 83 375 83 c 0
EndSplineSet
EndChar

StartChar: OE
Encoding: 338 338 84
Width: 1099
GlyphClass: 2
Flags: MW
HStem: -16 99<301 424.5> 0 99<713 1045 713 1045> 308 96<713 1025 713 1025> 611 99<713 1037 713 713> 627 99<300.5 424.5 270 448.5>
VStem: 44 112<274.5 432.5 274.5 465.5> 595 118<274.5 308 404 432> 605 108<0 308 90 308>
AnchorPoint: "Anchor-3" 548 710 basechar 0
AnchorPoint: "Anchor-0" 548 0 basechar 0
LayerCount: 2
Fore
SplineSet
374 -16 m 0xb5
 167 -16 44 132 44 354 c 0
 44 577 166 726 374 726 c 0xae
 475 726 553 688 605 620 c 1
 605 710 l 1x75
 1037 710 l 1
 1037 611 l 1
 713 611 l 1
 713 404 l 1
 1025 404 l 1
 1025 308 l 1
 713 308 l 1
 713 99 l 1x76
 1045 99 l 1
 1045 0 l 1
 605 0 l 1x75
 605 90 l 1
 553 23 475 -16 374 -16 c 0xb5
374 83 m 0
 523 83 595 195 595 354 c 0
 595 510 523 627 374 627 c 0
 227 627 156 511 156 354 c 0
 156 195 228 83 374 83 c 0
EndSplineSet
EndChar

StartChar: P
Encoding: 80 80 85
Width: 657
GlyphClass: 2
Flags: MW
HStem: 0 21G<86 86 86 194> 266 98<194 348 348 351 194 348> 611 99<194 348 194 194>
VStem: 86 108<0 266 364 611> 497 112<448 529.5>
AnchorPoint: "Anchor-3" 329 710 basechar 0
AnchorPoint: "Anchor-0" 329 0 basechar 0
LayerCount: 2
Fore
SplineSet
86 0 m 1
 86 710 l 1
 351 710 l 2
 513 710 609 627 609 489 c 0
 609 350 513 266 351 266 c 2
 194 266 l 1
 194 0 l 1
 86 0 l 1
194 364 m 1
 348 364 l 2
 446 364 497 407 497 489 c 0
 497 570 446 611 348 611 c 2
 194 611 l 1
 194 364 l 1
EndSplineSet
EndChar

StartChar: Thorn
Encoding: 222 222 86
Width: 627
GlyphClass: 2
Flags: MW
HStem: 0 21G<86 86 86 194> 150 98<194 322 322 323 194 322> 483 99<194 322 194 323> 690 20G<86 194 194 194>
VStem: 86 108<0 150 0 248 248 483 582 710> 467 112<327 405>
AnchorPoint: "Anchor-3" 314 710 basechar 0
AnchorPoint: "Anchor-0" 314 0 basechar 0
LayerCount: 2
Fore
SplineSet
86 0 m 1
 86 710 l 1
 194 710 l 1
 194 582 l 1
 323 582 l 2
 485 582 579 502 579 366 c 0
 579 229 485 150 323 150 c 2
 194 150 l 1
 194 0 l 1
 86 0 l 1
322 483 m 2
 194 483 l 1
 194 248 l 1
 322 248 l 2
 419 248 467 288 467 366 c 0
 467 444 419 483 322 483 c 2
EndSplineSet
EndChar

StartChar: Q
Encoding: 81 81 87
Width: 745
GlyphClass: 2
Flags: MW
HStem: -16 99<299.5 384.5 299.5 396> 627 99<298.5 445.5>
VStem: 44 112<280.5 428 280.5 458> 589 112<302.5 428>
AnchorPoint: "Anchor-3" 372 710 basechar 0
AnchorPoint: "Anchor-0" 372 0 basechar 0
LayerCount: 2
Fore
SplineSet
554 -67 m 1
 497 7 l 1
 465 -7 420 -16 372 -16 c 0
 166 -16 44 145 44 354 c 0
 44 562 162 726 372 726 c 0
 585 726 701 562 701 354 c 0
 701 223 653 112 567 46 c 1
 657 -67 l 1
 554 -67 l 1
372 83 m 0
 397 83 418 85 433 92 c 1
 332 219 l 1
 435 219 l 1
 503 129 l 1
 559 176 589 251 589 354 c 0
 589 502 519 627 372 627 c 0
 225 627 156 502 156 354 c 0
 156 207 227 83 372 83 c 0
EndSplineSet
EndChar

StartChar: R
Encoding: 82 82 88
Width: 680
GlyphClass: 2
Flags: MW
HStem: 0 21G<86 86 86 194 513 513 513 622> 277 99<194 371 371 382 194 371> 611 99<194 362 194 194>
VStem: 86 108<0 277 376 611> 503 112<455.5 531>
AnchorPoint: "Anchor-3" 340 710 basechar 0
AnchorPoint: "Anchor-0" 353 0 basechar 0
LayerCount: 2
Fore
SplineSet
86 0 m 1
 86 710 l 1
 369 710 l 2
 520 710 615 627 615 496 c 0
 615 413 560 350 494 330 c 1
 559 320 597 280 603 207 c 2
 622 0 l 1
 513 0 l 1
 496 193 l 2
 492 251 460 277 382 277 c 2
 194 277 l 1
 194 0 l 1
 86 0 l 1
194 376 m 1
 371 376 l 2
 452 376 503 418 503 493 c 0
 503 569 453 611 362 611 c 2
 194 611 l 1
 194 376 l 1
EndSplineSet
Substitution2: "'ss04' Style Set 4 in Latin lookup 37 subtable" R.ss04
Substitution2: "'aalt' Access All Alternates in Latin lookup 0 subtable" R.ss04
EndChar

StartChar: Racute
Encoding: 340 340 89
Width: 680
GlyphClass: 2
Flags: MW
HStem: 0 21G<86 86 86 194 513 513 513 622> 277 99<194 371 371 382 194 371> 611 99<194 362 194 194> 774 134<292 467 356 377>
VStem: 86 108<0 277 376 611> 503 112<455.5 531>
AnchorPoint: "Anchor-3" 340 710 basechar 0
AnchorPoint: "Anchor-0" 353 0 basechar 0
LayerCount: 2
Fore
SplineSet
292 774 m 1
 356 908 l 1
 467 908 l 1
 377 774 l 1
 292 774 l 1
86 0 m 1
 86 710 l 1
 369 710 l 2
 520 710 615 627 615 496 c 0
 615 413 560 350 494 330 c 1
 559 320 597 280 603 207 c 2
 622 0 l 1
 513 0 l 1
 496 193 l 2
 492 251 460 277 382 277 c 2
 194 277 l 1
 194 0 l 1
 86 0 l 1
194 376 m 1
 371 376 l 2
 452 376 503 418 503 493 c 0
 503 569 453 611 362 611 c 2
 194 611 l 1
 194 376 l 1
EndSplineSet
Substitution2: "'ss04' Style Set 4 in Latin lookup 37 subtable" Racute.ss04
Substitution2: "'aalt' Access All Alternates in Latin lookup 0 subtable" Racute.ss04
EndChar

StartChar: Rcaron
Encoding: 344 344 90
Width: 680
GlyphClass: 2
Flags: MW
HStem: 0 21G<86 86 86 194 513 513 513 622> 277 99<194 371 371 382 194 371> 611 99<194 362 194 194> 774 139<192 395 192 284>
VStem: 86 108<0 277 376 611> 503 112<455.5 531>
AnchorPoint: "Anchor-3" 340 710 basechar 0
AnchorPoint: "Anchor-0" 353 0 basechar 0
LayerCount: 2
Fore
SplineSet
192 913 m 1
 274 913 l 1
 340 824 l 1
 405 913 l 1
 487 913 l 1
 395 774 l 1
 284 774 l 1
 192 913 l 1
86 0 m 1
 86 710 l 1
 369 710 l 2
 520 710 615 627 615 496 c 0
 615 413 560 350 494 330 c 1
 559 320 597 280 603 207 c 2
 622 0 l 1
 513 0 l 1
 496 193 l 2
 492 251 460 277 382 277 c 2
 194 277 l 1
 194 0 l 1
 86 0 l 1
194 376 m 1
 371 376 l 2
 452 376 503 418 503 493 c 0
 503 569 453 611 362 611 c 2
 194 611 l 1
 194 376 l 1
EndSplineSet
Substitution2: "'ss04' Style Set 4 in Latin lookup 37 subtable" Rcaron.ss04
Substitution2: "'aalt' Access All Alternates in Latin lookup 0 subtable" Rcaron.ss04
EndChar

StartChar: uni0156
Encoding: 342 342 91
Width: 680
GlyphClass: 2
Flags: MW
HStem: -150 98<298 334 298 408> 0 21G<86 86 86 194 513 513 513 622> 277 99<194 371 371 382 194 371> 611 99<194 362 194 194>
VStem: 86 108<0 277 376 611> 298 110<-141 -52 -141 -52 -141 -52> 503 112<455.5 531>
AnchorPoint: "Anchor-3" 340 710 basechar 0
AnchorPoint: "Anchor-0" 353 -244 basechar 0
LayerCount: 2
Fore
SplineSet
86 0 m 1
 86 710 l 1
 369 710 l 2
 520 710 615 627 615 496 c 0
 615 413 560 350 494 330 c 1
 559 320 597 280 603 207 c 2
 622 0 l 1
 513 0 l 1
 496 193 l 2
 492 251 460 277 382 277 c 2
 194 277 l 1
 194 0 l 1
 86 0 l 1
194 376 m 1
 371 376 l 2
 452 376 503 418 503 493 c 0
 503 569 453 611 362 611 c 2
 194 611 l 1
 194 376 l 1
280 -244 m 1
 334 -150 l 1
 298 -150 l 1
 298 -52 l 1
 408 -52 l 1
 408 -141 l 1
 348 -244 l 1
 280 -244 l 1
EndSplineSet
Substitution2: "'ss04' Style Set 4 in Latin lookup 37 subtable" uni0156.ss04
Substitution2: "'aalt' Access All Alternates in Latin lookup 0 subtable" uni0156.ss04
EndChar

StartChar: S
Encoding: 83 83 92
Width: 654
GlyphClass: 2
Flags: MW
HStem: -16 98<291 389.5 291 418.5> 628 98<272 361.5>
VStem: 69 111<493 555 493 581> 489 111<150.5 214>
AnchorPoint: "Anchor-3" 315 710 basechar 0
AnchorPoint: "Anchor-0" 334 0 basechar 0
LayerCount: 2
Fore
SplineSet
342 -16 m 0
 172 -16 66 83 54 229 c 1
 165 236 l 1
 178 137 238 82 344 82 c 0
 435 82 489 117 489 184 c 0
 489 244 458 281 301 319 c 0
 131 360 69 409 69 520 c 0
 69 642 162 726 315 726 c 0
 477 726 570 629 586 495 c 1
 475 489 l 1
 465 571 410 628 313 628 c 0
 231 628 180 586 180 524 c 0
 180 462 215 439 353 406 c 0
 537 363 600 294 600 190 c 0
 600 63 495 -16 342 -16 c 0
EndSplineSet
EndChar

StartChar: Sacute
Encoding: 346 346 93
Width: 654
GlyphClass: 2
Flags: MW
HStem: -16 98<291 389.5 291 418.5> 628 98<272 361.5> 774 134<268 442 331 352>
VStem: 69 111<493 555 493 581> 489 111<150.5 214>
AnchorPoint: "Anchor-3" 315 710 basechar 0
AnchorPoint: "Anchor-0" 334 0 basechar 0
LayerCount: 2
Fore
SplineSet
268 774 m 1
 331 908 l 1
 442 908 l 1
 352 774 l 1
 268 774 l 1
342 -16 m 0
 172 -16 66 83 54 229 c 1
 165 236 l 1
 178 137 238 82 344 82 c 0
 435 82 489 117 489 184 c 0
 489 244 458 281 301 319 c 0
 131 360 69 409 69 520 c 0
 69 642 162 726 315 726 c 0
 477 726 570 629 586 495 c 1
 475 489 l 1
 465 571 410 628 313 628 c 0
 231 628 180 586 180 524 c 0
 180 462 215 439 353 406 c 0
 537 363 600 294 600 190 c 0
 600 63 495 -16 342 -16 c 0
EndSplineSet
EndChar

StartChar: Scaron
Encoding: 352 352 94
Width: 654
GlyphClass: 2
Flags: MW
HStem: -16 98<291 389.5 291 418.5> 628 98<272 361.5> 774 139<168 370 168 260>
VStem: 69 111<493 555 493 581> 489 111<150.5 214>
AnchorPoint: "Anchor-3" 315 710 basechar 0
AnchorPoint: "Anchor-0" 334 0 basechar 0
LayerCount: 2
Fore
SplineSet
168 913 m 1
 249 913 l 1
 315 824 l 1
 381 913 l 1
 462 913 l 1
 370 774 l 1
 260 774 l 1
 168 913 l 1
342 -16 m 0
 172 -16 66 83 54 229 c 1
 165 236 l 1
 178 137 238 82 344 82 c 0
 435 82 489 117 489 184 c 0
 489 244 458 281 301 319 c 0
 131 360 69 409 69 520 c 0
 69 642 162 726 315 726 c 0
 477 726 570 629 586 495 c 1
 475 489 l 1
 465 571 410 628 313 628 c 0
 231 628 180 586 180 524 c 0
 180 462 215 439 353 406 c 0
 537 363 600 294 600 190 c 0
 600 63 495 -16 342 -16 c 0
EndSplineSet
EndChar

StartChar: Scedilla
Encoding: 350 350 95
Width: 654
GlyphClass: 2
Flags: MW
HStem: -224 62<307 339.5 307 359> -81 47<303 347> -81 163<303 333> -13 21G<293 293> 628 98<272 361.5>
VStem: 69 111<493 555 493 581> 375 68<-136 -111.5> 489 111<150.5 214>
AnchorPoint: "Anchor-3" 315 710 basechar 0
AnchorPoint: "Anchor-0" 334 0 basechar 0
LayerCount: 2
Fore
SplineSet
326 -224 m 0xcf
 261 -224 220 -190 205 -144 c 1
 261 -122 l 1
 273 -150 291 -162 323 -162 c 0
 356 -162 375 -148 375 -124 c 0
 375 -99 363 -81 303 -81 c 1xaf
 271 -48 l 1
 293 -13 l 1x9f
 151 4 64 98 54 229 c 1
 165 236 l 1
 178 137 238 82 344 82 c 0xaf
 435 82 489 117 489 184 c 0
 489 244 458 281 301 319 c 0
 131 360 69 409 69 520 c 0
 69 642 162 726 315 726 c 0
 477 726 570 629 586 495 c 1
 475 489 l 1
 465 571 410 628 313 628 c 0
 231 628 180 586 180 524 c 0
 180 462 215 439 353 406 c 0
 537 363 600 294 600 190 c 0
 600 68 503 -10 360 -16 c 1
 347 -34 l 1
 412 -38 443 -75 443 -126 c 0
 443 -187 392 -224 326 -224 c 0xcf
EndSplineSet
Substitution2: "'locl' Localized Forms in Latin lookup 10 subtable" uni0218
Substitution2: "'aalt' Access All Alternates in Latin lookup 0 subtable" uni0218
EndChar

StartChar: Scircumflex
Encoding: 348 348 96
Width: 654
GlyphClass: 2
Flags: MW
HStem: -16 98<291 389.5 291 418.5> 628 98<272 361.5> 774 139<168 370 168 370 260 381 260 462>
VStem: 69 111<493 555 493 581> 489 111<150.5 214>
AnchorPoint: "Anchor-3" 315 710 basechar 0
AnchorPoint: "Anchor-0" 334 0 basechar 0
LayerCount: 2
Fore
SplineSet
168 774 m 1
 260 913 l 1
 370 913 l 1
 462 774 l 1
 381 774 l 1
 315 863 l 1
 249 774 l 1
 168 774 l 1
342 -16 m 0
 172 -16 66 83 54 229 c 1
 165 236 l 1
 178 137 238 82 344 82 c 0
 435 82 489 117 489 184 c 0
 489 244 458 281 301 319 c 0
 131 360 69 409 69 520 c 0
 69 642 162 726 315 726 c 0
 477 726 570 629 586 495 c 1
 475 489 l 1
 465 571 410 628 313 628 c 0
 231 628 180 586 180 524 c 0
 180 462 215 439 353 406 c 0
 537 363 600 294 600 190 c 0
 600 63 495 -16 342 -16 c 0
EndSplineSet
EndChar

StartChar: uni0218
Encoding: 536 536 97
Width: 654
GlyphClass: 2
Flags: MW
HStem: -150 98<279 315 279 389> -16 98<291 389.5 291 418.5> 628 98<272 361.5>
VStem: 69 111<493 555 493 581> 279 110<-141 -52 -141 -52 -141 -52> 489 111<150.5 214>
AnchorPoint: "Anchor-3" 315 710 basechar 0
AnchorPoint: "Anchor-0" 334 -244 basechar 0
LayerCount: 2
Fore
SplineSet
342 -16 m 0
 172 -16 66 83 54 229 c 1
 165 236 l 1
 178 137 238 82 344 82 c 0
 435 82 489 117 489 184 c 0
 489 244 458 281 301 319 c 0
 131 360 69 409 69 520 c 0
 69 642 162 726 315 726 c 0
 477 726 570 629 586 495 c 1
 475 489 l 1
 465 571 410 628 313 628 c 0
 231 628 180 586 180 524 c 0
 180 462 215 439 353 406 c 0
 537 363 600 294 600 190 c 0
 600 63 495 -16 342 -16 c 0
261 -244 m 1
 315 -150 l 1
 279 -150 l 1
 279 -52 l 1
 389 -52 l 1
 389 -141 l 1
 329 -244 l 1
 261 -244 l 1
EndSplineSet
EndChar

StartChar: uni1E9E
Encoding: 7838 7838 98
Width: 708
GlyphClass: 2
Flags: MW
HStem: 0 99<86 391 261 391 261 391> 341 85<279 410> 611 99<269.5 607 306 475>
VStem: 86 108<0 490 0 559> 538 112<182 258.5>
AnchorPoint: "Anchor-3" 354 710 basechar 0
AnchorPoint: "Anchor-0" 354 0 basechar 0
LayerCount: 2
Fore
SplineSet
86 0 m 1
 86 490 l 2
 86 628 167 710 306 710 c 2
 607 710 l 1
 607 605 l 1
 410 426 l 1
 570 415 650 343 650 221 c 0
 650 85 551 0 391 0 c 2
 261 0 l 1
 261 99 l 1
 391 99 l 2
 482 99 538 144 538 220 c 0
 538 297 477 341 380 341 c 2
 279 341 l 1
 279 428 l 1
 475 611 l 1
 306 611 l 2
 233 611 194 569 194 490 c 2
 194 0 l 1
 86 0 l 1
EndSplineSet
EndChar

StartChar: T
Encoding: 84 84 99
Width: 568
GlyphClass: 2
Flags: MW
HStem: 0 21G<230 230 230 338> 611 99<12 230 12 556 338 338 338 556>
VStem: 230 108<0 611 0 611>
AnchorPoint: "Anchor-3" 284 710 basechar 0
AnchorPoint: "Anchor-1" 284 341 basechar 0
AnchorPoint: "Anchor-0" 284 0 basechar 0
LayerCount: 2
Fore
SplineSet
230 0 m 1
 230 611 l 1
 12 611 l 1
 12 710 l 1
 556 710 l 1
 556 611 l 1
 338 611 l 1
 338 0 l 1
 230 0 l 1
EndSplineSet
EndChar

StartChar: Tbar
Encoding: 358 358 100
Width: 568
GlyphClass: 2
Flags: MW
HStem: 0 21G<230 230 230 338> 296 90<97 230 97 230 338 471> 611 99<12 230 12 556 338 338 338 556>
VStem: 230 108<0 296 0 296 386 611>
AnchorPoint: "Anchor-3" 284 710 basechar 0
AnchorPoint: "Anchor-1" 284 341 basechar 0
AnchorPoint: "Anchor-0" 284 0 basechar 0
LayerCount: 2
Fore
SplineSet
230 0 m 1
 230 296 l 1
 97 296 l 1
 97 386 l 1
 230 386 l 1
 230 611 l 1
 12 611 l 1
 12 710 l 1
 556 710 l 1
 556 611 l 1
 338 611 l 1
 338 386 l 1
 471 386 l 1
 471 296 l 1
 338 296 l 1
 338 0 l 1
 230 0 l 1
EndSplineSet
EndChar

StartChar: Tcaron
Encoding: 356 356 101
Width: 568
GlyphClass: 2
Flags: MW
HStem: 0 21G<230 230 230 338> 611 99<12 230 12 556 338 338 338 556> 774 139<136 339 136 228>
VStem: 230 108<0 611 0 611>
AnchorPoint: "Anchor-3" 284 710 basechar 0
AnchorPoint: "Anchor-1" 284 341 basechar 0
AnchorPoint: "Anchor-0" 284 0 basechar 0
LayerCount: 2
Fore
SplineSet
136 913 m 1
 218 913 l 1
 284 824 l 1
 350 913 l 1
 431 913 l 1
 339 774 l 1
 228 774 l 1
 136 913 l 1
230 0 m 1
 230 611 l 1
 12 611 l 1
 12 710 l 1
 556 710 l 1
 556 611 l 1
 338 611 l 1
 338 0 l 1
 230 0 l 1
EndSplineSet
EndChar

StartChar: uni0162
Encoding: 354 354 102
Width: 568
GlyphClass: 2
Flags: MW
HStem: -224 62<256.5 289 256.5 308.5> -81 47<252 296> 0 21G<230 230 230 250 321 321 321 338> 611 99<12 230 12 556 338 338 338 556>
VStem: 230 108<0 611 0 611> 325 67<-136 -111.5>
AnchorPoint: "Anchor-3" 284 710 basechar 0
AnchorPoint: "Anchor-1" 284 341 basechar 0
AnchorPoint: "Anchor-0" 284 0 basechar 0
LayerCount: 2
Fore
SplineSet
230 0 m 1xf8
 230 611 l 1
 12 611 l 1
 12 710 l 1
 556 710 l 1
 556 611 l 1
 338 611 l 1
 338 0 l 1
 321 0 l 1xf8
 296 -34 l 1
 362 -38 392 -75 392 -126 c 0
 392 -187 342 -224 275 -224 c 0
 210 -224 170 -190 154 -144 c 1
 210 -122 l 1
 222 -150 240 -162 273 -162 c 0
 305 -162 325 -148 325 -124 c 0xf4
 325 -99 313 -81 252 -81 c 1
 220 -48 l 1
 250 0 l 1
 230 0 l 1xf8
EndSplineSet
Substitution2: "'locl' Localized Forms in Latin lookup 10 subtable" uni021A
Substitution2: "'aalt' Access All Alternates in Latin lookup 0 subtable" uni021A
EndChar

StartChar: uni021A
Encoding: 538 538 103
Width: 568
GlyphClass: 2
Flags: MW
HStem: -150 98<229 264 229 339> 0 21G<230 230 230 338> 611 99<12 230 12 556 338 338 338 556>
VStem: 229 109<-150 611 -52 611> 230 108<0 611 0 611> 230 109<-141 611>
AnchorPoint: "Anchor-3" 284 710 basechar 0
AnchorPoint: "Anchor-1" 284 341 basechar 0
AnchorPoint: "Anchor-0" 284 -244 basechar 0
LayerCount: 2
Fore
SplineSet
230 0 m 1xe8
 230 611 l 1
 12 611 l 1
 12 710 l 1
 556 710 l 1
 556 611 l 1
 338 611 l 1
 338 0 l 1
 230 0 l 1xe8
210 -244 m 1
 264 -150 l 1
 229 -150 l 1
 229 -52 l 1xf0
 339 -52 l 1
 339 -141 l 1xe4
 278 -244 l 1
 210 -244 l 1
EndSplineSet
EndChar

StartChar: U
Encoding: 85 85 104
Width: 694
GlyphClass: 2
Flags: MW
HStem: -16 99<293.5 400.5 293.5 431.5> 691 20G<71 179 179 179 515 623 623 623>
VStem: 71 108<251 711> 515 108<251 711>
AnchorPoint: "Anchor-3" 347 710 basechar 0
AnchorPoint: "Anchor-2" 460 2 basechar 0
AnchorPoint: "Anchor-0" 347 0 basechar 0
LayerCount: 2
Fore
SplineSet
347 -16 m 0
 177 -16 71 87 71 251 c 2
 71 711 l 1
 179 711 l 1
 179 251 l 2
 179 143 240 83 347 83 c 0
 454 83 515 143 515 251 c 2
 515 711 l 1
 623 711 l 1
 623 251 l 2
 623 87 516 -16 347 -16 c 0
EndSplineSet
EndChar

StartChar: Uacute
Encoding: 218 218 105
Width: 694
GlyphClass: 2
Flags: MW
HStem: -16 99<293.5 400.5 293.5 431.5> 691 20G<71 179 179 179 515 623 623 623> 774 134<300 475 363 385>
VStem: 71 108<251 711> 515 108<251 711>
AnchorPoint: "Anchor-3" 347 710 basechar 0
AnchorPoint: "Anchor-2" 460 2 basechar 0
AnchorPoint: "Anchor-0" 347 0 basechar 0
LayerCount: 2
Fore
SplineSet
300 774 m 1
 363 908 l 1
 475 908 l 1
 385 774 l 1
 300 774 l 1
347 -16 m 0
 177 -16 71 87 71 251 c 2
 71 711 l 1
 179 711 l 1
 179 251 l 2
 179 143 240 83 347 83 c 0
 454 83 515 143 515 251 c 2
 515 711 l 1
 623 711 l 1
 623 251 l 2
 623 87 516 -16 347 -16 c 0
EndSplineSet
EndChar

StartChar: Ubreve
Encoding: 364 364 106
Width: 694
GlyphClass: 2
Flags: MW
HStem: -16 99<293.5 400.5 293.5 431.5> 691 20G<71 179 179 179 515 623 623 623> 777 69<325 369 325 390>
VStem: 71 108<251 711> 515 108<251 711>
AnchorPoint: "Anchor-3" 347 710 basechar 0
AnchorPoint: "Anchor-2" 460 2 basechar 0
AnchorPoint: "Anchor-0" 347 0 basechar 0
LayerCount: 2
Fore
SplineSet
347 777 m 0
 262 777 206 828 202 912 c 1
 269 912 l 1
 275 866 303 846 347 846 c 0
 391 846 419 866 424 912 c 1
 492 912 l 1
 488 828 433 777 347 777 c 0
347 -16 m 0
 177 -16 71 87 71 251 c 2
 71 711 l 1
 179 711 l 1
 179 251 l 2
 179 143 240 83 347 83 c 0
 454 83 515 143 515 251 c 2
 515 711 l 1
 623 711 l 1
 623 251 l 2
 623 87 516 -16 347 -16 c 0
EndSplineSet
EndChar

StartChar: Ucircumflex
Encoding: 219 219 107
Width: 694
GlyphClass: 2
Flags: MW
HStem: -16 99<293.5 400.5 293.5 431.5> 691 20G<71 179 179 179 515 623 623 623> 774 139<200 403 200 403 292 413 292 495>
VStem: 71 108<251 711> 515 108<251 711>
AnchorPoint: "Anchor-3" 347 710 basechar 0
AnchorPoint: "Anchor-2" 460 2 basechar 0
AnchorPoint: "Anchor-0" 347 0 basechar 0
LayerCount: 2
Fore
SplineSet
200 774 m 1
 292 913 l 1
 403 913 l 1
 495 774 l 1
 413 774 l 1
 347 863 l 1
 281 774 l 1
 200 774 l 1
347 -16 m 0
 177 -16 71 87 71 251 c 2
 71 711 l 1
 179 711 l 1
 179 251 l 2
 179 143 240 83 347 83 c 0
 454 83 515 143 515 251 c 2
 515 711 l 1
 623 711 l 1
 623 251 l 2
 623 87 516 -16 347 -16 c 0
EndSplineSet
EndChar

StartChar: Udieresis
Encoding: 220 220 108
Width: 694
GlyphClass: 2
Flags: MW
HStem: -16 99<293.5 400.5 293.5 431.5> 691 20G<71 179 179 179 515 623 623 623> 786 106<200 307 200 307 388 494 200 388>
VStem: 71 108<251 711> 200 107<786 892 786 892> 388 106<786 892 786 892> 515 108<251 711>
AnchorPoint: "Anchor-3" 347 710 basechar 0
AnchorPoint: "Anchor-2" 460 2 basechar 0
AnchorPoint: "Anchor-0" 347 0 basechar 0
LayerCount: 2
Fore
SplineSet
200 786 m 1
 200 892 l 1
 307 892 l 1
 307 786 l 1
 200 786 l 1
388 786 m 1
 388 892 l 1
 494 892 l 1
 494 786 l 1
 388 786 l 1
347 -16 m 0
 177 -16 71 87 71 251 c 2
 71 711 l 1
 179 711 l 1
 179 251 l 2
 179 143 240 83 347 83 c 0
 454 83 515 143 515 251 c 2
 515 711 l 1
 623 711 l 1
 623 251 l 2xf2
 623 87 516 -16 347 -16 c 0
EndSplineSet
Substitution2: "'ss08' Style Set 8 in Latin lookup 41 subtable" Udieresis.ss08
Substitution2: "'aalt' Access All Alternates in Latin lookup 0 subtable" Udieresis.ss08
EndChar

StartChar: Ugrave
Encoding: 217 217 109
Width: 694
GlyphClass: 2
Flags: MW
HStem: -16 99<293.5 400.5 293.5 431.5> 691 20G<71 179 179 179 515 623 623 623> 779 135<311 311 311 332 221 395>
VStem: 71 108<251 711> 515 108<251 711>
AnchorPoint: "Anchor-3" 347 710 basechar 0
AnchorPoint: "Anchor-2" 460 2 basechar 0
AnchorPoint: "Anchor-0" 347 0 basechar 0
LayerCount: 2
Fore
SplineSet
311 779 m 1
 221 914 l 1
 332 914 l 1
 395 779 l 1
 311 779 l 1
347 -16 m 0
 177 -16 71 87 71 251 c 2
 71 711 l 1
 179 711 l 1
 179 251 l 2
 179 143 240 83 347 83 c 0
 454 83 515 143 515 251 c 2
 515 711 l 1
 623 711 l 1
 623 251 l 2
 623 87 516 -16 347 -16 c 0
EndSplineSet
EndChar

StartChar: Uhungarumlaut
Encoding: 368 368 110
Width: 694
GlyphClass: 2
Flags: MW
HStem: -16 99<293.5 400.5 293.5 431.5> 691 20G<71 179 179 179 515 623 623 623> 774 134<229 404 293 314 376 404 439 460 376 376>
VStem: 71 108<251 711> 515 108<251 711>
AnchorPoint: "Anchor-3" 347 710 basechar 0
AnchorPoint: "Anchor-2" 460 2 basechar 0
AnchorPoint: "Anchor-0" 347 0 basechar 0
LayerCount: 2
Fore
SplineSet
229 774 m 1
 293 908 l 1
 404 908 l 1
 314 774 l 1
 229 774 l 1
376 774 m 1
 439 908 l 1
 550 908 l 1
 460 774 l 1
 376 774 l 1
347 -16 m 0
 177 -16 71 87 71 251 c 2
 71 711 l 1
 179 711 l 1
 179 251 l 2
 179 143 240 83 347 83 c 0
 454 83 515 143 515 251 c 2
 515 711 l 1
 623 711 l 1
 623 251 l 2
 623 87 516 -16 347 -16 c 0
EndSplineSet
EndChar

StartChar: Umacron
Encoding: 362 362 111
Width: 694
GlyphClass: 2
Flags: MW
HStem: -16 99<293.5 400.5 293.5 431.5> 691 20G<71 179 179 179 515 623 623 623> 797 85<208 486 208 486>
VStem: 71 108<251 711> 208 278<797 882 797 882> 515 108<251 711>
AnchorPoint: "Anchor-3" 347 710 basechar 0
AnchorPoint: "Anchor-2" 460 2 basechar 0
AnchorPoint: "Anchor-0" 347 0 basechar 0
LayerCount: 2
Fore
SplineSet
208 797 m 1
 208 882 l 1
 486 882 l 1
 486 797 l 1
 208 797 l 1
347 -16 m 0
 177 -16 71 87 71 251 c 2
 71 711 l 1
 179 711 l 1
 179 251 l 2
 179 143 240 83 347 83 c 0
 454 83 515 143 515 251 c 2
 515 711 l 1
 623 711 l 1
 623 251 l 2xf4
 623 87 516 -16 347 -16 c 0
EndSplineSet
EndChar

StartChar: Uogonek
Encoding: 370 370 112
Width: 694
GlyphClass: 2
Flags: MW
HStem: -210 75<416 422> -16 99<293.5 349.5 347 360> 691 20G<71 179 179 179 515 623 623 623>
VStem: 71 108<251 711> 303 93<-117 -115.5> 515 108<251 711>
AnchorPoint: "Anchor-3" 347 710 basechar 0
AnchorPoint: "Anchor-2" 460 2 basechar 0
AnchorPoint: "Anchor-0" 347 0 basechar 0
LayerCount: 2
Fore
SplineSet
347 -16 m 0
 177 -16 71 87 71 251 c 2
 71 711 l 1
 179 711 l 1
 179 251 l 2
 179 143 240 83 347 83 c 0
 454 83 515 143 515 251 c 2
 515 711 l 1
 623 711 l 1
 623 251 l 2
 623 127 562 38 460 2 c 1
 427 -43 l 2
 404 -75 396 -93 396 -109 c 0
 396 -125 408 -135 424 -135 c 0
 442 -135 459 -130 471 -121 c 1
 496 -184 l 1
 480 -199 441 -210 403 -210 c 0
 341 -210 303 -184 303 -135 c 0
 303 -96 332 -54 358 -19 c 2
 360 -16 l 1
 356 -16 352 -16 347 -16 c 0
EndSplineSet
EndChar

StartChar: Uring
Encoding: 366 366 113
Width: 694
GlyphClass: 2
Flags: MW
HStem: -16 99<293.5 400.5 293.5 431.5> 691 20G<71 179 179 179 515 623 623 623> 754 54<335.5 358.5 335.5 374> 889 55<335.5 358.5>
VStem: 71 108<251 711> 252 55<837.5 860.5 837.5 876> 388 55<837.5 860.5> 515 108<251 711>
AnchorPoint: "Anchor-3" 347 710 basechar 0
AnchorPoint: "Anchor-2" 460 2 basechar 0
AnchorPoint: "Anchor-0" 347 0 basechar 0
LayerCount: 2
Fore
SplineSet
347 754 m 0
 293 754 252 795 252 849 c 0
 252 903 293 944 347 944 c 0
 401 944 443 903 443 849 c 0
 443 795 401 754 347 754 c 0
347 808 m 0
 370 808 388 826 388 849 c 0
 388 872 370 889 347 889 c 0
 324 889 307 872 307 849 c 0
 307 826 324 808 347 808 c 0
347 -16 m 0
 177 -16 71 87 71 251 c 2
 71 711 l 1
 179 711 l 1
 179 251 l 2
 179 143 240 83 347 83 c 0
 454 83 515 143 515 251 c 2
 515 711 l 1
 623 711 l 1
 623 251 l 2
 623 87 516 -16 347 -16 c 0
EndSplineSet
EndChar

StartChar: Utilde
Encoding: 360 360 114
Width: 694
GlyphClass: 2
Flags: MW
HStem: -16 99<293.5 400.5 293.5 431.5> 691 20G<71 179 179 179 515 623 623 623> 785 67<401.5 420.5 401.5 436> 837 67<274.5 295>
VStem: 71 108<251 711> 185 59<778 778> 449 60<913 913> 515 108<251 711>
AnchorPoint: "Anchor-3" 347 710 basechar 0
AnchorPoint: "Anchor-2" 460 2 basechar 0
AnchorPoint: "Anchor-0" 347 0 basechar 0
LayerCount: 2
Fore
SplineSet
405 785 m 0xea
 378 785 356 794 333 813 c 0
 313 830 304 837 286 837 c 0
 263 837 247 824 244 778 c 1
 185 778 l 1
 186 859 226 904 285 904 c 0xd5
 317 904 339 893 363 874 c 0
 382 858 394 852 409 852 c 0
 432 852 446 865 449 913 c 1
 509 913 l 1
 506 833 467 785 405 785 c 0xea
347 -16 m 0
 177 -16 71 87 71 251 c 2
 71 711 l 1
 179 711 l 1
 179 251 l 2xd9
 179 143 240 83 347 83 c 0
 454 83 515 143 515 251 c 2
 515 711 l 1
 623 711 l 1
 623 251 l 2
 623 87 516 -16 347 -16 c 0
EndSplineSet
EndChar

StartChar: V
Encoding: 86 86 115
Width: 688
GlyphClass: 2
Flags: MW
HStem: 0 21G<276 276 276 411> 0 120<276 344 344 344 344 411> 690 20G<20 135 135 135 553 668 668 668>
VStem: 20 648<710 710>
AnchorPoint: "Anchor-3" 344 710 basechar 0
AnchorPoint: "Anchor-0" 344 0 basechar 0
LayerCount: 2
Fore
SplineSet
276 0 m 1xb0
 20 710 l 1
 135 710 l 1
 344 120 l 1x70
 553 710 l 1
 668 710 l 1
 411 0 l 1
 276 0 l 1xb0
EndSplineSet
EndChar

StartChar: W
Encoding: 87 87 116
Width: 968
GlyphClass: 2
Flags: MW
HStem: 0 21G<226 226 226 352 616 616 616 742> 0 149<226 291 291 291 291 352> 690 20G<38 153 153 153 429 539 539 539 814 931 931 931>
VStem: 38 893<710 710>
AnchorPoint: "Anchor-3" 484 710 basechar 0
AnchorPoint: "Anchor-0" 484 0 basechar 0
LayerCount: 2
Fore
SplineSet
226 0 m 1xb0
 38 710 l 1
 153 710 l 1
 291 149 l 1
 429 710 l 1
 539 710 l 1
 677 149 l 1x70
 814 710 l 1
 931 710 l 1
 742 0 l 1
 616 0 l 1
 484 518 l 1
 352 0 l 1
 226 0 l 1xb0
EndSplineSet
EndChar

StartChar: Wacute
Encoding: 7810 7810 117
Width: 968
GlyphClass: 2
Flags: MW
HStem: 0 21G<226 226 226 352 616 616 616 742> 0 149<226 291 291 291 291 352> 690 20G<38 153 153 153 429 539 539 539 814 931 931 931> 774 134<436 611 500 521>
VStem: 38 893<710 710>
AnchorPoint: "Anchor-3" 484 710 basechar 0
AnchorPoint: "Anchor-0" 484 0 basechar 0
LayerCount: 2
Fore
SplineSet
436 774 m 1xb8
 500 908 l 1
 611 908 l 1
 521 774 l 1
 436 774 l 1xb8
226 0 m 1
 38 710 l 1
 153 710 l 1
 291 149 l 1
 429 710 l 1
 539 710 l 1
 677 149 l 1x78
 814 710 l 1
 931 710 l 1
 742 0 l 1
 616 0 l 1
 484 518 l 1
 352 0 l 1
 226 0 l 1
EndSplineSet
EndChar

StartChar: Wcircumflex
Encoding: 372 372 118
Width: 968
GlyphClass: 2
Flags: MW
HStem: 0 21G<226 226 226 352 616 616 616 742> 0 149<226 291 291 291 291 352> 690 20G<38 153 153 153 429 539 539 539 814 931 931 931> 774 139<336 539 336 539 428 550 428 631>
VStem: 38 893<710 710>
AnchorPoint: "Anchor-3" 484 710 basechar 0
AnchorPoint: "Anchor-0" 484 0 basechar 0
LayerCount: 2
Fore
SplineSet
336 774 m 1xb8
 428 913 l 1
 539 913 l 1
 631 774 l 1
 550 774 l 1
 484 863 l 1
 418 774 l 1
 336 774 l 1xb8
226 0 m 1
 38 710 l 1
 153 710 l 1
 291 149 l 1
 429 710 l 1
 539 710 l 1
 677 149 l 1x78
 814 710 l 1
 931 710 l 1
 742 0 l 1
 616 0 l 1
 484 518 l 1
 352 0 l 1
 226 0 l 1
EndSplineSet
EndChar

StartChar: Wdieresis
Encoding: 7812 7812 119
Width: 968
GlyphClass: 2
Flags: MW
HStem: 0 21G<226 226 226 352 616 616 616 742> 0 149<226 291 291 291 291 352> 690 20G<38 153 153 153 429 539 539 539 814 931 931 931> 786 106<337 443 337 443 524 631 337 524>
VStem: 337 106<786 892 786 892> 524 107<786 892 786 892>
AnchorPoint: "Anchor-3" 484 710 basechar 0
AnchorPoint: "Anchor-0" 484 0 basechar 0
LayerCount: 2
Fore
SplineSet
337 786 m 1xbc
 337 892 l 1
 443 892 l 1
 443 786 l 1
 337 786 l 1xbc
524 786 m 1
 524 892 l 1
 631 892 l 1
 631 786 l 1
 524 786 l 1
226 0 m 1
 38 710 l 1
 153 710 l 1
 291 149 l 1
 429 710 l 1
 539 710 l 1
 677 149 l 1x7c
 814 710 l 1
 931 710 l 1
 742 0 l 1
 616 0 l 1
 484 518 l 1
 352 0 l 1
 226 0 l 1
EndSplineSet
Substitution2: "'ss08' Style Set 8 in Latin lookup 41 subtable" Wdieresis.ss08
Substitution2: "'aalt' Access All Alternates in Latin lookup 0 subtable" Wdieresis.ss08
EndChar

StartChar: Wgrave
Encoding: 7808 7808 120
Width: 968
GlyphClass: 2
Flags: MW
HStem: 0 21G<226 226 226 352 616 616 616 742> 0 149<226 291 291 291 291 352> 690 20G<38 153 153 153 429 539 539 539 814 931 931 931> 779 135<447 447 447 468 357 532>
VStem: 38 893<710 710>
AnchorPoint: "Anchor-3" 484 710 basechar 0
AnchorPoint: "Anchor-0" 484 0 basechar 0
LayerCount: 2
Fore
SplineSet
447 779 m 1xb8
 357 914 l 1
 468 914 l 1
 532 779 l 1
 447 779 l 1xb8
226 0 m 1
 38 710 l 1
 153 710 l 1
 291 149 l 1
 429 710 l 1
 539 710 l 1
 677 149 l 1x78
 814 710 l 1
 931 710 l 1
 742 0 l 1
 616 0 l 1
 484 518 l 1
 352 0 l 1
 226 0 l 1
EndSplineSet
EndChar

StartChar: X
Encoding: 88 88 121
Width: 633
GlyphClass: 2
Flags: MW
HStem: 0 21G<14 14 14 140 492 492 492 619> 690 20G<16 143 143 143 490 616 616 616>
VStem: 14 605<0 0>
AnchorPoint: "Anchor-3" 317 710 basechar 0
AnchorPoint: "Anchor-0" 317 0 basechar 0
LayerCount: 2
Fore
SplineSet
14 0 m 1
 250 356 l 1
 16 710 l 1
 143 710 l 1
 318 440 l 1
 490 710 l 1
 616 710 l 1
 382 358 l 1
 619 0 l 1
 492 0 l 1
 316 274 l 1
 140 0 l 1
 14 0 l 1
EndSplineSet
EndChar

StartChar: Y
Encoding: 89 89 122
Width: 594
GlyphClass: 2
Flags: MW
HStem: 0 21G<243 243 243 351> 690 20G<-6 118 118 118 477 601 601 601>
VStem: 243 108<0 285 0 285>
AnchorPoint: "Anchor-3" 297 710 basechar 0
AnchorPoint: "Anchor-0" 297 0 basechar 0
LayerCount: 2
Fore
SplineSet
243 0 m 1
 243 285 l 1
 -6 710 l 1
 118 710 l 1
 297 393 l 1
 477 710 l 1
 601 710 l 1
 351 285 l 1
 351 0 l 1
 243 0 l 1
EndSplineSet
EndChar

StartChar: Yacute
Encoding: 221 221 123
Width: 594
GlyphClass: 2
Flags: MW
HStem: 0 21G<243 243 243 351> 690 20G<-6 118 118 118 477 601 601 601> 774 134<250 425 314 335>
VStem: 243 108<0 285 0 285>
AnchorPoint: "Anchor-3" 297 710 basechar 0
AnchorPoint: "Anchor-0" 297 0 basechar 0
LayerCount: 2
Fore
SplineSet
250 774 m 1
 314 908 l 1
 425 908 l 1
 335 774 l 1
 250 774 l 1
243 0 m 1
 243 285 l 1
 -6 710 l 1
 118 710 l 1
 297 393 l 1
 477 710 l 1
 601 710 l 1
 351 285 l 1
 351 0 l 1
 243 0 l 1
EndSplineSet
EndChar

StartChar: Ycircumflex
Encoding: 374 374 124
Width: 594
GlyphClass: 2
Flags: MW
HStem: 0 21G<243 243 243 351> 690 20G<-6 118 118 118 477 601 601 601> 774 139<150 353 150 353 242 363 242 445>
VStem: 243 108<0 285 0 285>
AnchorPoint: "Anchor-3" 297 710 basechar 0
AnchorPoint: "Anchor-0" 297 0 basechar 0
LayerCount: 2
Fore
SplineSet
150 774 m 1
 242 913 l 1
 353 913 l 1
 445 774 l 1
 363 774 l 1
 297 863 l 1
 232 774 l 1
 150 774 l 1
243 0 m 1
 243 285 l 1
 -6 710 l 1
 118 710 l 1
 297 393 l 1
 477 710 l 1
 601 710 l 1
 351 285 l 1
 351 0 l 1
 243 0 l 1
EndSplineSet
EndChar

StartChar: Ydieresis
Encoding: 376 376 125
Width: 594
GlyphClass: 2
Flags: MW
HStem: 0 21G<243 243 243 351> 690 20G<-6 118 118 118 477 601 601 601> 786 106<150 257 150 257 338 444 150 338>
VStem: 150 107<786 892 786 892> 243 108<0 285 0 285> 338 106<786 892 786 892>
AnchorPoint: "Anchor-3" 297 710 basechar 0
AnchorPoint: "Anchor-0" 297 0 basechar 0
LayerCount: 2
Fore
SplineSet
150 786 m 1xf4
 150 892 l 1
 257 892 l 1
 257 786 l 1
 150 786 l 1xf4
338 786 m 1
 338 892 l 1
 444 892 l 1
 444 786 l 1
 338 786 l 1
243 0 m 1xe8
 243 285 l 1
 -6 710 l 1
 118 710 l 1
 297 393 l 1
 477 710 l 1
 601 710 l 1
 351 285 l 1
 351 0 l 1
 243 0 l 1xe8
EndSplineSet
Substitution2: "'ss08' Style Set 8 in Latin lookup 41 subtable" Ydieresis.ss08
Substitution2: "'aalt' Access All Alternates in Latin lookup 0 subtable" Ydieresis.ss08
EndChar

StartChar: Ygrave
Encoding: 7922 7922 126
Width: 594
GlyphClass: 2
Flags: MW
HStem: 0 21G<243 243 243 351> 690 20G<-6 118 118 118 477 601 601 601> 779 135<261 261 261 282 171 346>
VStem: 243 108<0 285 0 285>
AnchorPoint: "Anchor-3" 297 710 basechar 0
AnchorPoint: "Anchor-0" 297 0 basechar 0
LayerCount: 2
Fore
SplineSet
261 779 m 1
 171 914 l 1
 282 914 l 1
 346 779 l 1
 261 779 l 1
243 0 m 1
 243 285 l 1
 -6 710 l 1
 118 710 l 1
 297 393 l 1
 477 710 l 1
 601 710 l 1
 351 285 l 1
 351 0 l 1
 243 0 l 1
EndSplineSet
EndChar

StartChar: uni1EF8
Encoding: 7928 7928 127
Width: 594
GlyphClass: 2
Flags: MW
HStem: 0 21G<243 243 243 351> 690 20G<-6 118 118 118 477 601 601 601> 785 67<351.5 370.5 351.5 386.5> 837 67<224.5 245>
VStem: 135 59<778 778> 243 108<0 285 0 285> 399 60<913 913>
AnchorPoint: "Anchor-3" 297 710 basechar 0
AnchorPoint: "Anchor-0" 297 0 basechar 0
LayerCount: 2
Fore
SplineSet
355 785 m 0xe6
 328 785 307 794 283 813 c 0
 263 830 254 837 236 837 c 0
 213 837 197 824 194 778 c 1
 135 778 l 1
 136 859 176 904 235 904 c 0xdc
 267 904 289 893 313 874 c 0
 332 858 344 852 359 852 c 0
 382 852 396 865 399 913 c 1
 459 913 l 1
 456 833 418 785 355 785 c 0xe6
243 0 m 1
 243 285 l 1
 -6 710 l 1
 118 710 l 1
 297 393 l 1
 477 710 l 1
 601 710 l 1
 351 285 l 1
 351 0 l 1
 243 0 l 1
EndSplineSet
EndChar

StartChar: Z
Encoding: 90 90 128
Width: 561
GlyphClass: 2
Flags: MW
HStem: 0 99<154 533 154 533> 611 99<42 394 42 522>
VStem: 28 505<0 99 0 100 0 100>
AnchorPoint: "Anchor-3" 289 710 basechar 0
AnchorPoint: "Anchor-0" 289 0 basechar 0
LayerCount: 2
Fore
SplineSet
28 0 m 1
 28 100 l 1
 394 611 l 1
 42 611 l 1
 42 710 l 1
 522 710 l 1
 522 610 l 1
 154 99 l 1
 533 99 l 1
 533 0 l 1
 28 0 l 1
EndSplineSet
EndChar

StartChar: Zacute
Encoding: 377 377 129
Width: 561
GlyphClass: 2
Flags: MW
HStem: 0 99<154 533 154 533> 611 99<42 394 42 522> 774 134<241 416 305 326>
VStem: 28 505<0 99 0 100 0 100>
AnchorPoint: "Anchor-3" 289 710 basechar 0
AnchorPoint: "Anchor-0" 289 0 basechar 0
LayerCount: 2
Fore
SplineSet
241 774 m 1
 305 908 l 1
 416 908 l 1
 326 774 l 1
 241 774 l 1
28 0 m 1
 28 100 l 1
 394 611 l 1
 42 611 l 1
 42 710 l 1
 522 710 l 1
 522 610 l 1
 154 99 l 1
 533 99 l 1
 533 0 l 1
 28 0 l 1
EndSplineSet
EndChar

StartChar: Zcaron
Encoding: 381 381 130
Width: 561
GlyphClass: 2
Flags: MW
HStem: 0 99<154 533 154 533> 611 99<42 394 42 522> 774 139<141 344 141 233>
VStem: 28 505<0 99 0 100 0 100>
AnchorPoint: "Anchor-3" 289 710 basechar 0
AnchorPoint: "Anchor-0" 289 0 basechar 0
LayerCount: 2
Fore
SplineSet
141 913 m 1
 223 913 l 1
 289 824 l 1
 354 913 l 1
 436 913 l 1
 344 774 l 1
 233 774 l 1
 141 913 l 1
28 0 m 1
 28 100 l 1
 394 611 l 1
 42 611 l 1
 42 710 l 1
 522 710 l 1
 522 610 l 1
 154 99 l 1
 533 99 l 1
 533 0 l 1
 28 0 l 1
EndSplineSet
EndChar

StartChar: Zdotaccent
Encoding: 379 379 131
Width: 561
GlyphClass: 2
Flags: MW
HStem: 0 99<154 533 154 533> 611 99<42 394 42 522> 787 106<233 344 233 344>
VStem: 233 111<787 893 787 893>
AnchorPoint: "Anchor-3" 289 710 basechar 0
AnchorPoint: "Anchor-0" 289 0 basechar 0
LayerCount: 2
Fore
SplineSet
233 787 m 1
 233 893 l 1
 344 893 l 1
 344 787 l 1
 233 787 l 1
28 0 m 1
 28 100 l 1
 394 611 l 1
 42 611 l 1
 42 710 l 1
 522 710 l 1
 522 610 l 1
 154 99 l 1
 533 99 l 1
 533 0 l 1
 28 0 l 1
EndSplineSet
Substitution2: "'ss08' Style Set 8 in Latin lookup 41 subtable" Zdotaccent.ss08
Substitution2: "'aalt' Access All Alternates in Latin lookup 0 subtable" Zdotaccent.ss08
EndChar

StartChar: uniA78B
Encoding: 42891 42891 132
Width: 193
GlyphClass: 1
Flags: MW
HStem: 690 20G<44 149 149 149>
VStem: 44 105<583 710 583 710>
LayerCount: 2
Fore
SplineSet
56 343 m 1
 44 583 l 1
 44 710 l 1
 149 710 l 1
 149 583 l 1
 136 343 l 1
 56 343 l 1
EndSplineSet
EndChar

StartChar: uni013B.loclMAH
Encoding: 65538 -1 133
Width: 583
GlyphClass: 2
Flags: MW
HStem: -150 98<258 294 258 368> 0 99<194 540 194 540> 690 20G<86 194 194 194>
VStem: 86 108<99 710 99 710 99 710> 258 110<-141 -52 -141 -52 -141 -52>
AnchorPoint: "Anchor-4" 374 532 basechar 0
AnchorPoint: "Anchor-3" 140 710 basechar 0
AnchorPoint: "Anchor-1" 177 380 basechar 0
AnchorPoint: "Anchor-0" 313 -244 basechar 0
LayerCount: 2
Fore
SplineSet
86 0 m 1
 86 710 l 1
 194 710 l 1
 194 99 l 1
 540 99 l 1
 540 0 l 1
 86 0 l 1
240 -244 m 1
 294 -150 l 1
 258 -150 l 1
 258 -52 l 1
 368 -52 l 1
 368 -141 l 1
 308 -244 l 1
 240 -244 l 1
EndSplineSet
EndChar

StartChar: uni0145.loclMAH
Encoding: 65539 -1 134
Width: 745
GlyphClass: 2
Flags: MW
HStem: -150 98<315 351 315 425> 0 21G<86 86 86 194 517 517 517 659> 0 131<517 551 551 551 551 659> 566 144<194 194> 690 20G<86 223 223 223 551 659 659 659>
VStem: 86 108<0 566 0 710> 315 110<-141 -52 -141 -52 -141 -52> 551 108<131 710 0 710>
AnchorPoint: "Anchor-3" 384 710 basechar 0
AnchorPoint: "Anchor-0" 370 -244 basechar 0
LayerCount: 2
Fore
SplineSet
86 0 m 1xd7
 86 710 l 1
 223 710 l 1
 551 131 l 1xaf
 551 710 l 1
 659 710 l 1
 659 0 l 1
 517 0 l 1
 194 566 l 1
 194 0 l 1
 86 0 l 1xd7
297 -244 m 1
 351 -150 l 1
 315 -150 l 1
 315 -52 l 1
 425 -52 l 1
 425 -141 l 1
 365 -244 l 1
 297 -244 l 1
EndSplineSet
EndChar

StartChar: R.ss04
Encoding: 65540 -1 135
Width: 688
GlyphClass: 2
Flags: MW
HStem: 0 21G<86 86 86 194 512 512 512 630> 278 98<194 348 348 357 194 348> 611 99<194 348 194 194>
VStem: 86 108<0 278 376 611> 497 112<455 531>
AnchorPoint: "Anchor-3" 335 710 basechar 0
AnchorPoint: "Anchor-0" 335 0 basechar 0
LayerCount: 2
Fore
SplineSet
86 0 m 1
 86 710 l 1
 351 710 l 2
 514 710 609 629 609 492 c 0
 609 395 558 323 464 295 c 1
 630 0 l 1
 512 0 l 1
 357 278 l 1
 194 278 l 1
 194 0 l 1
 86 0 l 1
194 376 m 1
 348 376 l 2
 443 376 497 417 497 493 c 0
 497 569 443 611 348 611 c 2
 194 611 l 1
 194 376 l 1
EndSplineSet
EndChar

StartChar: Racute.ss04
Encoding: 65541 -1 136
Width: 688
GlyphClass: 2
Flags: MW
HStem: 0 21G<86 86 86 194 512 512 512 630> 278 98<194 348 348 357 194 348> 611 99<194 348 194 194> 774 134<288 463 352 373>
VStem: 86 108<0 278 376 611> 497 112<455 531>
AnchorPoint: "Anchor-3" 335 710 basechar 0
AnchorPoint: "Anchor-0" 335 0 basechar 0
LayerCount: 2
Fore
SplineSet
288 774 m 1
 352 908 l 1
 463 908 l 1
 373 774 l 1
 288 774 l 1
86 0 m 1
 86 710 l 1
 351 710 l 2
 514 710 609 629 609 492 c 0
 609 395 558 323 464 295 c 1
 630 0 l 1
 512 0 l 1
 357 278 l 1
 194 278 l 1
 194 0 l 1
 86 0 l 1
194 376 m 1
 348 376 l 2
 443 376 497 417 497 493 c 0
 497 569 443 611 348 611 c 2
 194 611 l 1
 194 376 l 1
EndSplineSet
EndChar

StartChar: Rcaron.ss04
Encoding: 65542 -1 137
Width: 688
GlyphClass: 2
Flags: MW
HStem: 0 21G<86 86 86 194 512 512 512 630> 278 98<194 348 348 357 194 348> 611 99<194 348 194 194> 774 139<188 391 188 280>
VStem: 86 108<0 278 376 611> 497 112<455 531>
AnchorPoint: "Anchor-3" 335 710 basechar 0
AnchorPoint: "Anchor-0" 335 0 basechar 0
LayerCount: 2
Fore
SplineSet
188 913 m 1
 270 913 l 1
 335 824 l 1
 401 913 l 1
 483 913 l 1
 391 774 l 1
 280 774 l 1
 188 913 l 1
86 0 m 1
 86 710 l 1
 351 710 l 2
 514 710 609 629 609 492 c 0
 609 395 558 323 464 295 c 1
 630 0 l 1
 512 0 l 1
 357 278 l 1
 194 278 l 1
 194 0 l 1
 86 0 l 1
194 376 m 1
 348 376 l 2
 443 376 497 417 497 493 c 0
 497 569 443 611 348 611 c 2
 194 611 l 1
 194 376 l 1
EndSplineSet
EndChar

StartChar: uni0156.ss04
Encoding: 65543 -1 138
Width: 688
GlyphClass: 2
Flags: MW
HStem: -150 98<280 316 280 390> 0 21G<86 86 86 194 512 512 512 630> 278 98<194 348 348 357 194 348> 611 99<194 348 194 194>
VStem: 86 108<0 278 376 611> 280 110<-141 -52 -141 -52 -141 -52> 497 112<455 531>
AnchorPoint: "Anchor-3" 335 710 basechar 0
AnchorPoint: "Anchor-0" 335 -244 basechar 0
LayerCount: 2
Fore
SplineSet
86 0 m 1
 86 710 l 1
 351 710 l 2
 514 710 609 629 609 492 c 0
 609 395 558 323 464 295 c 1
 630 0 l 1
 512 0 l 1
 357 278 l 1
 194 278 l 1
 194 0 l 1
 86 0 l 1
194 376 m 1
 348 376 l 2
 443 376 497 417 497 493 c 0
 497 569 443 611 348 611 c 2
 194 611 l 1
 194 376 l 1
262 -244 m 1
 316 -150 l 1
 280 -150 l 1
 280 -52 l 1
 390 -52 l 1
 390 -141 l 1
 330 -244 l 1
 262 -244 l 1
EndSplineSet
EndChar

StartChar: I.ss05
Encoding: 65544 -1 139
Width: 441
GlyphClass: 2
Flags: MW
HStem: 0 99<44 167 44 167 275 397> 611 99<50 167 50 391 275 275 275 391>
VStem: 167 108<99 611 99 611>
AnchorPoint: "Anchor-3" 221 710 basechar 0
AnchorPoint: "Anchor-2" 397 0 basechar 0
AnchorPoint: "Anchor-0" 221 0 basechar 0
LayerCount: 2
Fore
SplineSet
44 0 m 1
 44 99 l 1
 167 99 l 1
 167 611 l 1
 50 611 l 1
 50 710 l 1
 391 710 l 1
 391 611 l 1
 275 611 l 1
 275 99 l 1
 397 99 l 1
 397 0 l 1
 44 0 l 1
EndSplineSet
EndChar

StartChar: Iacute.ss05
Encoding: 65545 -1 140
Width: 441
GlyphClass: 2
Flags: MW
HStem: 0 99<44 167 44 167 275 397> 611 99<50 167 50 391 275 275 275 391> 774 134<173 348 237 258>
VStem: 167 108<99 611 99 611>
AnchorPoint: "Anchor-3" 221 710 basechar 0
AnchorPoint: "Anchor-2" 397 0 basechar 0
AnchorPoint: "Anchor-0" 221 0 basechar 0
LayerCount: 2
Fore
SplineSet
173 774 m 1
 237 908 l 1
 348 908 l 1
 258 774 l 1
 173 774 l 1
44 0 m 1
 44 99 l 1
 167 99 l 1
 167 611 l 1
 50 611 l 1
 50 710 l 1
 391 710 l 1
 391 611 l 1
 275 611 l 1
 275 99 l 1
 397 99 l 1
 397 0 l 1
 44 0 l 1
EndSplineSet
EndChar

StartChar: Icircumflex.ss05
Encoding: 65546 -1 141
Width: 441
GlyphClass: 2
Flags: MW
HStem: 0 99<44 167 44 167 275 397> 611 99<50 167 50 391 275 275 275 391> 774 139<73 276 73 276 165 286 165 368>
VStem: 167 108<99 611 99 611>
AnchorPoint: "Anchor-3" 221 710 basechar 0
AnchorPoint: "Anchor-2" 397 0 basechar 0
AnchorPoint: "Anchor-0" 221 0 basechar 0
LayerCount: 2
Fore
SplineSet
73 774 m 1
 165 913 l 1
 276 913 l 1
 368 774 l 1
 286 774 l 1
 221 863 l 1
 155 774 l 1
 73 774 l 1
44 0 m 1
 44 99 l 1
 167 99 l 1
 167 611 l 1
 50 611 l 1
 50 710 l 1
 391 710 l 1
 391 611 l 1
 275 611 l 1
 275 99 l 1
 397 99 l 1
 397 0 l 1
 44 0 l 1
EndSplineSet
EndChar

StartChar: Idieresis.ss05
Encoding: 65547 -1 142
Width: 441
GlyphClass: 2
Flags: MW
HStem: 0 99<44 167 44 167 275 397> 611 99<50 167 50 391 275 275 275 391> 786 106<74 180 74 180 261 368 74 261>
VStem: 74 106<786 892 786 892> 167 108<99 611 99 611> 261 107<786 892 786 892>
AnchorPoint: "Anchor-3" 221 710 basechar 0
AnchorPoint: "Anchor-2" 397 0 basechar 0
AnchorPoint: "Anchor-0" 221 0 basechar 0
LayerCount: 2
Fore
SplineSet
74 786 m 1xf4
 74 892 l 1
 180 892 l 1
 180 786 l 1
 74 786 l 1xf4
261 786 m 1
 261 892 l 1
 368 892 l 1
 368 786 l 1
 261 786 l 1
44 0 m 1
 44 99 l 1
 167 99 l 1
 167 611 l 1
 50 611 l 1
 50 710 l 1
 391 710 l 1
 391 611 l 1
 275 611 l 1
 275 99 l 1xe8
 397 99 l 1
 397 0 l 1
 44 0 l 1
EndSplineSet
Substitution2: "'ss08' Style Set 8 in Latin lookup 41 subtable" Idieresis.ss05.ss08
Substitution2: "'aalt' Access All Alternates in Latin lookup 0 subtable" Idieresis.ss05.ss08
EndChar

StartChar: Idotaccent.ss05
Encoding: 65548 -1 143
Width: 441
GlyphClass: 2
Flags: MW
HStem: 0 99<44 167 44 167 275 397> 611 99<50 167 50 391 275 275 275 391> 787 106<165 276 165 276>
VStem: 165 111<787 893 787 893> 167 108<99 611 99 611>
AnchorPoint: "Anchor-3" 221 710 basechar 0
AnchorPoint: "Anchor-2" 397 0 basechar 0
AnchorPoint: "Anchor-0" 221 0 basechar 0
LayerCount: 2
Fore
SplineSet
165 787 m 1xf0
 165 893 l 1
 276 893 l 1
 276 787 l 1
 165 787 l 1xf0
44 0 m 1
 44 99 l 1
 167 99 l 1
 167 611 l 1
 50 611 l 1
 50 710 l 1
 391 710 l 1
 391 611 l 1
 275 611 l 1
 275 99 l 1xe8
 397 99 l 1
 397 0 l 1
 44 0 l 1
EndSplineSet
Substitution2: "'ss08' Style Set 8 in Latin lookup 41 subtable" Idotaccent.ss05.ss08
Substitution2: "'aalt' Access All Alternates in Latin lookup 0 subtable" Idotaccent.ss05.ss08
EndChar

StartChar: Igrave.ss05
Encoding: 65549 -1 144
Width: 441
GlyphClass: 2
Flags: MW
HStem: 0 99<44 167 44 167 275 397> 611 99<50 167 50 391 275 275 275 391> 779 135<184 184 184 205 94 269>
VStem: 167 108<99 611 99 611>
AnchorPoint: "Anchor-3" 221 710 basechar 0
AnchorPoint: "Anchor-2" 397 0 basechar 0
AnchorPoint: "Anchor-0" 221 0 basechar 0
LayerCount: 2
Fore
SplineSet
184 779 m 1
 94 914 l 1
 205 914 l 1
 269 779 l 1
 184 779 l 1
44 0 m 1
 44 99 l 1
 167 99 l 1
 167 611 l 1
 50 611 l 1
 50 710 l 1
 391 710 l 1
 391 611 l 1
 275 611 l 1
 275 99 l 1
 397 99 l 1
 397 0 l 1
 44 0 l 1
EndSplineSet
EndChar

StartChar: Imacron.ss05
Encoding: 65550 -1 145
Width: 441
GlyphClass: 2
Flags: MW
HStem: 0 99<44 167 44 167 275 397> 611 99<50 167 50 391 275 275 275 391> 797 85<81 360 81 360>
VStem: 81 279<797 882 797 882> 167 108<99 611 99 611>
AnchorPoint: "Anchor-3" 221 710 basechar 0
AnchorPoint: "Anchor-2" 397 0 basechar 0
AnchorPoint: "Anchor-0" 221 0 basechar 0
LayerCount: 2
Fore
SplineSet
81 797 m 1xf0
 81 882 l 1
 360 882 l 1
 360 797 l 1
 81 797 l 1xf0
44 0 m 1
 44 99 l 1
 167 99 l 1
 167 611 l 1
 50 611 l 1
 50 710 l 1
 391 710 l 1
 391 611 l 1
 275 611 l 1
 275 99 l 1xe8
 397 99 l 1
 397 0 l 1
 44 0 l 1
EndSplineSet
EndChar

StartChar: Iogonek.ss05
Encoding: 65551 -1 146
Width: 441
GlyphClass: 2
Flags: MW
HStem: -212 75<353 359> 0 99<44 167 44 167 275 311> 611 99<50 167 50 391 275 275 275 391>
VStem: 167 108<99 611 99 611> 240 93<-120 -117.5>
AnchorPoint: "Anchor-3" 221 710 basechar 0
AnchorPoint: "Anchor-2" 397 0 basechar 0
AnchorPoint: "Anchor-0" 221 0 basechar 0
LayerCount: 2
Fore
SplineSet
44 0 m 1xe8
 44 99 l 1
 167 99 l 1
 167 611 l 1
 50 611 l 1
 50 710 l 1
 391 710 l 1
 391 611 l 1
 275 611 l 1
 275 99 l 1x70
 397 99 l 1
 397 0 l 1
 364 -45 l 2
 341 -77 333 -95 333 -112 c 0
 333 -128 345 -137 361 -137 c 0
 379 -137 396 -132 408 -124 c 1
 433 -186 l 1
 417 -201 378 -212 340 -212 c 0
 278 -212 240 -186 240 -137 c 0
 240 -98 269 -57 295 -21 c 2
 311 0 l 1
 44 0 l 1xe8
EndSplineSet
EndChar

StartChar: Itilde.ss05
Encoding: 65552 -1 147
Width: 441
GlyphClass: 2
Flags: MW
HStem: 0 99<44 167 44 167 275 397> 611 99<50 167 50 391 275 275 275 391> 785 67<274.5 294 274.5 310> 837 67<148 168>
VStem: 50 68 58 60<778 778> 167 108<99 611 99 611> 323 59<913 913>
AnchorPoint: "Anchor-3" 221 710 basechar 0
AnchorPoint: "Anchor-2" 397 0 basechar 0
AnchorPoint: "Anchor-0" 221 0 basechar 0
LayerCount: 2
Fore
SplineSet
279 785 m 0xe3
 251 785 230 794 207 813 c 0
 186 830 177 837 159 837 c 0
 137 837 120 824 118 778 c 1
 58 778 l 1
 60 859 99 904 158 904 c 0xd6
 190 904 212 893 236 874 c 0
 255 858 267 852 282 852 c 0
 306 852 319 865 323 913 c 1
 382 913 l 1
 379 833 341 785 279 785 c 0xe3
44 0 m 1
 44 99 l 1
 167 99 l 1
 167 611 l 1
 50 611 l 1
 50 710 l 1xca
 391 710 l 1
 391 611 l 1
 275 611 l 1
 275 99 l 1
 397 99 l 1
 397 0 l 1
 44 0 l 1
EndSplineSet
EndChar

StartChar: G.ss06
Encoding: 65553 -1 148
Width: 703
GlyphClass: 2
Flags: MW
HStem: -16 99<294.5 428.5 294.5 462> 271 91<371 561 371 664> 627 99<295 427>
VStem: 44 112<276 428.5 276 458> 561 103<271 271>
AnchorPoint: "Anchor-3" 370 710 basechar 0
AnchorPoint: "Anchor-0" 373 0 basechar 0
LayerCount: 2
Fore
SplineSet
368 -16 m 0
 156 -16 44 146 44 354 c 0
 44 562 162 726 372 726 c 0
 537 726 634 632 662 487 c 1
 549 481 l 1
 533 565 483 627 371 627 c 0
 219 627 156 503 156 354 c 0
 156 198 222 83 367 83 c 0
 490 83 556 164 561 271 c 1
 371 271 l 1
 371 362 l 1
 664 362 l 1
 664 319 l 2
 664 105 556 -16 368 -16 c 0
EndSplineSet
EndChar

StartChar: Gbreve.ss06
Encoding: 65554 -1 149
Width: 703
GlyphClass: 2
Flags: MW
HStem: -16 99<294.5 428.5 294.5 462> 271 91<371 561 371 664> 627 99<295 427> 777 69<348 392 348 413>
VStem: 44 112<276 428.5 276 458> 561 103<271 271>
AnchorPoint: "Anchor-3" 370 710 basechar 0
AnchorPoint: "Anchor-0" 373 0 basechar 0
LayerCount: 2
Fore
SplineSet
370 777 m 0
 285 777 229 828 225 912 c 1
 292 912 l 1
 298 866 326 846 370 846 c 0
 414 846 442 866 448 912 c 1
 515 912 l 1
 511 828 456 777 370 777 c 0
368 -16 m 0
 156 -16 44 146 44 354 c 0
 44 562 162 726 372 726 c 0
 537 726 634 632 662 487 c 1
 549 481 l 1
 533 565 483 627 371 627 c 0
 219 627 156 503 156 354 c 0
 156 198 222 83 367 83 c 0
 490 83 556 164 561 271 c 1
 371 271 l 1
 371 362 l 1
 664 362 l 1
 664 319 l 2
 664 105 556 -16 368 -16 c 0
EndSplineSet
EndChar

StartChar: Gcircumflex.ss06
Encoding: 65555 -1 150
Width: 703
GlyphClass: 2
Flags: MW
HStem: -16 99<294.5 428.5 294.5 462> 271 91<371 561 371 664> 627 99<295 427> 774 139<223 426 223 426 315 436 315 518>
VStem: 44 112<276 428.5 276 458> 561 103<271 271>
AnchorPoint: "Anchor-3" 370 710 basechar 0
AnchorPoint: "Anchor-0" 373 0 basechar 0
LayerCount: 2
Fore
SplineSet
223 774 m 1
 315 913 l 1
 426 913 l 1
 518 774 l 1
 436 774 l 1
 370 863 l 1
 305 774 l 1
 223 774 l 1
368 -16 m 0
 156 -16 44 146 44 354 c 0
 44 562 162 726 372 726 c 0
 537 726 634 632 662 487 c 1
 549 481 l 1
 533 565 483 627 371 627 c 0
 219 627 156 503 156 354 c 0
 156 198 222 83 367 83 c 0
 490 83 556 164 561 271 c 1
 371 271 l 1
 371 362 l 1
 664 362 l 1
 664 319 l 2
 664 105 556 -16 368 -16 c 0
EndSplineSet
EndChar

StartChar: uni0122.ss06
Encoding: 65556 -1 151
Width: 703
GlyphClass: 2
Flags: MW
HStem: -150 98<318 353 318 428> -16 99<294.5 428.5 294.5 462> 271 91<371 561 371 664> 627 99<295 427>
VStem: 44 112<276 428.5 276 458> 318 110<-141 -52 -141 -52 -141 -52> 561 103<271 271>
AnchorPoint: "Anchor-3" 370 710 basechar 0
AnchorPoint: "Anchor-0" 373 -244 basechar 0
LayerCount: 2
Fore
SplineSet
368 -16 m 0
 156 -16 44 146 44 354 c 0
 44 562 162 726 372 726 c 0
 537 726 634 632 662 487 c 1
 549 481 l 1
 533 565 483 627 371 627 c 0
 219 627 156 503 156 354 c 0
 156 198 222 83 367 83 c 0
 490 83 556 164 561 271 c 1
 371 271 l 1
 371 362 l 1
 664 362 l 1
 664 319 l 2
 664 105 556 -16 368 -16 c 0
299 -244 m 1
 353 -150 l 1
 318 -150 l 1
 318 -52 l 1
 428 -52 l 1
 428 -141 l 1
 367 -244 l 1
 299 -244 l 1
EndSplineSet
EndChar

StartChar: Gdotaccent.ss06
Encoding: 65557 -1 152
Width: 703
GlyphClass: 2
Flags: MW
HStem: -16 99<294.5 428.5 294.5 462> 271 91<371 561 371 664> 627 99<295 427> 787 106<315 426 315 426>
VStem: 44 112<276 428.5 276 458> 315 111<787 893 787 893> 561 103<271 271>
AnchorPoint: "Anchor-3" 370 710 basechar 0
AnchorPoint: "Anchor-0" 373 0 basechar 0
LayerCount: 2
Fore
SplineSet
315 787 m 1
 315 893 l 1
 426 893 l 1
 426 787 l 1
 315 787 l 1
368 -16 m 0
 156 -16 44 146 44 354 c 0
 44 562 162 726 372 726 c 0
 537 726 634 632 662 487 c 1
 549 481 l 1
 533 565 483 627 371 627 c 0
 219 627 156 503 156 354 c 0
 156 198 222 83 367 83 c 0
 490 83 556 164 561 271 c 1
 371 271 l 1
 371 362 l 1
 664 362 l 1
 664 319 l 2
 664 105 556 -16 368 -16 c 0
EndSplineSet
Substitution2: "'ss08' Style Set 8 in Latin lookup 41 subtable" Gdotaccent.ss06.ss08
Substitution2: "'aalt' Access All Alternates in Latin lookup 0 subtable" Gdotaccent.ss06.ss08
EndChar

StartChar: uni1E20.ss06
Encoding: 65558 -1 153
Width: 703
GlyphClass: 2
Flags: MW
HStem: -16 99<294.5 428.5 294.5 462> 271 91<371 561 371 664> 627 99<295 427> 797 85<231 510 231 510>
VStem: 44 112<276 428.5 276 458> 231 279<797 882 797 882> 561 103<271 271>
AnchorPoint: "Anchor-3" 370 710 basechar 0
AnchorPoint: "Anchor-0" 373 0 basechar 0
LayerCount: 2
Fore
SplineSet
231 797 m 1
 231 882 l 1
 510 882 l 1
 510 797 l 1
 231 797 l 1
368 -16 m 0
 156 -16 44 146 44 354 c 0
 44 562 162 726 372 726 c 0
 537 726 634 632 662 487 c 1
 549 481 l 1
 533 565 483 627 371 627 c 0
 219 627 156 503 156 354 c 0
 156 198 222 83 367 83 c 0
 490 83 556 164 561 271 c 1
 371 271 l 1
 371 362 l 1
 664 362 l 1
 664 319 l 2
 664 105 556 -16 368 -16 c 0
EndSplineSet
EndChar

StartChar: Adieresis.ss08
Encoding: 65559 -1 154
Width: 689
GlyphClass: 2
Flags: MW
HStem: 0 21G<20 20 20 135 554 554 554 669> 185 98<233 456 233 489 199 456> 607 103<344 344> 690 20G<276 413 413 413> 782 114<232.5 266 422.5 456>
VStem: 193 113<821 856> 383 113<821 856>
AnchorPoint: "Anchor-3" 344 710 basechar 0
AnchorPoint: "Anchor-2" 669 0 basechar 0
AnchorPoint: "Anchor-0" 344 0 basechar 0
LayerCount: 2
Fore
SplineSet
249 782 m 0xde
 216 782 193 803 193 839 c 0
 193 873 216 896 249 896 c 0
 283 896 306 873 306 839 c 0
 306 803 283 782 249 782 c 0xde
439 782 m 0
 406 782 383 803 383 839 c 0
 383 873 406 896 439 896 c 0
 473 896 496 873 496 839 c 0
 496 803 473 782 439 782 c 0
20 0 m 1
 276 710 l 1
 413 710 l 1
 669 0 l 1
 554 0 l 1
 489 185 l 1
 199 185 l 1
 135 0 l 1
 20 0 l 1
233 283 m 1
 456 283 l 1
 344 607 l 1xee
 233 283 l 1
EndSplineSet
EndChar

StartChar: Cdotaccent.ss08
Encoding: 65560 -1 155
Width: 713
GlyphClass: 2
Flags: MW
HStem: -16 99<304.5 425.5 304.5 455.5> 627 99<304.5 423> 782 114<351 384.5>
VStem: 44 112<269 438.5 269 468.5> 311 114<821 856>
AnchorPoint: "Anchor-3" 367 710 basechar 0
AnchorPoint: "Anchor-0" 370 0 basechar 0
LayerCount: 2
Fore
SplineSet
368 782 m 0
 334 782 311 803 311 839 c 0
 311 873 334 896 368 896 c 0
 401 896 425 873 425 839 c 0
 425 803 401 782 368 782 c 0
368 -16 m 0
 176 -16 44 123 44 354 c 0
 44 583 174 726 369 726 c 0
 545 726 639 632 669 477 c 1
 556 471 l 1
 537 568 477 627 369 627 c 0
 240 627 156 523 156 354 c 0
 156 184 241 83 368 83 c 0
 483 83 544 148 561 254 c 1
 674 248 l 1
 647 87 543 -16 368 -16 c 0
EndSplineSet
EndChar

StartChar: Edieresis.ss08
Encoding: 65561 -1 156
Width: 609
GlyphClass: 2
Flags: MW
HStem: 0 99<194 556 194 556> 308 96<194 536 194 536> 611 99<194 548 194 194> 782 114<207 240.5 397 430.5>
VStem: 86 108<99 308 404 611> 167 113<821 856> 357 113<821 856>
AnchorPoint: "Anchor-3" 319 710 basechar 0
AnchorPoint: "Anchor-2" 556 0 basechar 0
AnchorPoint: "Anchor-0" 320 0 basechar 0
LayerCount: 2
Fore
SplineSet
224 782 m 0xf6
 190 782 167 803 167 839 c 0
 167 873 190 896 224 896 c 0
 257 896 280 873 280 839 c 0
 280 803 257 782 224 782 c 0xf6
414 782 m 0
 380 782 357 803 357 839 c 0
 357 873 380 896 414 896 c 0
 447 896 470 873 470 839 c 0
 470 803 447 782 414 782 c 0
86 0 m 1xe8
 86 710 l 1
 548 710 l 1
 548 611 l 1
 194 611 l 1
 194 404 l 1
 536 404 l 1
 536 308 l 1
 194 308 l 1
 194 99 l 1
 556 99 l 1
 556 0 l 1
 86 0 l 1xe8
EndSplineSet
EndChar

StartChar: Edotaccent.ss08
Encoding: 65562 -1 157
Width: 609
GlyphClass: 2
Flags: MW
HStem: 0 99<194 556 194 556> 308 96<194 536 194 536> 611 99<194 548 194 194> 782 114<302.5 336>
VStem: 86 108<99 308 404 611> 262 115<821 856>
AnchorPoint: "Anchor-3" 319 710 basechar 0
AnchorPoint: "Anchor-2" 556 0 basechar 0
AnchorPoint: "Anchor-0" 320 0 basechar 0
LayerCount: 2
Fore
SplineSet
319 782 m 0
 286 782 262 803 262 839 c 0
 262 873 286 896 319 896 c 0
 353 896 377 873 377 839 c 0
 377 803 353 782 319 782 c 0
86 0 m 1
 86 710 l 1
 548 710 l 1
 548 611 l 1
 194 611 l 1
 194 404 l 1
 536 404 l 1
 536 308 l 1
 194 308 l 1
 194 99 l 1
 556 99 l 1
 556 0 l 1
 86 0 l 1
EndSplineSet
EndChar

StartChar: Gdotaccent.ss08
Encoding: 65563 -1 158
Width: 713
GlyphClass: 2
Flags: MW
HStem: -16 99<296 414> 0 21G<590 664 590 590> 271 91<371 561 371 664> 627 99<295 425> 782 114<353.5 387>
VStem: 44 112<276.5 428.5 276.5 460.5> 313 114<821 856> 561 103<271 271> 587.5 76.5
AnchorPoint: "Anchor-3" 369 710 basechar 0
AnchorPoint: "Anchor-0" 372 0 basechar 0
LayerCount: 2
Fore
SplineSet
370 782 m 0xbe80
 337 782 313 803 313 839 c 0
 313 873 337 896 370 896 c 0
 404 896 427 873 427 839 c 0
 427 803 404 782 370 782 c 0xbe80
365 -16 m 0
 163 -16 44 138 44 354 c 0
 44 567 165 726 369 726 c 0
 544 726 634 625 662 487 c 1
 549 481 l 1
 532 568 481 627 369 627 c 0
 221 627 156 503 156 354 c 0
 156 199 222 83 370 83 c 0
 486 83 557 167 561 271 c 1xb5
 371 271 l 1
 371 362 l 1
 664 362 l 1
 664 0 l 1
 590 0 l 1x7480
 585 113 l 1
 550 36 463 -16 365 -16 c 0
EndSplineSet
EndChar

StartChar: Idieresis.ss08
Encoding: 65564 -1 159
Width: 280
GlyphClass: 2
Flags: MW
HStem: 0 21G<86 86 86 194> 690 20G<86 194 194 194> 782 114<28 62 218 252>
VStem: -11 112<821 856> 86 108<0 710 0 710> 179 112<821 856>
AnchorPoint: "Anchor-3" 140 710 basechar 0
AnchorPoint: "Anchor-2" 194 0 basechar 0
AnchorPoint: "Anchor-0" 140 0 basechar 0
LayerCount: 2
Fore
SplineSet
45 782 m 0xf4
 11 782 -11 803 -11 839 c 0
 -11 873 11 896 45 896 c 0
 79 896 101 873 101 839 c 0
 101 803 79 782 45 782 c 0xf4
235 782 m 0
 201 782 179 803 179 839 c 0
 179 873 201 896 235 896 c 0
 269 896 291 873 291 839 c 0
 291 803 269 782 235 782 c 0
86 0 m 1xe8
 86 710 l 1
 194 710 l 1
 194 0 l 1
 86 0 l 1xe8
EndSplineSet
EndChar

StartChar: Idotaccent.ss08
Encoding: 65565 -1 160
Width: 280
GlyphClass: 2
Flags: MW
HStem: 0 21G<86 86 86 194> 690 20G<86 194 194 194> 782 114<124 157.5>
VStem: 84 114<821 856> 86 108<0 710 0 710>
AnchorPoint: "Anchor-3" 140 710 basechar 0
AnchorPoint: "Anchor-2" 194 0 basechar 0
AnchorPoint: "Anchor-0" 140 0 basechar 0
LayerCount: 2
Fore
SplineSet
141 782 m 0xf0
 107 782 84 803 84 839 c 0
 84 873 107 896 141 896 c 0
 174 896 198 873 198 839 c 0
 198 803 174 782 141 782 c 0xf0
86 0 m 1xe8
 86 710 l 1
 194 710 l 1
 194 0 l 1
 86 0 l 1xe8
EndSplineSet
EndChar

StartChar: Odieresis.ss08
Encoding: 65566 -1 161
Width: 751
GlyphClass: 2
Flags: MW
HStem: -16 99<306.5 444 306.5 479> 627 99<306.5 444> 782 114<263.5 297 453.5 487>
VStem: 44 112<268.5 439.5 268.5 469> 224 113<821 856> 414 113<821 856> 595 112<268.5 439.5>
AnchorPoint: "Anchor-3" 375 710 basechar 0
AnchorPoint: "Anchor-1" 376 355 basechar 0
AnchorPoint: "Anchor-0" 375 0 basechar 0
LayerCount: 2
Fore
SplineSet
280 782 m 0
 247 782 224 803 224 839 c 0
 224 873 247 896 280 896 c 0
 314 896 337 873 337 839 c 0
 337 803 314 782 280 782 c 0
470 782 m 0
 437 782 414 803 414 839 c 0
 414 873 437 896 470 896 c 0
 504 896 527 873 527 839 c 0
 527 803 504 782 470 782 c 0
375 -16 m 0
 169 -16 44 124 44 354 c 0
 44 584 169 726 375 726 c 0
 583 726 707 584 707 354 c 0
 707 124 583 -16 375 -16 c 0
375 83 m 0
 513 83 595 183 595 354 c 0
 595 525 513 627 375 627 c 0
 238 627 156 525 156 354 c 0
 156 183 238 83 375 83 c 0
EndSplineSet
EndChar

StartChar: Udieresis.ss08
Encoding: 65567 -1 162
Width: 694
GlyphClass: 2
Flags: MW
HStem: -16 99<293.5 400.5 293.5 431.5> 691 20G<71 179 179 179 515 623 623 623> 782 114<235.5 269 425.5 459>
VStem: 71 108<251 711> 196 113<821 856> 386 113<821 856> 515 108<251 711>
AnchorPoint: "Anchor-3" 347 710 basechar 0
AnchorPoint: "Anchor-2" 460 2 basechar 0
AnchorPoint: "Anchor-0" 347 0 basechar 0
LayerCount: 2
Fore
SplineSet
252 782 m 0
 219 782 196 803 196 839 c 0
 196 873 219 896 252 896 c 0
 286 896 309 873 309 839 c 0
 309 803 286 782 252 782 c 0
442 782 m 0
 409 782 386 803 386 839 c 0
 386 873 409 896 442 896 c 0
 476 896 499 873 499 839 c 0
 499 803 476 782 442 782 c 0
347 -16 m 0
 177 -16 71 87 71 251 c 2
 71 711 l 1
 179 711 l 1
 179 251 l 2
 179 143 240 83 347 83 c 0
 454 83 515 143 515 251 c 2
 515 711 l 1
 623 711 l 1
 623 251 l 2xf2
 623 87 516 -16 347 -16 c 0
EndSplineSet
EndChar

StartChar: Wdieresis.ss08
Encoding: 65568 -1 163
Width: 968
GlyphClass: 2
Flags: MW
HStem: 0 21G<226 226 226 352 616 616 616 742> 0 149<226 291 291 291 291 352> 690 20G<38 153 153 153 429 539 539 539 814 931 931 931> 782 114<372 405.5 562 595.5>
VStem: 332 113<821 856> 522 113<821 856>
AnchorPoint: "Anchor-3" 484 710 basechar 0
AnchorPoint: "Anchor-0" 484 0 basechar 0
LayerCount: 2
Fore
SplineSet
389 782 m 0xbc
 355 782 332 803 332 839 c 0
 332 873 355 896 389 896 c 0
 422 896 445 873 445 839 c 0
 445 803 422 782 389 782 c 0xbc
579 782 m 0
 545 782 522 803 522 839 c 0
 522 873 545 896 579 896 c 0
 612 896 635 873 635 839 c 0
 635 803 612 782 579 782 c 0
226 0 m 1
 38 710 l 1
 153 710 l 1
 291 149 l 1
 429 710 l 1
 539 710 l 1
 677 149 l 1x7c
 814 710 l 1
 931 710 l 1
 742 0 l 1
 616 0 l 1
 484 518 l 1
 352 0 l 1
 226 0 l 1
EndSplineSet
EndChar

StartChar: Ydieresis.ss08
Encoding: 65569 -1 164
Width: 594
GlyphClass: 2
Flags: MW
HStem: 0 21G<243 243 243 351> 690 20G<-6 118 118 118 477 601 601 601> 782 114<185.5 219 375.5 409>
VStem: 146 113<821 856> 243 108<0 285 0 285> 336 113<821 856>
AnchorPoint: "Anchor-3" 297 710 basechar 0
AnchorPoint: "Anchor-0" 297 0 basechar 0
LayerCount: 2
Fore
SplineSet
202 782 m 0xf4
 169 782 146 803 146 839 c 0
 146 873 169 896 202 896 c 0
 236 896 259 873 259 839 c 0
 259 803 236 782 202 782 c 0xf4
392 782 m 0
 359 782 336 803 336 839 c 0
 336 873 359 896 392 896 c 0
 426 896 449 873 449 839 c 0
 449 803 426 782 392 782 c 0
243 0 m 1xe8
 243 285 l 1
 -6 710 l 1
 118 710 l 1
 297 393 l 1
 477 710 l 1
 601 710 l 1
 351 285 l 1
 351 0 l 1
 243 0 l 1xe8
EndSplineSet
EndChar

StartChar: Zdotaccent.ss08
Encoding: 65570 -1 165
Width: 561
GlyphClass: 2
Flags: MW
HStem: 0 99<154 533 154 533> 611 99<42 394 42 522> 782 114<272.5 306>
VStem: 232 115<821 856>
AnchorPoint: "Anchor-3" 289 710 basechar 0
AnchorPoint: "Anchor-0" 289 0 basechar 0
LayerCount: 2
Fore
SplineSet
289 782 m 0
 256 782 232 803 232 839 c 0
 232 873 256 896 289 896 c 0
 323 896 347 873 347 839 c 0
 347 803 323 782 289 782 c 0
28 0 m 1
 28 100 l 1
 394 611 l 1
 42 611 l 1
 42 710 l 1
 522 710 l 1
 522 610 l 1
 154 99 l 1
 533 99 l 1
 533 0 l 1
 28 0 l 1
EndSplineSet
EndChar

StartChar: Idieresis.ss05.ss08
Encoding: 65571 -1 166
Width: 441
GlyphClass: 2
Flags: MW
HStem: 0 99<44 167 44 167 275 397> 611 99<50 167 50 391 275 275 275 391> 782 114<109 142.5 299 332.5>
VStem: 69 113<821 856> 167 108<99 611 99 611> 259 113<821 856>
AnchorPoint: "Anchor-3" 221 710 basechar 0
AnchorPoint: "Anchor-2" 397 0 basechar 0
AnchorPoint: "Anchor-0" 221 0 basechar 0
LayerCount: 2
Fore
SplineSet
126 782 m 0xf4
 92 782 69 803 69 839 c 0
 69 873 92 896 126 896 c 0
 159 896 182 873 182 839 c 0
 182 803 159 782 126 782 c 0xf4
316 782 m 0
 282 782 259 803 259 839 c 0
 259 873 282 896 316 896 c 0
 349 896 372 873 372 839 c 0
 372 803 349 782 316 782 c 0
44 0 m 1
 44 99 l 1
 167 99 l 1
 167 611 l 1
 50 611 l 1
 50 710 l 1
 391 710 l 1
 391 611 l 1
 275 611 l 1
 275 99 l 1xc8
 397 99 l 1
 397 0 l 1
 44 0 l 1
EndSplineSet
EndChar

StartChar: Idotaccent.ss05.ss08
Encoding: 65572 -1 167
Width: 441
GlyphClass: 2
Flags: MW
HStem: 0 99<44 167 44 167 275 397> 611 99<50 167 50 391 275 275 275 391> 782 114<204.5 238>
VStem: 164 115<821 856> 167 108<99 611 99 611>
AnchorPoint: "Anchor-3" 221 710 basechar 0
AnchorPoint: "Anchor-2" 397 0 basechar 0
AnchorPoint: "Anchor-0" 221 0 basechar 0
LayerCount: 2
Fore
SplineSet
221 782 m 0xf0
 188 782 164 803 164 839 c 0
 164 873 188 896 221 896 c 0
 255 896 279 873 279 839 c 0
 279 803 255 782 221 782 c 0xf0
44 0 m 1
 44 99 l 1
 167 99 l 1
 167 611 l 1
 50 611 l 1
 50 710 l 1
 391 710 l 1
 391 611 l 1
 275 611 l 1
 275 99 l 1xc8
 397 99 l 1
 397 0 l 1
 44 0 l 1
EndSplineSet
EndChar

StartChar: Gdotaccent.ss06.ss08
Encoding: 65573 -1 168
Width: 703
GlyphClass: 2
Flags: MW
HStem: -16 99<294.5 428.5 294.5 462> 271 91<371 561 371 664> 627 99<295 427> 782 114<354.5 388>
VStem: 44 112<276 428.5 276 458> 314 114<821 856> 561 103<271 271>
AnchorPoint: "Anchor-3" 370 710 basechar 0
AnchorPoint: "Anchor-0" 373 0 basechar 0
LayerCount: 2
Fore
SplineSet
371 782 m 0
 338 782 314 803 314 839 c 0
 314 873 338 896 371 896 c 0
 405 896 428 873 428 839 c 0
 428 803 405 782 371 782 c 0
368 -16 m 0
 156 -16 44 146 44 354 c 0
 44 562 162 726 372 726 c 0
 537 726 634 632 662 487 c 1
 549 481 l 1
 533 565 483 627 371 627 c 0
 219 627 156 503 156 354 c 0
 156 198 222 83 367 83 c 0
 490 83 556 164 561 271 c 1
 371 271 l 1
 371 362 l 1
 664 362 l 1
 664 319 l 2
 664 105 556 -16 368 -16 c 0
EndSplineSet
EndChar

StartChar: A_I.dlig
Encoding: 65574 -1 169
Width: 1130
GlyphClass: 3
Flags: MW
HStem: 0 99<554 855 733 855 963 1086 733 855> 185 98<233 456 233 489 199 456> 611 99<739 855 963 963 963 1080>
VStem: 855 108<99 611 99 611>
AnchorPoint: "Anchor-8" 344 710 baselig 0
AnchorPoint: "Anchor-7" 669 0 baselig 0
AnchorPoint: "Anchor-5" 344 0 baselig 0
AnchorPoint: "Anchor-8" 909 710 baselig 1
AnchorPoint: "Anchor-5" 909 0 baselig 1
AnchorPoint: "Anchor-7" 1086 0 baselig 1
LayerCount: 2
Fore
SplineSet
20 0 m 1
 276 710 l 1
 413 710 l 1
 669 0 l 1
 554 0 l 1
 489 185 l 1
 199 185 l 1
 135 0 l 1
 20 0 l 1
733 0 m 1
 733 99 l 1
 855 99 l 1
 855 611 l 1
 739 611 l 1
 739 710 l 1
 1080 710 l 1
 1080 611 l 1
 963 611 l 1
 963 99 l 1
 1086 99 l 1
 1086 0 l 1
 733 0 l 1
233 283 m 1
 456 283 l 1
 344 607 l 1
 233 283 l 1
EndSplineSet
Ligature2: "'dlig' Discretionary Ligatures in Latin lookup 32 subtable" A I
EndChar

StartChar: U_I.dlig
Encoding: 65575 -1 170
Width: 1135
GlyphClass: 3
Flags: MW
HStem: -16 99<293.5 400.5 293.5 431.5> 0 99<738 860 738 860 969 1091> 611 99<744 860 744 1085 969 969 969 1085>
VStem: 71 108<251 711> 515 108<251 711> 860 109<99 611 99 611>
AnchorPoint: "Anchor-8" 347 710 baselig 0
AnchorPoint: "Anchor-7" 460 2 baselig 0
AnchorPoint: "Anchor-5" 347 0 baselig 0
AnchorPoint: "Anchor-8" 914 710 baselig 1
AnchorPoint: "Anchor-5" 914 0 baselig 1
AnchorPoint: "Anchor-7" 1091 0 baselig 1
LayerCount: 2
Fore
SplineSet
347 -16 m 0xbc
 177 -16 71 87 71 251 c 2
 71 711 l 1
 179 711 l 1
 179 251 l 2
 179 143 240 83 347 83 c 0
 454 83 515 143 515 251 c 2
 515 711 l 1
 623 711 l 1
 623 251 l 2
 623 87 516 -16 347 -16 c 0xbc
738 0 m 1x7c
 738 99 l 1
 860 99 l 1
 860 611 l 1
 744 611 l 1
 744 710 l 1
 1085 710 l 1
 1085 611 l 1
 969 611 l 1
 969 99 l 1
 1091 99 l 1
 1091 0 l 1
 738 0 l 1x7c
EndSplineSet
Ligature2: "'dlig' Discretionary Ligatures in Latin lookup 32 subtable" U I
EndChar

StartChar: a
Encoding: 97 97 171
Width: 565
GlyphClass: 2
Flags: MW
HStem: -12 84<212.5 265.5> -3 87<478.5 548> 454 90<246 318>
VStem: 42 110<120 163.5 120 178.5> 395 106<217 251 251 251>
AnchorPoint: "Anchor-3" 284 532 basechar 0
AnchorPoint: "Anchor-2" 548 0 basechar 0
AnchorPoint: "Anchor-0" 275 0 basechar 0
LayerCount: 2
Fore
SplineSet
224 -12 m 0xa8
 113 -12 42 41 42 133 c 0
 42 224 95 273 212 296 c 2
 395 331 l 1
 395 413 356 454 280 454 c 0
 212 454 174 423 160 365 c 1
 51 372 l 1
 71 478 154 544 280 544 c 0
 424 544 501 463 501 325 c 2
 501 118 l 2
 501 92 509 84 529 84 c 2
 548 84 l 1
 548 0 l 1
 541 -2 525 -3 509 -3 c 0x78
 448 -3 412 20 404 82 c 1
 377 26 307 -12 224 -12 c 0xa8
241 72 m 0
 337 72 395 132 395 217 c 2
 395 251 l 1
 239 221 l 2
 175 209 152 184 152 143 c 0xb8
 152 97 184 72 241 72 c 0
EndSplineSet
Substitution2: "'ss02' Style Set 2 in Latin lookup 35 subtable" a.ss02
Substitution2: "'ss01' Style Set 1 in Latin lookup 34 subtable" a.ss01
Substitution2: "Single Substitution lookup 27 subtable" ordfeminine
AlternateSubs2: "'aalt' Access All Alternates in Latin lookup 1 subtable" ordfeminine a.ss01 a.ss02
EndChar

StartChar: aacute
Encoding: 225 225 172
Width: 565
GlyphClass: 2
Flags: MW
HStem: -12 84<212.5 265.5> -3 87<478.5 548> 454 90<246 318> 596 134<237 412 300 322>
VStem: 42 110<120 163.5 120 178.5> 395 106<217 251 251 251>
AnchorPoint: "Anchor-3" 284 532 basechar 0
AnchorPoint: "Anchor-2" 548 0 basechar 0
AnchorPoint: "Anchor-0" 275 0 basechar 0
LayerCount: 2
Fore
SplineSet
237 596 m 1xb4
 300 730 l 1
 412 730 l 1
 322 596 l 1
 237 596 l 1xb4
224 -12 m 0
 113 -12 42 41 42 133 c 0
 42 224 95 273 212 296 c 2
 395 331 l 1
 395 413 356 454 280 454 c 0
 212 454 174 423 160 365 c 1
 51 372 l 1
 71 478 154 544 280 544 c 0
 424 544 501 463 501 325 c 2
 501 118 l 2
 501 92 509 84 529 84 c 2
 548 84 l 1
 548 0 l 1
 541 -2 525 -3 509 -3 c 0x7c
 448 -3 412 20 404 82 c 1
 377 26 307 -12 224 -12 c 0
241 72 m 0
 337 72 395 132 395 217 c 2
 395 251 l 1
 239 221 l 2
 175 209 152 184 152 143 c 0xbc
 152 97 184 72 241 72 c 0
EndSplineSet
Substitution2: "'ss02' Style Set 2 in Latin lookup 35 subtable" aacute.ss02
Substitution2: "'ss01' Style Set 1 in Latin lookup 34 subtable" aacute.ss01
AlternateSubs2: "'aalt' Access All Alternates in Latin lookup 1 subtable" aacute.ss01 aacute.ss02
EndChar

StartChar: abreve
Encoding: 259 259 173
Width: 565
GlyphClass: 2
Flags: MW
HStem: -12 84<212.5 265.5> -3 87<478.5 548> 454 90<246 318> 599 69<262 306 262 327>
VStem: 42 110<120 163.5 120 178.5> 395 106<217 251 251 251>
AnchorPoint: "Anchor-3" 284 532 basechar 0
AnchorPoint: "Anchor-2" 548 0 basechar 0
AnchorPoint: "Anchor-0" 275 0 basechar 0
LayerCount: 2
Fore
SplineSet
284 599 m 0xb4
 199 599 143 650 139 734 c 1
 206 734 l 1
 212 688 240 668 284 668 c 0
 328 668 356 688 361 734 c 1
 429 734 l 1
 425 650 370 599 284 599 c 0xb4
224 -12 m 0
 113 -12 42 41 42 133 c 0
 42 224 95 273 212 296 c 2
 395 331 l 1
 395 413 356 454 280 454 c 0
 212 454 174 423 160 365 c 1
 51 372 l 1
 71 478 154 544 280 544 c 0
 424 544 501 463 501 325 c 2
 501 118 l 2
 501 92 509 84 529 84 c 2
 548 84 l 1
 548 0 l 1
 541 -2 525 -3 509 -3 c 0x7c
 448 -3 412 20 404 82 c 1
 377 26 307 -12 224 -12 c 0
241 72 m 0
 337 72 395 132 395 217 c 2
 395 251 l 1
 239 221 l 2
 175 209 152 184 152 143 c 0xbc
 152 97 184 72 241 72 c 0
EndSplineSet
Substitution2: "'ss02' Style Set 2 in Latin lookup 35 subtable" abreve.ss02
Substitution2: "'ss01' Style Set 1 in Latin lookup 34 subtable" abreve.ss01
AlternateSubs2: "'aalt' Access All Alternates in Latin lookup 1 subtable" abreve.ss01 abreve.ss02
EndChar

StartChar: uni01CE
Encoding: 462 462 174
Width: 565
GlyphClass: 2
Flags: MW
HStem: -12 84<212.5 265.5> -3 87<478.5 548> 454 90<246 318> 596 139<137 340 137 229>
VStem: 42 110<120 163.5 120 178.5> 395 106<217 251 251 251>
AnchorPoint: "Anchor-3" 284 532 basechar 0
AnchorPoint: "Anchor-2" 548 0 basechar 0
AnchorPoint: "Anchor-0" 275 0 basechar 0
LayerCount: 2
Fore
SplineSet
137 735 m 1xb4
 218 735 l 1
 284 646 l 1
 350 735 l 1
 432 735 l 1
 340 596 l 1
 229 596 l 1
 137 735 l 1xb4
224 -12 m 0
 113 -12 42 41 42 133 c 0
 42 224 95 273 212 296 c 2
 395 331 l 1
 395 413 356 454 280 454 c 0
 212 454 174 423 160 365 c 1
 51 372 l 1
 71 478 154 544 280 544 c 0
 424 544 501 463 501 325 c 2
 501 118 l 2
 501 92 509 84 529 84 c 2
 548 84 l 1
 548 0 l 1
 541 -2 525 -3 509 -3 c 0x7c
 448 -3 412 20 404 82 c 1
 377 26 307 -12 224 -12 c 0
241 72 m 0
 337 72 395 132 395 217 c 2
 395 251 l 1
 239 221 l 2
 175 209 152 184 152 143 c 0xbc
 152 97 184 72 241 72 c 0
EndSplineSet
Substitution2: "'ss02' Style Set 2 in Latin lookup 35 subtable" uni01CE.ss02
Substitution2: "'ss01' Style Set 1 in Latin lookup 34 subtable" uni01CE.ss01
AlternateSubs2: "'aalt' Access All Alternates in Latin lookup 1 subtable" uni01CE.ss01 uni01CE.ss02
EndChar

StartChar: acircumflex
Encoding: 226 226 175
Width: 565
GlyphClass: 2
Flags: MW
HStem: -12 84<212.5 265.5> -3 87<478.5 548> 454 90<246 318> 596 139<137 340 137 340 229 350 229 432>
VStem: 42 110<120 163.5 120 178.5> 395 106<217 251 251 251>
AnchorPoint: "Anchor-3" 284 532 basechar 0
AnchorPoint: "Anchor-2" 548 0 basechar 0
AnchorPoint: "Anchor-0" 275 0 basechar 0
LayerCount: 2
Fore
SplineSet
137 596 m 1xb4
 229 735 l 1
 340 735 l 1
 432 596 l 1
 350 596 l 1
 284 685 l 1
 218 596 l 1
 137 596 l 1xb4
224 -12 m 0
 113 -12 42 41 42 133 c 0
 42 224 95 273 212 296 c 2
 395 331 l 1
 395 413 356 454 280 454 c 0
 212 454 174 423 160 365 c 1
 51 372 l 1
 71 478 154 544 280 544 c 0
 424 544 501 463 501 325 c 2
 501 118 l 2
 501 92 509 84 529 84 c 2
 548 84 l 1
 548 0 l 1
 541 -2 525 -3 509 -3 c 0x7c
 448 -3 412 20 404 82 c 1
 377 26 307 -12 224 -12 c 0
241 72 m 0
 337 72 395 132 395 217 c 2
 395 251 l 1
 239 221 l 2
 175 209 152 184 152 143 c 0xbc
 152 97 184 72 241 72 c 0
EndSplineSet
Substitution2: "'ss02' Style Set 2 in Latin lookup 35 subtable" acircumflex.ss02
Substitution2: "'ss01' Style Set 1 in Latin lookup 34 subtable" acircumflex.ss01
AlternateSubs2: "'aalt' Access All Alternates in Latin lookup 1 subtable" acircumflex.ss01 acircumflex.ss02
EndChar

StartChar: adieresis
Encoding: 228 228 176
Width: 565
GlyphClass: 2
Flags: MW
HStem: -12 84<212.5 265.5> -3 87<478.5 548> 454 90<246 318> 608 106<137 244 137 244 325 431 137 325>
VStem: 42 110<120 163.5 120 178.5> 137 107<608 714 608 714> 325 106<608 714 608 714> 395 106<217 251 251 251>
AnchorPoint: "Anchor-3" 284 532 basechar 0
AnchorPoint: "Anchor-2" 548 0 basechar 0
AnchorPoint: "Anchor-0" 275 0 basechar 0
LayerCount: 2
Fore
SplineSet
137 608 m 1xb6
 137 714 l 1
 244 714 l 1
 244 608 l 1
 137 608 l 1xb6
325 608 m 1
 325 714 l 1
 431 714 l 1
 431 608 l 1
 325 608 l 1
224 -12 m 0
 113 -12 42 41 42 133 c 0
 42 224 95 273 212 296 c 2
 395 331 l 1
 395 413 356 454 280 454 c 0
 212 454 174 423 160 365 c 1
 51 372 l 1
 71 478 154 544 280 544 c 0
 424 544 501 463 501 325 c 2
 501 118 l 2
 501 92 509 84 529 84 c 2
 548 84 l 1
 548 0 l 1
 541 -2 525 -3 509 -3 c 0x79
 448 -3 412 20 404 82 c 1
 377 26 307 -12 224 -12 c 0
241 72 m 0
 337 72 395 132 395 217 c 2
 395 251 l 1
 239 221 l 2
 175 209 152 184 152 143 c 0xb9
 152 97 184 72 241 72 c 0
EndSplineSet
Substitution2: "'ss08' Style Set 8 in Latin lookup 41 subtable" adieresis.ss08
Substitution2: "'ss02' Style Set 2 in Latin lookup 35 subtable" adieresis.ss02
Substitution2: "'ss01' Style Set 1 in Latin lookup 34 subtable" adieresis.ss01
AlternateSubs2: "'aalt' Access All Alternates in Latin lookup 1 subtable" adieresis.ss01 adieresis.ss02 adieresis.ss08
EndChar

StartChar: agrave
Encoding: 224 224 177
Width: 565
GlyphClass: 2
Flags: MW
HStem: -12 84<212.5 265.5> -3 87<478.5 548> 454 90<246 318> 601 135<248 248 248 269 158 332>
VStem: 42 110<120 163.5 120 178.5> 395 106<217 251 251 251>
AnchorPoint: "Anchor-3" 284 532 basechar 0
AnchorPoint: "Anchor-2" 548 0 basechar 0
AnchorPoint: "Anchor-0" 275 0 basechar 0
LayerCount: 2
Fore
SplineSet
248 601 m 1xb4
 158 736 l 1
 269 736 l 1
 332 601 l 1
 248 601 l 1xb4
224 -12 m 0
 113 -12 42 41 42 133 c 0
 42 224 95 273 212 296 c 2
 395 331 l 1
 395 413 356 454 280 454 c 0
 212 454 174 423 160 365 c 1
 51 372 l 1
 71 478 154 544 280 544 c 0
 424 544 501 463 501 325 c 2
 501 118 l 2
 501 92 509 84 529 84 c 2
 548 84 l 1
 548 0 l 1
 541 -2 525 -3 509 -3 c 0x7c
 448 -3 412 20 404 82 c 1
 377 26 307 -12 224 -12 c 0
241 72 m 0
 337 72 395 132 395 217 c 2
 395 251 l 1
 239 221 l 2
 175 209 152 184 152 143 c 0xbc
 152 97 184 72 241 72 c 0
EndSplineSet
Substitution2: "'ss02' Style Set 2 in Latin lookup 35 subtable" agrave.ss02
Substitution2: "'ss01' Style Set 1 in Latin lookup 34 subtable" agrave.ss01
AlternateSubs2: "'aalt' Access All Alternates in Latin lookup 1 subtable" agrave.ss01 agrave.ss02
EndChar

StartChar: amacron
Encoding: 257 257 178
Width: 565
GlyphClass: 2
Flags: MW
HStem: -12 84<212.5 265.5> -3 87<478.5 548> 454 90<246 318> 619 85<145 423 145 423>
VStem: 42 110<120 163.5 120 178.5> 145 278<619 704 619 704> 395 106<217 251 251 251>
AnchorPoint: "Anchor-3" 284 532 basechar 0
AnchorPoint: "Anchor-2" 548 0 basechar 0
AnchorPoint: "Anchor-0" 275 0 basechar 0
LayerCount: 2
Fore
SplineSet
145 619 m 1xb4
 145 704 l 1
 423 704 l 1
 423 619 l 1
 145 619 l 1xb4
224 -12 m 0
 113 -12 42 41 42 133 c 0
 42 224 95 273 212 296 c 2
 395 331 l 1
 395 413 356 454 280 454 c 0
 212 454 174 423 160 365 c 1
 51 372 l 1
 71 478 154 544 280 544 c 0
 424 544 501 463 501 325 c 2
 501 118 l 2
 501 92 509 84 529 84 c 2
 548 84 l 1
 548 0 l 1
 541 -2 525 -3 509 -3 c 0x7a
 448 -3 412 20 404 82 c 1
 377 26 307 -12 224 -12 c 0
241 72 m 0
 337 72 395 132 395 217 c 2
 395 251 l 1
 239 221 l 2
 175 209 152 184 152 143 c 0xba
 152 97 184 72 241 72 c 0
EndSplineSet
Substitution2: "'ss02' Style Set 2 in Latin lookup 35 subtable" amacron.ss02
Substitution2: "'ss01' Style Set 1 in Latin lookup 34 subtable" amacron.ss01
AlternateSubs2: "'aalt' Access All Alternates in Latin lookup 1 subtable" amacron.ss01 amacron.ss02
EndChar

StartChar: aogonek
Encoding: 261 261 179
Width: 565
GlyphClass: 2
Flags: MW
HStem: -212 75<504 510> -12 84<212.5 265.5> 454 90<246 318>
VStem: 42 110<120 163.5 120 178.5> 391 93<-120 -117.5> 395 106<217 251 251 251>
AnchorPoint: "Anchor-3" 284 532 basechar 0
AnchorPoint: "Anchor-2" 548 0 basechar 0
AnchorPoint: "Anchor-0" 275 0 basechar 0
LayerCount: 2
Fore
SplineSet
224 -12 m 0xe8
 113 -12 42 41 42 133 c 0
 42 224 95 273 212 296 c 2
 395 331 l 1
 395 413 356 454 280 454 c 0
 212 454 174 423 160 365 c 1
 51 372 l 1
 71 478 154 544 280 544 c 0
 424 544 501 463 501 325 c 2
 501 118 l 2x74
 501 92 509 84 529 84 c 2
 548 84 l 1
 548 0 l 1
 515 -45 l 2
 492 -77 484 -95 484 -112 c 0
 484 -128 496 -137 512 -137 c 0
 530 -137 547 -132 559 -124 c 1
 584 -186 l 1
 568 -201 529 -212 491 -212 c 0
 429 -212 391 -186 391 -137 c 0
 391 -98 420 -57 446 -21 c 2
 464 3 l 1
 430 13 410 37 404 82 c 1
 377 26 307 -12 224 -12 c 0xe8
241 72 m 0
 337 72 395 132 395 217 c 2
 395 251 l 1
 239 221 l 2
 175 209 152 184 152 143 c 0
 152 97 184 72 241 72 c 0
EndSplineSet
Substitution2: "'ss02' Style Set 2 in Latin lookup 35 subtable" aogonek.ss02
Substitution2: "'ss01' Style Set 1 in Latin lookup 34 subtable" aogonek.ss01
AlternateSubs2: "'aalt' Access All Alternates in Latin lookup 1 subtable" aogonek.ss01 aogonek.ss02
EndChar

StartChar: aring
Encoding: 229 229 180
Width: 565
GlyphClass: 2
Flags: MW
HStem: -12 84<212.5 265.5> -3 87<478.5 548> 454 90<246 318> 576 54<272.5 295.5 272.5 311> 711 55<272.5 295.5>
VStem: 42 110<120 163.5 120 178.5> 189 55<659.5 682.5 659.5 698> 325 55<659.5 682.5> 395 106<217 251 251 251>
AnchorPoint: "Anchor-3" 284 532 basechar 0
AnchorPoint: "Anchor-2" 548 0 basechar 0
AnchorPoint: "Anchor-0" 275 0 basechar 0
LayerCount: 2
Fore
SplineSet
284 576 m 0xbf
 230 576 189 617 189 671 c 0
 189 725 230 766 284 766 c 0
 338 766 380 725 380 671 c 0
 380 617 338 576 284 576 c 0xbf
284 630 m 0
 307 630 325 648 325 671 c 0
 325 694 307 711 284 711 c 0
 261 711 244 694 244 671 c 0
 244 648 261 630 284 630 c 0
224 -12 m 0
 113 -12 42 41 42 133 c 0
 42 224 95 273 212 296 c 2
 395 331 l 1
 395 413 356 454 280 454 c 0
 212 454 174 423 160 365 c 1
 51 372 l 1
 71 478 154 544 280 544 c 0
 424 544 501 463 501 325 c 2
 501 118 l 2
 501 92 509 84 529 84 c 2
 548 84 l 1
 548 0 l 1
 541 -2 525 -3 509 -3 c 0x7e80
 448 -3 412 20 404 82 c 1
 377 26 307 -12 224 -12 c 0
241 72 m 0
 337 72 395 132 395 217 c 2
 395 251 l 1
 239 221 l 2
 175 209 152 184 152 143 c 0xbe80
 152 97 184 72 241 72 c 0
EndSplineSet
Substitution2: "'ss02' Style Set 2 in Latin lookup 35 subtable" aring.ss02
Substitution2: "'ss01' Style Set 1 in Latin lookup 34 subtable" aring.ss01
AlternateSubs2: "'aalt' Access All Alternates in Latin lookup 1 subtable" aring.ss01 aring.ss02
EndChar

StartChar: atilde
Encoding: 227 227 181
Width: 565
GlyphClass: 2
Flags: MW
HStem: -12 84<212.5 265.5> -3 87<478.5 548> 454 90<246 318> 607 67<338.5 357.5 338.5 373> 659 67<211.5 232>
VStem: 42 110<120 163.5 120 178.5> 122 59<600 600> 386 60<735 735> 395 106<217 251 251 251>
AnchorPoint: "Anchor-3" 284 532 basechar 0
AnchorPoint: "Anchor-2" 548 0 basechar 0
AnchorPoint: "Anchor-0" 275 0 basechar 0
LayerCount: 2
Fore
SplineSet
342 607 m 0xb1
 315 607 293 616 270 635 c 0
 250 652 241 659 223 659 c 0
 200 659 184 646 181 600 c 1
 122 600 l 1
 123 681 163 726 222 726 c 0xaa80
 254 726 276 715 300 696 c 0
 319 680 331 674 346 674 c 0
 369 674 383 687 386 735 c 1
 446 735 l 1
 443 655 404 607 342 607 c 0xb1
224 -12 m 0
 113 -12 42 41 42 133 c 0
 42 224 95 273 212 296 c 2
 395 331 l 1
 395 413 356 454 280 454 c 0
 212 454 174 423 160 365 c 1
 51 372 l 1
 71 478 154 544 280 544 c 0
 424 544 501 463 501 325 c 2
 501 118 l 2
 501 92 509 84 529 84 c 2
 548 84 l 1
 548 0 l 1
 541 -2 525 -3 509 -3 c 0x6c80
 448 -3 412 20 404 82 c 1
 377 26 307 -12 224 -12 c 0
241 72 m 0
 337 72 395 132 395 217 c 2
 395 251 l 1
 239 221 l 2
 175 209 152 184 152 143 c 0xac80
 152 97 184 72 241 72 c 0
EndSplineSet
Substitution2: "'ss02' Style Set 2 in Latin lookup 35 subtable" atilde.ss02
Substitution2: "'ss01' Style Set 1 in Latin lookup 34 subtable" atilde.ss01
AlternateSubs2: "'aalt' Access All Alternates in Latin lookup 1 subtable" atilde.ss01 atilde.ss02
EndChar

StartChar: ae
Encoding: 230 230 182
Width: 932
GlyphClass: 2
Flags: MW
HStem: -12 83 -12 91<609 682.5 609 709> 235 80<508 778 508 891 508 778> 454 90<244 318 609 683.5>
VStem: 42 110<119.5 162 119.5 187> 395 113<235 235 235 243 235 243 235 323> 778 113<235 315>
AnchorPoint: "Anchor-3" 467 532 basechar 0
AnchorPoint: "Anchor-2" 791 27 basechar 0
AnchorPoint: "Anchor-0" 467 0 basechar 0
LayerCount: 2
Fore
SplineSet
225 -12 m 0x7e
 118 -12 42 38 42 133 c 0
 42 241 119 281 212 296 c 2
 395 323 l 1
 394 414 358 454 278 454 c 0
 210 454 172 418 160 365 c 1
 51 372 l 1
 72 478 154 544 277 544 c 0
 362 544 425 518 463 465 c 1
 506 515 569 544 647 544 c 0
 792 544 891 441 891 262 c 2
 891 235 l 1
 508 235 l 1
 514 131 567 79 651 79 c 0
 714 79 756 110 772 160 c 1
 883 153 l 1
 854 54 768 -12 650 -12 c 0
 554 -12 480 30 438 102 c 1
 400 31 324 -12 225 -12 c 0x7e
508 315 m 1
 778 315 l 1
 771 409 720 454 647 454 c 0
 571 454 520 405 508 315 c 1
255 71 m 0
 335 75 395 124 395 216 c 2
 395 243 l 1
 239 221 l 2
 169 211 152 181 152 143 c 0xbe
 152 96 184 68 255 71 c 0
EndSplineSet
EndChar

StartChar: b
Encoding: 98 98 183
Width: 608
GlyphClass: 2
Flags: MW
HStem: -12 92<303 363.5> 0 21G<75 174 75 75> 452 92<303 364.5> 690 20G<75 181 181 181>
VStem: 75 100.5 75 106<208.5 324.5 457 710> 456 110<208.5 324.5>
AnchorPoint: "Anchor-3" 305 532 basechar 0
AnchorPoint: "Anchor-1" 153 266 basechar 0
AnchorPoint: "Anchor-0" 305 0 basechar 0
LayerCount: 2
Fore
SplineSet
340 -12 m 0xb6
 266 -12 207 22 177 80 c 1
 174 0 l 1x7a
 75 0 l 1x76
 75 710 l 1
 181 710 l 1
 181 457 l 1
 208 503 266 544 340 544 c 0
 479 544 566 436 566 266 c 0
 566 96 479 -12 340 -12 c 0xb6
323 80 m 0
 404 80 456 151 456 266 c 0
 456 383 405 452 324 452 c 0
 234 452 181 383 181 266 c 0xb6
 181 151 234 80 323 80 c 0
EndSplineSet
EndChar

StartChar: c
Encoding: 99 99 184
Width: 563
GlyphClass: 2
Flags: MW
HStem: -12 92<249 328 249 359> 452 92<249 327.5>
VStem: 42 110<207.5 324.5 207.5 350>
AnchorPoint: "Anchor-3" 294 532 basechar 0
AnchorPoint: "Anchor-0" 294 0 basechar 0
LayerCount: 2
Fore
SplineSet
294 -12 m 0
 141 -12 42 98 42 266 c 0
 42 434 141 544 294 544 c 0
 423 544 514 474 532 351 c 1
 421 345 l 1
 410 414 361 452 294 452 c 0
 204 452 152 383 152 266 c 0
 152 149 204 80 294 80 c 0
 362 80 411 118 421 195 c 1
 532 189 l 1
 515 67 424 -12 294 -12 c 0
EndSplineSet
EndChar

StartChar: cacute
Encoding: 263 263 185
Width: 563
GlyphClass: 2
Flags: MW
HStem: -12 92<249 328 249 359> 452 92<249 327.5> 596 134<247 422 311 332>
VStem: 42 110<207.5 324.5 207.5 350>
AnchorPoint: "Anchor-3" 294 532 basechar 0
AnchorPoint: "Anchor-0" 294 0 basechar 0
LayerCount: 2
Fore
SplineSet
247 596 m 1
 311 730 l 1
 422 730 l 1
 332 596 l 1
 247 596 l 1
294 -12 m 0
 141 -12 42 98 42 266 c 0
 42 434 141 544 294 544 c 0
 423 544 514 474 532 351 c 1
 421 345 l 1
 410 414 361 452 294 452 c 0
 204 452 152 383 152 266 c 0
 152 149 204 80 294 80 c 0
 362 80 411 118 421 195 c 1
 532 189 l 1
 515 67 424 -12 294 -12 c 0
EndSplineSet
EndChar

StartChar: ccaron
Encoding: 269 269 186
Width: 563
GlyphClass: 2
Flags: MW
HStem: -12 92<249 328 249 359> 452 92<249 327.5> 596 139<147 350 147 239>
VStem: 42 110<207.5 324.5 207.5 350>
AnchorPoint: "Anchor-3" 294 532 basechar 0
AnchorPoint: "Anchor-0" 294 0 basechar 0
LayerCount: 2
Fore
SplineSet
147 735 m 1
 229 735 l 1
 294 646 l 1
 360 735 l 1
 442 735 l 1
 350 596 l 1
 239 596 l 1
 147 735 l 1
294 -12 m 0
 141 -12 42 98 42 266 c 0
 42 434 141 544 294 544 c 0
 423 544 514 474 532 351 c 1
 421 345 l 1
 410 414 361 452 294 452 c 0
 204 452 152 383 152 266 c 0
 152 149 204 80 294 80 c 0
 362 80 411 118 421 195 c 1
 532 189 l 1
 515 67 424 -12 294 -12 c 0
EndSplineSet
EndChar

StartChar: ccedilla
Encoding: 231 231 187
Width: 563
GlyphClass: 2
Flags: MW
HStem: -224 62<267 299.5 267 319> -81 47<263 307> -81 161<263 293> -9 21G<255 255> 452 92<249 327.5>
VStem: 42 110<207.5 324.5 207.5 350> 335 68<-136 -111.5>
AnchorPoint: "Anchor-3" 294 532 basechar 0
AnchorPoint: "Anchor-0" 294 0 basechar 0
LayerCount: 2
Fore
SplineSet
286 -224 m 0xce
 221 -224 180 -190 165 -144 c 1
 221 -122 l 1
 233 -150 251 -162 283 -162 c 0
 316 -162 335 -148 335 -124 c 0
 335 -99 323 -81 263 -81 c 1xce
 231 -48 l 1
 255 -9 l 1x9e
 124 8 42 112 42 266 c 0
 42 434 141 544 294 544 c 0
 423 544 514 474 532 351 c 1
 421 345 l 1
 410 414 361 452 294 452 c 0
 204 452 152 383 152 266 c 0
 152 149 204 80 294 80 c 0xae
 362 80 411 118 421 195 c 1
 532 189 l 1
 516 76 438 0 324 -11 c 1
 307 -34 l 1
 372 -38 403 -75 403 -126 c 0
 403 -187 352 -224 286 -224 c 0xce
EndSplineSet
EndChar

StartChar: ccircumflex
Encoding: 265 265 188
Width: 563
GlyphClass: 2
Flags: MW
HStem: -12 92<249 328 249 359> 452 92<249 327.5> 596 139<147 350 147 350 239 360 239 442>
VStem: 42 110<207.5 324.5 207.5 350>
AnchorPoint: "Anchor-3" 294 532 basechar 0
AnchorPoint: "Anchor-0" 294 0 basechar 0
LayerCount: 2
Fore
SplineSet
147 596 m 1
 239 735 l 1
 350 735 l 1
 442 596 l 1
 360 596 l 1
 294 685 l 1
 229 596 l 1
 147 596 l 1
294 -12 m 0
 141 -12 42 98 42 266 c 0
 42 434 141 544 294 544 c 0
 423 544 514 474 532 351 c 1
 421 345 l 1
 410 414 361 452 294 452 c 0
 204 452 152 383 152 266 c 0
 152 149 204 80 294 80 c 0
 362 80 411 118 421 195 c 1
 532 189 l 1
 515 67 424 -12 294 -12 c 0
EndSplineSet
EndChar

StartChar: cdotaccent
Encoding: 267 267 189
Width: 563
GlyphClass: 2
Flags: MW
HStem: -12 92<249 328 249 359> 452 92<249 327.5> 609 106<239 350 239 350>
VStem: 42 110<207.5 324.5 207.5 350> 239 111<609 715 609 715>
AnchorPoint: "Anchor-3" 294 532 basechar 0
AnchorPoint: "Anchor-0" 294 0 basechar 0
LayerCount: 2
Fore
SplineSet
239 609 m 1
 239 715 l 1
 350 715 l 1
 350 609 l 1
 239 609 l 1
294 -12 m 0
 141 -12 42 98 42 266 c 0
 42 434 141 544 294 544 c 0
 423 544 514 474 532 351 c 1
 421 345 l 1
 410 414 361 452 294 452 c 0
 204 452 152 383 152 266 c 0
 152 149 204 80 294 80 c 0
 362 80 411 118 421 195 c 1
 532 189 l 1
 515 67 424 -12 294 -12 c 0
EndSplineSet
Substitution2: "'ss08' Style Set 8 in Latin lookup 41 subtable" cdotaccent.ss08
Substitution2: "'aalt' Access All Alternates in Latin lookup 0 subtable" cdotaccent.ss08
EndChar

StartChar: d
Encoding: 100 100 190
Width: 608
GlyphClass: 2
Flags: MW
HStem: -12 92<249.5 301> 0 21G<434 533 434 434> 452 92<249.5 300.5 196 335.5> 690 20G<427 533 533 533>
VStem: 42 110<209 324 209 351> 427 106<207.5 325 457 710 0 710> 432.5 100.5
AnchorPoint: "Anchor-4" 561 532 basechar 0
AnchorPoint: "Anchor-3" 303 532 basechar 0
AnchorPoint: "Anchor-1" 441 617 basechar 0
AnchorPoint: "Anchor-0" 303 0 basechar 0
LayerCount: 2
Fore
SplineSet
264 -12 m 0xba
 127 -12 42 95 42 266 c 0
 42 436 128 544 264 544 c 0
 337 544 398 512 427 457 c 1
 427 710 l 1
 533 710 l 1
 533 0 l 1x7c
 434 0 l 1x7a
 431 80 l 1
 401 22 338 -12 264 -12 c 0xba
292 80 m 0
 379 80 427 149 427 266 c 0
 427 384 379 452 292 452 c 0
 207 452 152 382 152 266 c 0xbc
 152 152 207 80 292 80 c 0
EndSplineSet
EndChar

StartChar: dcaron
Encoding: 271 271 191
Width: 688
GlyphClass: 2
Flags: MW
HStem: -12 92<249.5 301> 0 21G<434 533 434 434> 445 265<427 583 613 659> 452 92<249.5 300.5 196 335.5> 690 20G<427 533 533 533 613 712 712 712>
VStem: 42 110<209 324 209 351> 427 106<207.5 325 457 710 0 710> 432.5 100.5
AnchorPoint: "Anchor-4" 561 532 basechar 0
AnchorPoint: "Anchor-3" 303 532 basechar 0
AnchorPoint: "Anchor-1" 441 617 basechar 0
AnchorPoint: "Anchor-0" 303 0 basechar 0
LayerCount: 2
Fore
SplineSet
264 -12 m 0x9d
 127 -12 42 95 42 266 c 0
 42 436 128 544 264 544 c 0
 337 544 398 512 427 457 c 1
 427 710 l 1
 533 710 l 1
 533 0 l 1x5e
 434 0 l 1x5d
 431 80 l 1
 401 22 338 -12 264 -12 c 0x9d
583 445 m 1xa6
 613 710 l 1
 712 710 l 1
 659 445 l 1
 583 445 l 1xa6
292 80 m 0
 379 80 427 149 427 266 c 0
 427 384 379 452 292 452 c 0x9e
 207 452 152 382 152 266 c 0
 152 152 207 80 292 80 c 0
EndSplineSet
EndChar

StartChar: dcroat
Encoding: 273 273 192
Width: 608
GlyphClass: 2
Flags: MW
HStem: -12 92<249.5 301> 0 21G<434 533 434 434> 452 92<249.5 300.5 196 335.5> 580 74<283 427 283 427 533 599> 580 130<283 533 427 533 427 599>
VStem: 42 110<209 324 209 351> 427 106<207.5 325 457 580 0 580 654 710> 432.5 100.5
AnchorPoint: "Anchor-4" 561 532 basechar 0
AnchorPoint: "Anchor-3" 303 532 basechar 0
AnchorPoint: "Anchor-1" 441 617 basechar 0
AnchorPoint: "Anchor-0" 303 0 basechar 0
LayerCount: 2
Fore
SplineSet
264 -12 m 0xad
 127 -12 42 95 42 266 c 0
 42 436 128 544 264 544 c 0
 337 544 398 512 427 457 c 1
 427 580 l 1
 283 580 l 1xae
 283 654 l 1
 427 654 l 1xb6
 427 710 l 1
 533 710 l 1xae
 533 654 l 1
 599 654 l 1xb6
 599 580 l 1
 533 580 l 1
 533 0 l 1x6e
 434 0 l 1x6d
 431 80 l 1
 401 22 338 -12 264 -12 c 0xad
292 80 m 0
 379 80 427 149 427 266 c 0
 427 384 379 452 292 452 c 0
 207 452 152 382 152 266 c 0
 152 152 207 80 292 80 c 0
EndSplineSet
EndChar

StartChar: eth
Encoding: 240 240 193
Width: 588
GlyphClass: 1
Flags: MW
HStem: -12 91<249 339 249 372> 404 91<249 318.5 216 339> 702 20G<195 195>
VStem: 42 110<190.5 293 190.5 320.5> 436 110<193 297>
LayerCount: 2
Fore
SplineSet
294 -12 m 0
 138 -12 42 84 42 242 c 0
 42 399 138 495 294 495 c 0
 343 495 386 480 424 456 c 1
 409 500 388 536 359 564 c 1
 236 518 l 1
 211 583 l 1
 287 612 l 1
 253 626 214 635 168 639 c 1
 195 722 l 1
 276 714 341 689 392 652 c 1
 528 703 l 1
 553 637 l 1
 448 598 l 1
 518 514 546 394 546 258 c 0
 546 84 450 -12 294 -12 c 0
294 79 m 0
 384 79 436 136 436 250 c 0
 436 344 384 404 294 404 c 0
 204 404 152 344 152 242 c 0
 152 139 204 79 294 79 c 0
EndSplineSet
EndChar

StartChar: e
Encoding: 101 101 194
Width: 576
GlyphClass: 2
Flags: MW
HStem: -12 91<252.5 326 252.5 352.5> 235 80<152 422 152 534 152 422> 454 90<253 327>
VStem: 42 110<235 235 235 315 235 350> 422 112<235 315>
AnchorPoint: "Anchor-3" 294 530 basechar 0
AnchorPoint: "Anchor-2" 435 27 basechar 0
AnchorPoint: "Anchor-0" 294 0 basechar 0
LayerCount: 2
Fore
SplineSet
294 -12 m 0
 139 -12 42 98 42 266 c 0
 42 434 139 544 291 544 c 0
 436 544 534 441 534 262 c 2
 534 235 l 1
 152 235 l 1
 157 131 210 79 295 79 c 0
 357 79 399 110 416 160 c 1
 526 153 l 1
 498 54 411 -12 294 -12 c 0
152 315 m 1
 422 315 l 1
 415 409 363 454 291 454 c 0
 215 454 164 405 152 315 c 1
EndSplineSet
EndChar

StartChar: eacute
Encoding: 233 233 195
Width: 576
GlyphClass: 2
Flags: MW
HStem: -12 91<252.5 326 252.5 352.5> 235 80<152 422 152 534 152 422> 454 90<253 327> 594 134<247 422 311 332>
VStem: 42 110<235 235 235 315 235 350> 422 112<235 315>
AnchorPoint: "Anchor-3" 294 530 basechar 0
AnchorPoint: "Anchor-2" 435 27 basechar 0
AnchorPoint: "Anchor-0" 294 0 basechar 0
LayerCount: 2
Fore
SplineSet
247 594 m 1
 311 728 l 1
 422 728 l 1
 332 594 l 1
 247 594 l 1
294 -12 m 0
 139 -12 42 98 42 266 c 0
 42 434 139 544 291 544 c 0
 436 544 534 441 534 262 c 2
 534 235 l 1
 152 235 l 1
 157 131 210 79 295 79 c 0
 357 79 399 110 416 160 c 1
 526 153 l 1
 498 54 411 -12 294 -12 c 0
152 315 m 1
 422 315 l 1
 415 409 363 454 291 454 c 0
 215 454 164 405 152 315 c 1
EndSplineSet
EndChar

StartChar: ecaron
Encoding: 283 283 196
Width: 576
GlyphClass: 2
Flags: MW
HStem: -12 91<252.5 326 252.5 352.5> 235 80<152 422 152 534 152 422> 454 90<253 327> 594 139<147 350 147 239>
VStem: 42 110<235 235 235 315 235 350> 422 112<235 315>
AnchorPoint: "Anchor-3" 294 530 basechar 0
AnchorPoint: "Anchor-2" 435 27 basechar 0
AnchorPoint: "Anchor-0" 294 0 basechar 0
LayerCount: 2
Fore
SplineSet
147 733 m 1
 229 733 l 1
 294 644 l 1
 360 733 l 1
 442 733 l 1
 350 594 l 1
 239 594 l 1
 147 733 l 1
294 -12 m 0
 139 -12 42 98 42 266 c 0
 42 434 139 544 291 544 c 0
 436 544 534 441 534 262 c 2
 534 235 l 1
 152 235 l 1
 157 131 210 79 295 79 c 0
 357 79 399 110 416 160 c 1
 526 153 l 1
 498 54 411 -12 294 -12 c 0
152 315 m 1
 422 315 l 1
 415 409 363 454 291 454 c 0
 215 454 164 405 152 315 c 1
EndSplineSet
EndChar

StartChar: ecircumflex
Encoding: 234 234 197
Width: 576
GlyphClass: 2
Flags: MW
HStem: -12 91<252.5 326 252.5 352.5> 235 80<152 422 152 534 152 422> 454 90<253 327> 594 139<147 350 147 350 239 360 239 442>
VStem: 42 110<235 235 235 315 235 350> 422 112<235 315>
AnchorPoint: "Anchor-3" 294 530 basechar 0
AnchorPoint: "Anchor-2" 435 27 basechar 0
AnchorPoint: "Anchor-0" 294 0 basechar 0
LayerCount: 2
Fore
SplineSet
147 594 m 1
 239 733 l 1
 350 733 l 1
 442 594 l 1
 360 594 l 1
 294 683 l 1
 229 594 l 1
 147 594 l 1
294 -12 m 0
 139 -12 42 98 42 266 c 0
 42 434 139 544 291 544 c 0
 436 544 534 441 534 262 c 2
 534 235 l 1
 152 235 l 1
 157 131 210 79 295 79 c 0
 357 79 399 110 416 160 c 1
 526 153 l 1
 498 54 411 -12 294 -12 c 0
152 315 m 1
 422 315 l 1
 415 409 363 454 291 454 c 0
 215 454 164 405 152 315 c 1
EndSplineSet
EndChar

StartChar: edieresis
Encoding: 235 235 198
Width: 576
GlyphClass: 2
Flags: MW
HStem: -12 91<252.5 326 252.5 352.5> 235 80<152 422 152 534 152 422> 454 90<253 327> 606 106<147 254 147 254 335 441 147 335>
VStem: 42 110<235 235 235 315 235 350> 147 107<606 712 606 712> 335 106<606 712 606 712> 422 112<235 315>
AnchorPoint: "Anchor-3" 294 530 basechar 0
AnchorPoint: "Anchor-2" 435 27 basechar 0
AnchorPoint: "Anchor-0" 294 0 basechar 0
LayerCount: 2
Fore
SplineSet
147 606 m 1xf6
 147 712 l 1
 254 712 l 1
 254 606 l 1
 147 606 l 1xf6
335 606 m 1
 335 712 l 1
 441 712 l 1
 441 606 l 1
 335 606 l 1
294 -12 m 0
 139 -12 42 98 42 266 c 0
 42 434 139 544 291 544 c 0
 436 544 534 441 534 262 c 2
 534 235 l 1
 152 235 l 1xf9
 157 131 210 79 295 79 c 0
 357 79 399 110 416 160 c 1
 526 153 l 1
 498 54 411 -12 294 -12 c 0
152 315 m 1
 422 315 l 1
 415 409 363 454 291 454 c 0
 215 454 164 405 152 315 c 1
EndSplineSet
Substitution2: "'ss08' Style Set 8 in Latin lookup 41 subtable" edieresis.ss08
Substitution2: "'aalt' Access All Alternates in Latin lookup 0 subtable" edieresis.ss08
EndChar

StartChar: edotaccent
Encoding: 279 279 199
Width: 576
GlyphClass: 2
Flags: MW
HStem: -12 91<252.5 326 252.5 352.5> 235 80<152 422 152 534 152 422> 454 90<253 327> 607 106<239 350 239 350>
VStem: 42 110<235 235 235 315 235 350> 239 111<607 713 607 713> 422 112<235 315>
AnchorPoint: "Anchor-3" 294 530 basechar 0
AnchorPoint: "Anchor-2" 435 27 basechar 0
AnchorPoint: "Anchor-0" 294 0 basechar 0
LayerCount: 2
Fore
SplineSet
239 607 m 1
 239 713 l 1
 350 713 l 1
 350 607 l 1
 239 607 l 1
294 -12 m 0
 139 -12 42 98 42 266 c 0
 42 434 139 544 291 544 c 0
 436 544 534 441 534 262 c 2
 534 235 l 1
 152 235 l 1
 157 131 210 79 295 79 c 0
 357 79 399 110 416 160 c 1
 526 153 l 1
 498 54 411 -12 294 -12 c 0
152 315 m 1
 422 315 l 1
 415 409 363 454 291 454 c 0
 215 454 164 405 152 315 c 1
EndSplineSet
Substitution2: "'ss08' Style Set 8 in Latin lookup 41 subtable" edotaccent.ss08
Substitution2: "'aalt' Access All Alternates in Latin lookup 0 subtable" edotaccent.ss08
EndChar

StartChar: egrave
Encoding: 232 232 200
Width: 576
GlyphClass: 2
Flags: MW
HStem: -12 91<252.5 326 252.5 352.5> 235 80<152 422 152 534 152 422> 454 90<253 327> 599 135<258 258 258 279 168 343>
VStem: 42 110<235 235 235 315 235 350> 422 112<235 315>
AnchorPoint: "Anchor-3" 294 530 basechar 0
AnchorPoint: "Anchor-2" 435 27 basechar 0
AnchorPoint: "Anchor-0" 294 0 basechar 0
LayerCount: 2
Fore
SplineSet
258 599 m 1
 168 734 l 1
 279 734 l 1
 343 599 l 1
 258 599 l 1
294 -12 m 0
 139 -12 42 98 42 266 c 0
 42 434 139 544 291 544 c 0
 436 544 534 441 534 262 c 2
 534 235 l 1
 152 235 l 1
 157 131 210 79 295 79 c 0
 357 79 399 110 416 160 c 1
 526 153 l 1
 498 54 411 -12 294 -12 c 0
152 315 m 1
 422 315 l 1
 415 409 363 454 291 454 c 0
 215 454 164 405 152 315 c 1
EndSplineSet
EndChar

StartChar: emacron
Encoding: 275 275 201
Width: 576
GlyphClass: 2
Flags: MW
HStem: -12 91<252.5 326 252.5 352.5> 235 80<152 422 152 534 152 422> 454 90<253 327> 617 85<155 434 155 434>
VStem: 42 110<235 235 235 315 235 350> 155 279<617 702 617 702> 422 112<235 315>
AnchorPoint: "Anchor-3" 294 530 basechar 0
AnchorPoint: "Anchor-2" 435 27 basechar 0
AnchorPoint: "Anchor-0" 294 0 basechar 0
LayerCount: 2
Fore
SplineSet
155 617 m 1xf4
 155 702 l 1
 434 702 l 1
 434 617 l 1
 155 617 l 1xf4
294 -12 m 0
 139 -12 42 98 42 266 c 0
 42 434 139 544 291 544 c 0
 436 544 534 441 534 262 c 2
 534 235 l 1
 152 235 l 1xfa
 157 131 210 79 295 79 c 0
 357 79 399 110 416 160 c 1
 526 153 l 1
 498 54 411 -12 294 -12 c 0
152 315 m 1
 422 315 l 1
 415 409 363 454 291 454 c 0
 215 454 164 405 152 315 c 1
EndSplineSet
EndChar

StartChar: eogonek
Encoding: 281 281 202
Width: 576
GlyphClass: 2
Flags: MW
HStem: -212 75<385 391.5> -12 91<252.5 299.5> 235 80<152 422 152 534 152 422> 454 90<253 327>
VStem: 42 110<235 235 235 315 235 350> 275 90<-117.5 -104.5> 422 112<235 315>
AnchorPoint: "Anchor-3" 294 530 basechar 0
AnchorPoint: "Anchor-2" 435 27 basechar 0
AnchorPoint: "Anchor-0" 294 0 basechar 0
LayerCount: 2
Fore
SplineSet
294 -12 m 0
 139 -12 42 98 42 266 c 0
 42 434 139 544 291 544 c 0
 436 544 534 441 534 262 c 2
 534 235 l 1
 152 235 l 1
 157 131 210 79 295 79 c 0
 357 79 399 110 416 160 c 1
 526 153 l 1
 517 121 502 92 481 68 c 1
 484 68 l 1
 399 -35 l 2
 375 -65 365 -87 365 -107 c 0
 365 -128 377 -137 393 -137 c 0
 411 -137 428 -132 440 -124 c 1
 465 -186 l 1
 449 -201 410 -212 373 -212 c 0
 311 -212 275 -180 275 -126 c 0
 275 -83 292 -50 321 -18 c 1
 327 -10 l 1
 316 -11 305 -12 294 -12 c 0
152 315 m 1
 422 315 l 1
 415 409 363 454 291 454 c 0
 215 454 164 405 152 315 c 1
EndSplineSet
EndChar

StartChar: uni1EBD
Encoding: 7869 7869 203
Width: 576
GlyphClass: 2
Flags: MW
HStem: -12 91<252.5 326 252.5 352.5> 235 80<152 422 152 534 152 422> 454 90<253 327> 605 67<348.5 367.5 348.5 383.5> 657 67<221.5 242>
VStem: 42 110<235 235 235 315 235 350> 132 59<598 598> 396 60<733 733> 422 112<235 315>
AnchorPoint: "Anchor-3" 294 530 basechar 0
AnchorPoint: "Anchor-2" 435 27 basechar 0
AnchorPoint: "Anchor-0" 294 0 basechar 0
LayerCount: 2
Fore
SplineSet
352 605 m 0xf5
 325 605 304 614 280 633 c 0
 260 650 251 657 233 657 c 0
 210 657 194 644 191 598 c 1
 132 598 l 1
 133 679 173 724 232 724 c 0xea80
 264 724 286 713 310 694 c 0
 329 678 341 672 356 672 c 0
 379 672 393 685 396 733 c 1
 456 733 l 1
 453 653 415 605 352 605 c 0xf5
294 -12 m 0
 139 -12 42 98 42 266 c 0
 42 434 139 544 291 544 c 0
 436 544 534 441 534 262 c 2
 534 235 l 1
 152 235 l 1xec80
 157 131 210 79 295 79 c 0
 357 79 399 110 416 160 c 1
 526 153 l 1
 498 54 411 -12 294 -12 c 0
152 315 m 1
 422 315 l 1
 415 409 363 454 291 454 c 0
 215 454 164 405 152 315 c 1
EndSplineSet
EndChar

StartChar: uni0259
Encoding: 601 601 204
Width: 576
GlyphClass: 2
Flags: MW
HStem: -12 90<248.5 323 248.5 361> 217 80<154 424 154 154> 453 91<249.5 323.5>
VStem: 42 112<217 297 217 297> 424 110<217 217 297 297>
AnchorPoint: "Anchor-3" 281 532 basechar 0
AnchorPoint: "Anchor-2" 141 505 basechar 0
AnchorPoint: "Anchor-0" 281 2 basechar 0
LayerCount: 2
Fore
SplineSet
282 544 m 0
 437 544 534 434 534 266 c 0
 534 98 437 -12 285 -12 c 0
 140 -12 42 91 42 270 c 2
 42 297 l 1
 424 297 l 1
 419 401 366 453 281 453 c 0
 218 453 177 422 160 372 c 1
 49 379 l 1
 78 478 164 544 282 544 c 0
424 217 m 1
 154 217 l 1
 161 123 212 78 285 78 c 0
 361 78 412 127 424 217 c 1
EndSplineSet
EndChar

StartChar: f
Encoding: 102 102 205
Width: 412
GlyphClass: 2
Flags: MW
HStem: 0 21G<129 129 129 235> 439 86<55 129 55 129 235 368> 623 87<282 296 296 376>
VStem: 129 106<0 439 0 439 525 560>
AnchorPoint: "Anchor-3" 207 710 basechar 0
AnchorPoint: "Anchor-0" 207 0 basechar 0
LayerCount: 2
Fore
SplineSet
129 0 m 1
 129 439 l 1
 55 439 l 1
 55 525 l 1
 129 525 l 1
 129 566 l 2
 129 654 177 710 282 710 c 2
 376 710 l 1
 376 623 l 1
 296 623 l 2
 254 623 235 600 235 560 c 2
 235 525 l 1
 368 525 l 1
 368 439 l 1
 235 439 l 1
 235 0 l 1
 129 0 l 1
EndSplineSet
EndChar

StartChar: g
Encoding: 103 103 206
Width: 607
GlyphClass: 2
Flags: MW
HStem: -162 88<251.5 333 251.5 363.5> -9 21G<57 57> 27 90<246 305.5> 454 90<245 305 201 330> 512 20G<430 532 532 532>
VStem: 42 110<234 337.5 234 361> 426 106<39 42 42 116 116 116> 430 102<448 532>
AnchorPoint: "Anchor-3" 292 532 basechar 0
AnchorPoint: "Anchor-0" 289 -150 basechar 0
LayerCount: 2
Fore
SplineSet
289 -162 m 0xee
 162 -162 80 -101 57 -9 c 1
 167 -2 l 1
 181 -47 214 -74 289 -74 c 0
 377 -74 426 -38 426 39 c 2
 426 116 l 1
 400 62 340 27 271 27 c 0
 137 27 42 132 42 285 c 0
 42 437 135 544 267 544 c 0xf6
 343 544 404 507 430 448 c 1
 430 532 l 1xed
 532 532 l 1
 532 42 l 2
 532 -89 438 -162 289 -162 c 0xee
288 117 m 0
 371 117 425 181 426 286 c 0
 428 390 372 454 288 454 c 0
 202 454 152 389 152 286 c 0
 152 182 204 117 288 117 c 0
EndSplineSet
EndChar

StartChar: gbreve
Encoding: 287 287 207
Width: 607
GlyphClass: 2
Flags: MW
HStem: -162 88<251.5 333 251.5 363.5> -9 21G<57 57> 27 90<246 305.5> 454 90<245 305 201 330> 512 20G<430 532 532 532> 599 69<270 314 270 334.5>
VStem: 42 110<234 337.5 234 361> 426 106<39 42 42 116 116 116> 430 102<448 532>
AnchorPoint: "Anchor-3" 292 532 basechar 0
AnchorPoint: "Anchor-0" 289 -150 basechar 0
LayerCount: 2
Fore
SplineSet
292 599 m 0xef
 206 599 150 650 146 734 c 1
 214 734 l 1
 219 688 248 668 292 668 c 0
 336 668 363 688 369 734 c 1
 437 734 l 1
 433 650 377 599 292 599 c 0xef
289 -162 m 0
 162 -162 80 -101 57 -9 c 1
 167 -2 l 1
 181 -47 214 -74 289 -74 c 0
 377 -74 426 -38 426 39 c 2
 426 116 l 1
 400 62 340 27 271 27 c 0
 137 27 42 132 42 285 c 0
 42 437 135 544 267 544 c 0xf7
 343 544 404 507 430 448 c 1
 430 532 l 1xee80
 532 532 l 1
 532 42 l 2
 532 -89 438 -162 289 -162 c 0
288 117 m 0
 371 117 425 181 426 286 c 0
 428 390 372 454 288 454 c 0
 202 454 152 389 152 286 c 0
 152 182 204 117 288 117 c 0
EndSplineSet
EndChar

StartChar: gcaron
Encoding: 487 487 208
Width: 607
GlyphClass: 2
Flags: MW
HStem: -162 88<251.5 333 251.5 363.5> -9 21G<57 57> 27 90<246 305.5> 454 90<245 305 201 330> 512 20G<430 532 532 532> 596 139<144 347 144 236>
VStem: 42 110<234 337.5 234 361> 426 106<39 42 42 116 116 116> 430 102<448 532>
AnchorPoint: "Anchor-3" 292 532 basechar 0
AnchorPoint: "Anchor-0" 289 -150 basechar 0
LayerCount: 2
Fore
SplineSet
144 735 m 1xef
 226 735 l 1
 292 646 l 1
 358 735 l 1
 439 735 l 1
 347 596 l 1
 236 596 l 1
 144 735 l 1xef
289 -162 m 0
 162 -162 80 -101 57 -9 c 1
 167 -2 l 1
 181 -47 214 -74 289 -74 c 0
 377 -74 426 -38 426 39 c 2
 426 116 l 1
 400 62 340 27 271 27 c 0
 137 27 42 132 42 285 c 0
 42 437 135 544 267 544 c 0xf7
 343 544 404 507 430 448 c 1
 430 532 l 1xee80
 532 532 l 1
 532 42 l 2
 532 -89 438 -162 289 -162 c 0
288 117 m 0
 371 117 425 181 426 286 c 0
 428 390 372 454 288 454 c 0
 202 454 152 389 152 286 c 0
 152 182 204 117 288 117 c 0
EndSplineSet
EndChar

StartChar: gcircumflex
Encoding: 285 285 209
Width: 607
GlyphClass: 2
Flags: MW
HStem: -162 88<251.5 333 251.5 363.5> -9 21G<57 57> 27 90<246 305.5> 454 90<245 305 201 330> 512 20G<430 532 532 532> 596 139<144 347 144 347 236 358 236 439>
VStem: 42 110<234 337.5 234 361> 426 106<39 42 42 116 116 116> 430 102<448 532>
AnchorPoint: "Anchor-3" 292 532 basechar 0
AnchorPoint: "Anchor-0" 289 -150 basechar 0
LayerCount: 2
Fore
SplineSet
144 596 m 1xef
 236 735 l 1
 347 735 l 1
 439 596 l 1
 358 596 l 1
 292 685 l 1
 226 596 l 1
 144 596 l 1xef
289 -162 m 0
 162 -162 80 -101 57 -9 c 1
 167 -2 l 1
 181 -47 214 -74 289 -74 c 0
 377 -74 426 -38 426 39 c 2
 426 116 l 1
 400 62 340 27 271 27 c 0
 137 27 42 132 42 285 c 0
 42 437 135 544 267 544 c 0xf7
 343 544 404 507 430 448 c 1
 430 532 l 1xee80
 532 532 l 1
 532 42 l 2
 532 -89 438 -162 289 -162 c 0
288 117 m 0
 371 117 425 181 426 286 c 0
 428 390 372 454 288 454 c 0
 202 454 152 389 152 286 c 0
 152 182 204 117 288 117 c 0
EndSplineSet
EndChar

StartChar: uni0123
Encoding: 291 291 210
Width: 607
GlyphClass: 2
Flags: MW
HStem: -162 88<251.5 333 251.5 363.5> -9 21G<57 57> 27 90<246 305.5> 454 90<245 305 201 330> 512 20G<430 532 532 532> 599 99<236 346 310 346 310 346>
VStem: 42 110<234 337.5 234 361> 236 110<599 689 689 689> 426 106<39 42 42 116 116 116> 430 102<448 532>
AnchorPoint: "Anchor-3" 292 532 basechar 0
AnchorPoint: "Anchor-0" 289 -150 basechar 0
LayerCount: 2
Fore
SplineSet
236 599 m 1xef80
 236 689 l 1
 296 792 l 1
 364 792 l 1
 310 698 l 1
 346 698 l 1
 346 599 l 1
 236 599 l 1xef80
289 -162 m 0
 162 -162 80 -101 57 -9 c 1
 167 -2 l 1
 181 -47 214 -74 289 -74 c 0
 377 -74 426 -38 426 39 c 2
 426 116 l 1
 400 62 340 27 271 27 c 0
 137 27 42 132 42 285 c 0
 42 437 135 544 267 544 c 0xf780
 343 544 404 507 430 448 c 1
 430 532 l 1xef40
 532 532 l 1
 532 42 l 2
 532 -89 438 -162 289 -162 c 0
288 117 m 0
 371 117 425 181 426 286 c 0
 428 390 372 454 288 454 c 0
 202 454 152 389 152 286 c 0
 152 182 204 117 288 117 c 0
EndSplineSet
EndChar

StartChar: gdotaccent
Encoding: 289 289 211
Width: 607
GlyphClass: 2
Flags: MW
HStem: -162 88<251.5 333 251.5 363.5> -9 21G<57 57> 27 90<246 305.5> 454 90<245 305 201 330> 512 20G<430 532 532 532> 609 106<237 347 237 347>
VStem: 42 110<234 337.5 234 361> 237 110<609 715 609 715> 426 106<39 42 42 116 116 116> 430 102<448 532>
AnchorPoint: "Anchor-3" 292 532 basechar 0
AnchorPoint: "Anchor-0" 289 -150 basechar 0
LayerCount: 2
Fore
SplineSet
237 609 m 1xef80
 237 715 l 1
 347 715 l 1
 347 609 l 1
 237 609 l 1xef80
289 -162 m 0
 162 -162 80 -101 57 -9 c 1
 167 -2 l 1
 181 -47 214 -74 289 -74 c 0
 377 -74 426 -38 426 39 c 2
 426 116 l 1
 400 62 340 27 271 27 c 0
 137 27 42 132 42 285 c 0
 42 437 135 544 267 544 c 0xf780
 343 544 404 507 430 448 c 1
 430 532 l 1xef40
 532 532 l 1
 532 42 l 2
 532 -89 438 -162 289 -162 c 0
288 117 m 0
 371 117 425 181 426 286 c 0
 428 390 372 454 288 454 c 0
 202 454 152 389 152 286 c 0
 152 182 204 117 288 117 c 0
EndSplineSet
Substitution2: "'ss08' Style Set 8 in Latin lookup 41 subtable" gdotaccent.ss08
Substitution2: "'aalt' Access All Alternates in Latin lookup 0 subtable" gdotaccent.ss08
EndChar

StartChar: uni1E21
Encoding: 7713 7713 212
Width: 607
GlyphClass: 2
Flags: MW
HStem: -162 88<251.5 333 251.5 363.5> -9 21G<57 57> 27 90<246 305.5> 454 90<245 305 201 330> 512 20G<430 532 532 532> 619 85<153 431 153 431>
VStem: 42 110<234 337.5 234 361> 153 278<619 704 619 704> 426 106<39 42 42 116 116 116> 430 102<448 532>
AnchorPoint: "Anchor-3" 292 532 basechar 0
AnchorPoint: "Anchor-0" 289 -150 basechar 0
LayerCount: 2
Fore
SplineSet
153 619 m 1xf5
 153 704 l 1
 431 704 l 1
 431 619 l 1
 153 619 l 1xf5
289 -162 m 0
 162 -162 80 -101 57 -9 c 1
 167 -2 l 1
 181 -47 214 -74 289 -74 c 0
 377 -74 426 -38 426 39 c 2
 426 116 l 1
 400 62 340 27 271 27 c 0
 137 27 42 132 42 285 c 0
 42 437 135 544 267 544 c 0xf680
 343 544 404 507 430 448 c 1
 430 532 l 1xee40
 532 532 l 1
 532 42 l 2xee80
 532 -89 438 -162 289 -162 c 0
288 117 m 0
 371 117 425 181 426 286 c 0
 428 390 372 454 288 454 c 0
 202 454 152 389 152 286 c 0
 152 182 204 117 288 117 c 0
EndSplineSet
EndChar

StartChar: uni01E5
Encoding: 485 485 213
Width: 635
GlyphClass: 2
Flags: MW
HStem: -162 88<251.5 333 251.5 363.5> -9 21G<57 57> 27 90<246 305.5> 243 76<249 422 249 424 532 600> 454 90<245 305 201 325.5> 512 20G<430 532 532 532>
VStem: 42 110<234 337.5 234 361> 426 106<39 42 42 116 116 116> 430 102<448 532>
AnchorPoint: "Anchor-3" 292 532 basechar 0
AnchorPoint: "Anchor-0" 289 -150 basechar 0
LayerCount: 2
Fore
SplineSet
289 -162 m 0xf7
 162 -162 80 -101 57 -9 c 1
 167 -2 l 1
 181 -47 214 -74 289 -74 c 0
 377 -74 426 -38 426 39 c 2
 426 116 l 1
 400 62 340 27 271 27 c 0
 137 27 42 132 42 285 c 0
 42 437 135 544 267 544 c 0xfb
 343 544 404 507 430 448 c 1
 430 532 l 1xf680
 532 532 l 1
 532 319 l 1
 600 319 l 1
 600 243 l 1
 532 243 l 1
 532 42 l 2
 532 -89 438 -162 289 -162 c 0xf7
288 117 m 0
 359 117 409 164 422 243 c 1
 249 243 l 1
 249 319 l 1
 424 319 l 1
 415 403 363 454 288 454 c 0
 202 454 152 389 152 286 c 0
 152 182 204 117 288 117 c 0
EndSplineSet
EndChar

StartChar: h
Encoding: 104 104 214
Width: 591
GlyphClass: 2
Flags: MW
HStem: 0 21G<75 75 75 181 410 410 410 516> 455 89<302 343> 690 20G<75 181 181 181>
VStem: 75 106<0 312 455 710> 410 106<0 314 314 342 0 361.5>
AnchorPoint: "Anchor-3" 129 690 basechar 0
AnchorPoint: "Anchor-1" 164 617 basechar 0
AnchorPoint: "Anchor-0" 296 0 basechar 0
LayerCount: 2
Fore
SplineSet
75 0 m 1
 75 710 l 1
 181 710 l 1
 181 455 l 1
 209 516 267 544 337 544 c 0
 453 544 516 461 516 342 c 2
 516 0 l 1
 410 0 l 1
 410 314 l 2
 410 409 377 455 309 455 c 0
 231 455 181 405 181 312 c 2
 181 0 l 1
 75 0 l 1
EndSplineSet
EndChar

StartChar: hbar
Encoding: 295 295 215
Width: 591
GlyphClass: 2
Flags: MW
HStem: 0 21G<75 75 75 181 410 410 410 516> 455 89<302 343> 580 74<6 75 6 75 181 322> 580 130<6 181 6 181 75 181 75 322>
VStem: 75 106<0 312 455 580 654 710> 410 106<0 314 314 342 0 361.5>
AnchorPoint: "Anchor-3" 129 690 basechar 0
AnchorPoint: "Anchor-1" 164 617 basechar 0
AnchorPoint: "Anchor-0" 296 0 basechar 0
LayerCount: 2
Fore
SplineSet
75 0 m 1xdc
 75 580 l 1
 6 580 l 1xdc
 6 654 l 1
 75 654 l 1xec
 75 710 l 1
 181 710 l 1xdc
 181 654 l 1
 322 654 l 1xec
 322 580 l 1
 181 580 l 1
 181 455 l 1
 209 516 267 544 337 544 c 0
 453 544 516 461 516 342 c 2
 516 0 l 1
 410 0 l 1
 410 314 l 2
 410 409 377 455 309 455 c 0
 231 455 181 405 181 312 c 2
 181 0 l 1
 75 0 l 1xdc
EndSplineSet
EndChar

StartChar: hcircumflex
Encoding: 293 293 216
Width: 591
GlyphClass: 2
Flags: MW
HStem: 0 21G<75 75 75 181 410 410 410 516> 455 89<302 343> 690 20G<75 181 181 181> 754 139<-19 184 -19 184 73 195 73 276>
VStem: 75 106<0 312 455 710> 410 106<0 314 314 342 0 361.5>
AnchorPoint: "Anchor-3" 129 690 basechar 0
AnchorPoint: "Anchor-1" 164 617 basechar 0
AnchorPoint: "Anchor-0" 296 0 basechar 0
LayerCount: 2
Fore
SplineSet
-19 754 m 1
 73 893 l 1
 184 893 l 1
 276 754 l 1
 195 754 l 1
 129 843 l 1
 63 754 l 1
 -19 754 l 1
75 0 m 1
 75 710 l 1
 181 710 l 1
 181 455 l 1
 209 516 267 544 337 544 c 0
 453 544 516 461 516 342 c 2
 516 0 l 1
 410 0 l 1
 410 314 l 2
 410 409 377 455 309 455 c 0
 231 455 181 405 181 312 c 2
 181 0 l 1
 75 0 l 1
EndSplineSet
EndChar

StartChar: i
Encoding: 105 105 217
Width: 256
GlyphClass: 2
Flags: MW
HStem: 0 21G<75 75 75 181> 512 20G<75 181 181 181> 609 106<73 183 73 183>
VStem: 73 110<609 715 609 715> 75 106<0 532 0 532>
AnchorPoint: "Anchor-3" 128 532 basechar 0
AnchorPoint: "Anchor-2" 181 0 basechar 0
AnchorPoint: "Anchor-0" 128 0 basechar 0
LayerCount: 2
Fore
SplineSet
73 609 m 1xf0
 73 715 l 1
 183 715 l 1
 183 609 l 1
 73 609 l 1xf0
75 0 m 1xe8
 75 532 l 1
 181 532 l 1
 181 0 l 1
 75 0 l 1xe8
EndSplineSet
Substitution2: "'ss08' Style Set 8 in Latin lookup 41 subtable" i.ss08
Substitution2: "'locl' Localized Forms in Latin lookup 9 subtable" i.loclTRK
Substitution2: "Single Substitution lookup 3 subtable" dotlessi
AlternateSubs2: "'aalt' Access All Alternates in Latin lookup 1 subtable" i.loclTRK i.ss08
EndChar

StartChar: dotlessi
Encoding: 305 305 218
Width: 256
GlyphClass: 2
Flags: MW
HStem: 0 21G<75 75 75 181> 512 20G<75 181 181 181>
VStem: 75 106<0 532 0 532>
AnchorPoint: "Anchor-3" 128 532 basechar 0
AnchorPoint: "Anchor-2" 181 0 basechar 0
AnchorPoint: "Anchor-0" 128 0 basechar 0
LayerCount: 2
Fore
SplineSet
75 0 m 1
 75 532 l 1
 181 532 l 1
 181 0 l 1
 75 0 l 1
EndSplineSet
EndChar

StartChar: iacute
Encoding: 237 237 219
Width: 256
GlyphClass: 2
Flags: MW
HStem: 0 21G<75 75 75 181> 512 20G<75 181 181 181> 596 134<81 256 144 166>
VStem: 75 106<0 532 0 532>
AnchorPoint: "Anchor-3" 128 532 basechar 0
AnchorPoint: "Anchor-2" 181 0 basechar 0
AnchorPoint: "Anchor-0" 128 0 basechar 0
LayerCount: 2
Fore
SplineSet
81 596 m 1
 144 730 l 1
 256 730 l 1
 166 596 l 1
 81 596 l 1
75 0 m 1
 75 532 l 1
 181 532 l 1
 181 0 l 1
 75 0 l 1
EndSplineSet
EndChar

StartChar: icircumflex
Encoding: 238 238 220
Width: 256
GlyphClass: 2
Flags: MW
HStem: 0 21G<75 75 75 181> 512 20G<75 181 181 181> 596 139<-19 184 -19 184 73 194 73 276>
VStem: 75 106<0 532 0 532>
AnchorPoint: "Anchor-3" 128 532 basechar 0
AnchorPoint: "Anchor-2" 181 0 basechar 0
AnchorPoint: "Anchor-0" 128 0 basechar 0
LayerCount: 2
Fore
SplineSet
-19 596 m 1
 73 735 l 1
 184 735 l 1
 276 596 l 1
 194 596 l 1
 128 685 l 1
 62 596 l 1
 -19 596 l 1
75 0 m 1
 75 532 l 1
 181 532 l 1
 181 0 l 1
 75 0 l 1
EndSplineSet
EndChar

StartChar: idieresis
Encoding: 239 239 221
Width: 256
GlyphClass: 2
Flags: MW
HStem: 0 21G<75 75 75 181> 512 20G<75 181 181 181> 608 106<-19 88 -19 88 169 275 -19 169>
VStem: -19 107<608 714 608 714> 75 106<0 532 0 532> 169 106<608 714 608 714>
AnchorPoint: "Anchor-3" 128 532 basechar 0
AnchorPoint: "Anchor-2" 181 0 basechar 0
AnchorPoint: "Anchor-0" 128 0 basechar 0
LayerCount: 2
Fore
SplineSet
-19 608 m 1xf4
 -19 714 l 1
 88 714 l 1
 88 608 l 1
 -19 608 l 1xf4
169 608 m 1
 169 714 l 1
 275 714 l 1
 275 608 l 1
 169 608 l 1
75 0 m 1xe8
 75 532 l 1
 181 532 l 1
 181 0 l 1
 75 0 l 1xe8
EndSplineSet
Substitution2: "'ss08' Style Set 8 in Latin lookup 41 subtable" idieresis.ss08
Substitution2: "'aalt' Access All Alternates in Latin lookup 0 subtable" idieresis.ss08
EndChar

StartChar: i.loclTRK
Encoding: 65576 -1 222
Width: 256
GlyphClass: 2
Flags: MW
HStem: 0 21G<75 75 75 181> 512 20G<75 181 181 181> 609 106<73 183 73 183>
VStem: 73 110<609 715 609 715> 75 106<0 532 0 532>
AnchorPoint: "Anchor-3" 128 532 basechar 0
AnchorPoint: "Anchor-2" 181 0 basechar 0
AnchorPoint: "Anchor-0" 128 0 basechar 0
LayerCount: 2
Fore
SplineSet
73 609 m 1xf0
 73 715 l 1
 183 715 l 1
 183 609 l 1
 73 609 l 1xf0
75 0 m 1xe8
 75 532 l 1
 181 532 l 1
 181 0 l 1
 75 0 l 1xe8
EndSplineSet
Substitution2: "'ss08' Style Set 8 in Latin lookup 41 subtable" i.loclTRK.ss08
Substitution2: "'aalt' Access All Alternates in Latin lookup 0 subtable" i.loclTRK.ss08
EndChar

StartChar: igrave
Encoding: 236 236 223
Width: 256
GlyphClass: 2
Flags: MW
HStem: 0 21G<75 75 75 181> 512 20G<75 181 181 181> 601 135<92 92 92 113 2 176>
VStem: 75 106<0 532 0 532>
AnchorPoint: "Anchor-3" 128 532 basechar 0
AnchorPoint: "Anchor-2" 181 0 basechar 0
AnchorPoint: "Anchor-0" 128 0 basechar 0
LayerCount: 2
Fore
SplineSet
92 601 m 1
 2 736 l 1
 113 736 l 1
 176 601 l 1
 92 601 l 1
75 0 m 1
 75 532 l 1
 181 532 l 1
 181 0 l 1
 75 0 l 1
EndSplineSet
EndChar

StartChar: imacron
Encoding: 299 299 224
Width: 256
GlyphClass: 2
Flags: MW
HStem: 0 21G<75 75 75 181> 512 20G<75 181 181 181> 619 85<-11 267 -11 267>
VStem: 75 106<0 532 0 532>
AnchorPoint: "Anchor-3" 128 532 basechar 0
AnchorPoint: "Anchor-2" 181 0 basechar 0
AnchorPoint: "Anchor-0" 128 0 basechar 0
LayerCount: 2
Fore
SplineSet
-11 619 m 1
 -11 704 l 1
 267 704 l 1
 267 619 l 1
 -11 619 l 1
75 0 m 1
 75 532 l 1
 181 532 l 1
 181 0 l 1
 75 0 l 1
EndSplineSet
EndChar

StartChar: iogonek
Encoding: 303 303 225
Width: 256
GlyphClass: 2
Flags: MW
HStem: -212 75<137 143> 0 21G<75 75 75 95 181 181> 512 20G<75 181 181 181> 609 106<73 183 73 183>
VStem: 24 93<-120 -117.5> 73 110<609 715 609 715> 75 106<0 532 0 532>
AnchorPoint: "Anchor-3" 128 532 basechar 0
AnchorPoint: "Anchor-2" 181 0 basechar 0
AnchorPoint: "Anchor-0" 128 0 basechar 0
LayerCount: 2
Fore
SplineSet
73 609 m 1xf4
 73 715 l 1
 183 715 l 1
 183 609 l 1
 73 609 l 1xf4
75 0 m 1xf2
 75 532 l 1
 181 532 l 1
 181 0 l 1xf2
 148 -45 l 2
 125 -77 117 -95 117 -112 c 0
 117 -128 129 -137 145 -137 c 0
 163 -137 180 -132 192 -124 c 1
 217 -186 l 1
 201 -201 162 -212 124 -212 c 0
 62 -212 24 -186 24 -137 c 0xf8
 24 -98 53 -57 79 -21 c 2
 95 0 l 1
 75 0 l 1xf2
EndSplineSet
Substitution2: "'ss08' Style Set 8 in Latin lookup 41 subtable" iogonek.ss08
Substitution2: "'aalt' Access All Alternates in Latin lookup 0 subtable" iogonek.ss08
EndChar

StartChar: itilde
Encoding: 297 297 226
Width: 256
GlyphClass: 2
Flags: MW
HStem: 0 21G<75 75 75 181> 512 20G<75 181 181 181> 607 67<182.5 201.5 182.5 217> 659 67<55.5 76>
VStem: -34 59<600 600> 75 106<0 532 0 532> 230 60<735 735>
AnchorPoint: "Anchor-3" 128 532 basechar 0
AnchorPoint: "Anchor-2" 181 0 basechar 0
AnchorPoint: "Anchor-0" 128 0 basechar 0
LayerCount: 2
Fore
SplineSet
186 607 m 0xe6
 159 607 137 616 114 635 c 0
 94 652 85 659 67 659 c 0
 44 659 28 646 25 600 c 1
 -34 600 l 1
 -33 681 7 726 66 726 c 0xdc
 98 726 120 715 144 696 c 0
 163 680 175 674 190 674 c 0
 213 674 227 687 230 735 c 1
 290 735 l 1
 287 655 248 607 186 607 c 0xe6
75 0 m 1
 75 532 l 1
 181 532 l 1
 181 0 l 1
 75 0 l 1
EndSplineSet
EndChar

StartChar: ij
Encoding: 307 307 227
Width: 524
GlyphClass: 2
Flags: MW
HStem: -150 87<236 284 236 284 284 300> 0 21G<75 75 75 181> 512 20G<75 181 181 181 343 449 449 449> 609 106<73 183 73 183 341 451>
VStem: 73 110<609 715 609 715> 75 106<0 532 0 532> 341 110<609 715 609 715> 343 106<-5 532>
AnchorPoint: "Anchor-3" 396 532 basechar 0
AnchorPoint: "Anchor-2" 181 0 basechar 0
AnchorPoint: "Anchor-0" 382 -150 basechar 0
LayerCount: 2
Fore
SplineSet
73 609 m 1xfa
 73 715 l 1
 183 715 l 1
 183 609 l 1
 73 609 l 1xfa
341 609 m 1
 341 715 l 1
 451 715 l 1
 451 609 l 1
 341 609 l 1
75 0 m 1xf5
 75 532 l 1
 181 532 l 1
 181 0 l 1
 75 0 l 1xf5
236 -150 m 1
 236 -63 l 1
 284 -63 l 2
 321 -63 343 -50 343 -5 c 2
 343 532 l 1
 449 532 l 1
 449 -9 l 2
 449 -111 408 -150 300 -150 c 2
 236 -150 l 1
EndSplineSet
Substitution2: "'ss08' Style Set 8 in Latin lookup 41 subtable" ij.ss08
Substitution2: "'aalt' Access All Alternates in Latin lookup 0 subtable" ij.ss08
EndChar

StartChar: j
Encoding: 106 106 228
Width: 284
GlyphClass: 2
Flags: MW
HStem: -150 87<-4 44 -4 44 44 60> 512 20G<102 209 209 209> 609 106<100 211 100 211>
VStem: 100 111<609 715 609 715> 102 107<-5 532>
AnchorPoint: "Anchor-3" 156 532 basechar 0
AnchorPoint: "Anchor-0" 142 -150 basechar 0
LayerCount: 2
Fore
SplineSet
100 609 m 1xf0
 100 715 l 1
 211 715 l 1
 211 609 l 1
 100 609 l 1xf0
-4 -150 m 1
 -4 -63 l 1
 44 -63 l 2
 80 -63 102 -50 102 -5 c 2
 102 532 l 1
 209 532 l 1
 209 -9 l 2xe8
 209 -111 167 -150 60 -150 c 2
 -4 -150 l 1
EndSplineSet
Substitution2: "'ss08' Style Set 8 in Latin lookup 41 subtable" j.ss08
Substitution2: "Single Substitution lookup 16 subtable" uni006A0301
Substitution2: "Single Substitution lookup 3 subtable" uni0237
AlternateSubs2: "'aalt' Access All Alternates in Latin lookup 1 subtable" uni006A0301 j.ss08
EndChar

StartChar: uni0237
Encoding: 567 567 229
Width: 284
GlyphClass: 2
Flags: MW
HStem: -150 87<-4 44 -4 44 44 60> 512 20G<102 209 209 209>
VStem: 102 107<-5 532>
AnchorPoint: "Anchor-3" 156 532 basechar 0
AnchorPoint: "Anchor-0" 142 -150 basechar 0
LayerCount: 2
Fore
SplineSet
-4 -150 m 1
 -4 -63 l 1
 44 -63 l 2
 80 -63 102 -50 102 -5 c 2
 102 532 l 1
 209 532 l 1
 209 -9 l 2
 209 -111 167 -150 60 -150 c 2
 -4 -150 l 1
EndSplineSet
EndChar

StartChar: uni006A0301
Encoding: 65577 -1 230
Width: 284
GlyphClass: 2
Flags: MW
HStem: -150 87<-4 44 -4 44 44 60> 512 20G<102 209 209 209> 596 134<108 283 172 193>
VStem: 102 107<-5 532>
AnchorPoint: "Anchor-3" 156 532 basechar 0
AnchorPoint: "Anchor-0" 142 -150 basechar 0
LayerCount: 2
Fore
SplineSet
108 596 m 1
 172 730 l 1
 283 730 l 1
 193 596 l 1
 108 596 l 1
-4 -150 m 1
 -4 -63 l 1
 44 -63 l 2
 80 -63 102 -50 102 -5 c 2
 102 532 l 1
 209 532 l 1
 209 -9 l 2
 209 -111 167 -150 60 -150 c 2
 -4 -150 l 1
EndSplineSet
EndChar

StartChar: jcircumflex
Encoding: 309 309 231
Width: 284
GlyphClass: 2
Flags: MW
HStem: -150 87<-4 44 -4 44 44 60> 512 20G<102 209 209 209> 596 139<8 211 8 211 100 221 100 303>
VStem: 102 107<-5 532>
AnchorPoint: "Anchor-3" 156 532 basechar 0
AnchorPoint: "Anchor-0" 142 -150 basechar 0
LayerCount: 2
Fore
SplineSet
8 596 m 1
 100 735 l 1
 211 735 l 1
 303 596 l 1
 221 596 l 1
 156 685 l 1
 90 596 l 1
 8 596 l 1
-4 -150 m 1
 -4 -63 l 1
 44 -63 l 2
 80 -63 102 -50 102 -5 c 2
 102 532 l 1
 209 532 l 1
 209 -9 l 2
 209 -111 167 -150 60 -150 c 2
 -4 -150 l 1
EndSplineSet
EndChar

StartChar: k
Encoding: 107 107 232
Width: 609
GlyphClass: 2
Flags: MW
HStem: 0 21G<75 75 75 181 440 440 440 562> 512 20G<420 554 554 554> 690 20G<75 181 181 181>
VStem: 75 106<0 142 269 710>
AnchorPoint: "Anchor-3" 128 676 basechar 0
AnchorPoint: "Anchor-0" 302 0 basechar 0
LayerCount: 2
Fore
SplineSet
75 0 m 1
 75 710 l 1
 181 710 l 1
 181 269 l 1
 420 532 l 1
 554 532 l 1
 346 308 l 1
 562 0 l 1
 440 0 l 1
 275 242 l 1
 181 142 l 1
 181 0 l 1
 75 0 l 1
EndSplineSet
EndChar

StartChar: uni01E9
Encoding: 489 489 233
Width: 609
GlyphClass: 2
Flags: MW
HStem: 0 21G<75 75 75 181 440 440 440 562> 512 20G<420 554 554 554> 690 20G<75 181 181 181> 740 139<-19 184 -19 73>
VStem: 75 106<0 142 269 710>
AnchorPoint: "Anchor-3" 128 676 basechar 0
AnchorPoint: "Anchor-0" 302 0 basechar 0
LayerCount: 2
Fore
SplineSet
-19 879 m 1
 62 879 l 1
 128 790 l 1
 194 879 l 1
 276 879 l 1
 184 740 l 1
 73 740 l 1
 -19 879 l 1
75 0 m 1
 75 710 l 1
 181 710 l 1xe8
 181 269 l 1
 420 532 l 1
 554 532 l 1
 346 308 l 1
 562 0 l 1
 440 0 l 1
 275 242 l 1
 181 142 l 1
 181 0 l 1
 75 0 l 1
EndSplineSet
EndChar

StartChar: uni0137
Encoding: 311 311 234
Width: 609
GlyphClass: 2
Flags: MW
HStem: -150 98<247 283 247 357> 0 21G<75 75 75 181 440 440 440 562> 512 20G<420 554 554 554> 690 20G<75 181 181 181>
VStem: 75 106<0 142 269 710> 247 110<-141 -52 -141 -52 -141 -52>
AnchorPoint: "Anchor-3" 128 676 basechar 0
AnchorPoint: "Anchor-0" 302 -244 basechar 0
LayerCount: 2
Fore
SplineSet
75 0 m 1
 75 710 l 1
 181 710 l 1
 181 269 l 1
 420 532 l 1
 554 532 l 1
 346 308 l 1
 562 0 l 1
 440 0 l 1
 275 242 l 1
 181 142 l 1
 181 0 l 1
 75 0 l 1
229 -244 m 1
 283 -150 l 1
 247 -150 l 1
 247 -52 l 1
 357 -52 l 1
 357 -141 l 1
 297 -244 l 1
 229 -244 l 1
EndSplineSet
EndChar

StartChar: l
Encoding: 108 108 235
Width: 282
GlyphClass: 2
Flags: MW
HStem: 0 87<156 260 218 260 218 260> 690 20G<75 181 181 181>
VStem: 75 106<113 123 123 710>
AnchorPoint: "Anchor-4" 207 532 basechar 0
AnchorPoint: "Anchor-3" 128 676 basechar 0
AnchorPoint: "Anchor-1" 132 400 basechar 0
AnchorPoint: "Anchor-0" 171 0 basechar 0
LayerCount: 2
Fore
SplineSet
191 0 m 2
 121 0 75 34 75 113 c 2
 75 710 l 1
 181 710 l 1
 181 123 l 2
 181 98 194 87 218 87 c 2
 260 87 l 1
 260 0 l 1
 191 0 l 2
EndSplineSet
Substitution2: "'ss03' Style Set 3 in Latin lookup 36 subtable" l.ss03
Substitution2: "'aalt' Access All Alternates in Latin lookup 0 subtable" l.ss03
EndChar

StartChar: lacute
Encoding: 314 314 236
Width: 282
GlyphClass: 2
Flags: MW
HStem: 0 87<156 260 218 260 218 260> 690 20G<75 181 181 181> 740 134<81 256 144 166>
VStem: 75 106<113 123 123 710>
AnchorPoint: "Anchor-4" 207 532 basechar 0
AnchorPoint: "Anchor-3" 128 676 basechar 0
AnchorPoint: "Anchor-1" 132 400 basechar 0
AnchorPoint: "Anchor-0" 171 0 basechar 0
LayerCount: 2
Fore
SplineSet
81 740 m 1
 144 874 l 1
 256 874 l 1
 166 740 l 1
 81 740 l 1
191 0 m 2
 121 0 75 34 75 113 c 2
 75 710 l 1
 181 710 l 1xd0
 181 123 l 2
 181 98 194 87 218 87 c 2
 260 87 l 1
 260 0 l 1
 191 0 l 2
EndSplineSet
Substitution2: "'ss03' Style Set 3 in Latin lookup 36 subtable" lacute.ss03
Substitution2: "'aalt' Access All Alternates in Latin lookup 0 subtable" lacute.ss03
EndChar

StartChar: lcaron
Encoding: 318 318 237
Width: 342
GlyphClass: 2
Flags: MW
HStem: 0 87<156 260 218 260 218 260> 445 265<75 237 267 313> 690 20G<75 181 181 181 267 366 366 366>
VStem: 75 106<113 123 123 710>
AnchorPoint: "Anchor-4" 207 532 basechar 0
AnchorPoint: "Anchor-3" 128 676 basechar 0
AnchorPoint: "Anchor-1" 132 400 basechar 0
AnchorPoint: "Anchor-0" 171 0 basechar 0
LayerCount: 2
Fore
SplineSet
191 0 m 2xb0
 121 0 75 34 75 113 c 2
 75 710 l 1
 181 710 l 1
 181 123 l 2
 181 98 194 87 218 87 c 2
 260 87 l 1
 260 0 l 1
 191 0 l 2xb0
237 445 m 1xd0
 267 710 l 1
 366 710 l 1
 313 445 l 1
 237 445 l 1xd0
EndSplineSet
Substitution2: "'ss03' Style Set 3 in Latin lookup 36 subtable" lcaron.ss03
Substitution2: "'aalt' Access All Alternates in Latin lookup 0 subtable" lcaron.ss03
EndChar

StartChar: uni013C
Encoding: 316 316 238
Width: 282
GlyphClass: 2
Flags: MW
HStem: -150 98<116 152 116 226> 0 87<156 260 218 260 218 260> 690 20G<75 181 181 181>
VStem: 75 106<113 123 123 710> 116 110<-141 -52 -141 -52 -141 -52> 116 144<-150 87 -52 87>
AnchorPoint: "Anchor-4" 207 532 basechar 0
AnchorPoint: "Anchor-3" 128 676 basechar 0
AnchorPoint: "Anchor-1" 132 400 basechar 0
AnchorPoint: "Anchor-0" 171 -244 basechar 0
LayerCount: 2
Fore
SplineSet
191 0 m 2xe4
 121 0 75 34 75 113 c 2
 75 710 l 1
 181 710 l 1
 181 123 l 2xf0
 181 98 194 87 218 87 c 2
 260 87 l 1
 260 0 l 1
 191 0 l 2xe4
98 -244 m 1
 152 -150 l 1
 116 -150 l 1
 116 -52 l 1
 226 -52 l 1
 226 -141 l 1xe8
 166 -244 l 1
 98 -244 l 1
EndSplineSet
Substitution2: "'ss03' Style Set 3 in Latin lookup 36 subtable" uni013C.ss03
Substitution2: "'locl' Localized Forms in Latin lookup 11 subtable" uni013C.loclMAH
AlternateSubs2: "'aalt' Access All Alternates in Latin lookup 1 subtable" uni013C.loclMAH uni013C.ss03
EndChar

StartChar: lslash
Encoding: 322 322 239
Width: 282
GlyphClass: 2
Flags: MW
HStem: 0 87<156 260 218 260 218 260> 690 20G<75 181 181 181>
VStem: 75 106<113 123 123 335 335 335 461 710>
AnchorPoint: "Anchor-4" 207 532 basechar 0
AnchorPoint: "Anchor-3" 128 676 basechar 0
AnchorPoint: "Anchor-1" 132 400 basechar 0
AnchorPoint: "Anchor-0" 171 0 basechar 0
LayerCount: 2
Fore
SplineSet
191 0 m 2
 121 0 75 34 75 113 c 2
 75 335 l 1
 5 302 l 1
 5 378 l 1
 75 412 l 1
 75 710 l 1
 181 710 l 1
 181 461 l 1
 260 498 l 1
 260 422 l 1
 181 385 l 1
 181 123 l 2
 181 98 194 87 218 87 c 2
 260 87 l 1
 260 0 l 1
 191 0 l 2
EndSplineSet
Substitution2: "'ss03' Style Set 3 in Latin lookup 36 subtable" lslash.ss03
Substitution2: "'aalt' Access All Alternates in Latin lookup 0 subtable" lslash.ss03
EndChar

StartChar: m
Encoding: 109 109 240
Width: 885
GlyphClass: 2
Flags: MW
HStem: 0 21G<75 75 75 181 391 391 391 492 703 703 703 809> 455 89<288.5 327.5 595 636> 512 20G<75 172 172 172>
VStem: 75 98 75 106<0 312 0 532> 391 101<0 312 0 357> 703 106<0 316 316 342 0 362>
AnchorPoint: "Anchor-3" 442 532 basechar 0
AnchorPoint: "Anchor-0" 442 0 basechar 0
LayerCount: 2
Fore
SplineSet
75 0 m 1xce
 75 532 l 1xae
 172 532 l 1xb6
 174 441 l 1xd6
 200 506 255 544 322 544 c 0
 401 544 456 503 479 434 c 1
 503 505 557 544 633 544 c 0
 745 544 809 472 809 342 c 2
 809 0 l 1
 703 0 l 1
 703 316 l 2
 703 408 670 455 602 455 c 0
 535 455 492 402 492 312 c 2
 492 0 l 1
 391 0 l 1
 391 312 l 2
 391 402 363 455 292 455 c 0
 224 455 181 401 181 312 c 2
 181 0 l 1
 75 0 l 1xce
EndSplineSet
EndChar

StartChar: n
Encoding: 110 110 241
Width: 591
GlyphClass: 2
Flags: MW
HStem: 0 21G<75 75 75 181 410 410 410 516> 455 89<299.5 344> 512 20G<75 172 172 172>
VStem: 75 98 75 106<0 310 0 532> 410 106<0 310 310 342 0 357>
AnchorPoint: "Anchor-3" 296 532 basechar 0
AnchorPoint: "Anchor-0" 296 0 basechar 0
LayerCount: 2
Fore
SplineSet
75 0 m 1xcc
 75 532 l 1xac
 172 532 l 1xb4
 174 439 l 1xd4
 202 512 263 544 336 544 c 0
 455 544 516 458 516 342 c 2
 516 0 l 1
 410 0 l 1
 410 310 l 2
 410 404 381 455 307 455 c 0
 232 455 181 404 181 310 c 2
 181 0 l 1
 75 0 l 1xcc
EndSplineSet
EndChar

StartChar: nacute
Encoding: 324 324 242
Width: 591
GlyphClass: 2
Flags: MW
HStem: 0 21G<75 75 75 181 410 410 410 516> 455 89<299.5 344> 512 20G<75 172 172 172> 596 134<248 423 312 333>
VStem: 75 98 75 106<0 310 0 532> 410 106<0 310 310 342 0 357>
AnchorPoint: "Anchor-3" 296 532 basechar 0
AnchorPoint: "Anchor-0" 296 0 basechar 0
LayerCount: 2
Fore
SplineSet
248 596 m 1xd6
 312 730 l 1
 423 730 l 1
 333 596 l 1
 248 596 l 1xd6
75 0 m 1
 75 532 l 1xb6
 172 532 l 1xba
 174 439 l 1xda
 202 512 263 544 336 544 c 0
 455 544 516 458 516 342 c 2
 516 0 l 1
 410 0 l 1
 410 310 l 2
 410 404 381 455 307 455 c 0
 232 455 181 404 181 310 c 2
 181 0 l 1
 75 0 l 1
EndSplineSet
EndChar

StartChar: ncaron
Encoding: 328 328 243
Width: 591
GlyphClass: 2
Flags: MW
HStem: 0 21G<75 75 75 181 410 410 410 516> 455 89<299.5 344> 512 20G<75 172 172 172> 596 139<148 351 148 240>
VStem: 75 98 75 106<0 310 0 532> 410 106<0 310 310 342 0 357>
AnchorPoint: "Anchor-3" 296 532 basechar 0
AnchorPoint: "Anchor-0" 296 0 basechar 0
LayerCount: 2
Fore
SplineSet
148 735 m 1xd6
 230 735 l 1
 296 646 l 1
 362 735 l 1
 443 735 l 1
 351 596 l 1
 240 596 l 1
 148 735 l 1xd6
75 0 m 1
 75 532 l 1xb6
 172 532 l 1xba
 174 439 l 1xda
 202 512 263 544 336 544 c 0
 455 544 516 458 516 342 c 2
 516 0 l 1
 410 0 l 1
 410 310 l 2
 410 404 381 455 307 455 c 0
 232 455 181 404 181 310 c 2
 181 0 l 1
 75 0 l 1
EndSplineSet
EndChar

StartChar: uni0146
Encoding: 326 326 244
Width: 591
GlyphClass: 2
Flags: MW
HStem: -150 98<241 276 241 351> 0 21G<75 75 75 181 410 410 410 516> 455 89<299.5 344> 512 20G<75 172 172 172>
VStem: 75 98 75 106<0 310 0 532> 241 110<-141 -52 -141 -52 -141 -52> 410 106<0 310 310 342 0 357>
AnchorPoint: "Anchor-3" 296 532 basechar 0
AnchorPoint: "Anchor-0" 296 -244 basechar 0
LayerCount: 2
Fore
SplineSet
75 0 m 1xe7
 75 532 l 1xd7
 172 532 l 1xdb
 174 439 l 1xeb
 202 512 263 544 336 544 c 0
 455 544 516 458 516 342 c 2
 516 0 l 1
 410 0 l 1
 410 310 l 2
 410 404 381 455 307 455 c 0
 232 455 181 404 181 310 c 2
 181 0 l 1
 75 0 l 1xe7
222 -244 m 1
 276 -150 l 1
 241 -150 l 1
 241 -52 l 1
 351 -52 l 1
 351 -141 l 1
 290 -244 l 1
 222 -244 l 1
EndSplineSet
Substitution2: "'locl' Localized Forms in Latin lookup 11 subtable" uni0146.loclMAH
Substitution2: "'aalt' Access All Alternates in Latin lookup 0 subtable" uni0146.loclMAH
EndChar

StartChar: ntilde
Encoding: 241 241 245
Width: 591
GlyphClass: 2
Flags: MW
HStem: 0 21G<75 75 75 181 410 410 410 516> 455 89<299.5 344> 512 20G<75 172 172 172> 607 67<350 369 350 385> 659 67<223 243>
VStem: 75 98 75 106<0 310 0 532> 133 60<600 600> 398 59<735 735> 410 106<0 310 310 342 0 357>
AnchorPoint: "Anchor-3" 296 532 basechar 0
AnchorPoint: "Anchor-0" 296 0 basechar 0
LayerCount: 2
Fore
SplineSet
354 607 m 0xd280
 326 607 305 616 282 635 c 0
 261 652 252 659 234 659 c 0
 212 659 195 646 193 600 c 1
 133 600 l 1
 135 681 174 726 233 726 c 0xc940
 265 726 287 715 311 696 c 0
 331 680 343 674 357 674 c 0
 381 674 394 687 398 735 c 1
 457 735 l 1
 454 655 416 607 354 607 c 0xd280
75 0 m 1xca40
 75 532 l 1xaa40
 172 532 l 1xac40
 174 439 l 1xcc40
 202 512 263 544 336 544 c 0
 455 544 516 458 516 342 c 2
 516 0 l 1
 410 0 l 1
 410 310 l 2
 410 404 381 455 307 455 c 0
 232 455 181 404 181 310 c 2
 181 0 l 1
 75 0 l 1xca40
EndSplineSet
EndChar

StartChar: eng
Encoding: 331 331 246
Width: 591
GlyphClass: 2
Flags: MW
HStem: -150 83<272 347 347 360 272 347> 0 21G<75 75 75 181> 455 89<299.5 344> 512 20G<75 172 172 172>
VStem: 75 98 75 106<0 310 0 532> 410 106<-2 310 310 342>
AnchorPoint: "Anchor-3" 296 532 basechar 0
AnchorPoint: "Anchor-0" 296 0 basechar 0
LayerCount: 2
Fore
SplineSet
75 0 m 1xe6
 75 532 l 1xd6
 172 532 l 1xda
 174 439 l 1xea
 202 512 263 544 336 544 c 0
 455 544 516 458 516 342 c 2
 516 -6 l 2
 516 -92 456 -150 360 -150 c 2
 272 -150 l 1
 272 -67 l 1
 347 -67 l 2
 386 -67 410 -41 410 -2 c 2
 410 310 l 2
 410 404 381 455 307 455 c 0
 232 455 181 404 181 310 c 2
 181 0 l 1
 75 0 l 1xe6
EndSplineSet
EndChar

StartChar: o
Encoding: 111 111 247
Width: 588
GlyphClass: 2
Flags: MW
HStem: -12 92<249 339 249 370> 452 92<249 339>
VStem: 42 110<207.5 324.5 207.5 350.5> 436 110<207.5 324.5>
AnchorPoint: "Anchor-3" 294 532 basechar 0
AnchorPoint: "Anchor-1" 294 266 basechar 0
AnchorPoint: "Anchor-0" 294 0 basechar 0
LayerCount: 2
Fore
SplineSet
294 -12 m 0
 142 -12 42 97 42 266 c 0
 42 435 142 544 294 544 c 0
 446 544 546 435 546 266 c 0
 546 97 446 -12 294 -12 c 0
294 80 m 0
 384 80 436 149 436 266 c 0
 436 383 384 452 294 452 c 0
 204 452 152 383 152 266 c 0
 152 149 204 80 294 80 c 0
EndSplineSet
Substitution2: "Single Substitution lookup 27 subtable" ordmasculine
Substitution2: "'aalt' Access All Alternates in Latin lookup 0 subtable" ordmasculine
EndChar

StartChar: oacute
Encoding: 243 243 248
Width: 588
GlyphClass: 2
Flags: MW
HStem: -12 92<249 339 249 370> 452 92<249 339> 596 134<247 422 311 332>
VStem: 42 110<207.5 324.5 207.5 350.5> 436 110<207.5 324.5>
AnchorPoint: "Anchor-3" 294 532 basechar 0
AnchorPoint: "Anchor-1" 294 266 basechar 0
AnchorPoint: "Anchor-0" 294 0 basechar 0
LayerCount: 2
Fore
SplineSet
247 596 m 1
 311 730 l 1
 422 730 l 1
 332 596 l 1
 247 596 l 1
294 -12 m 0
 142 -12 42 97 42 266 c 0
 42 435 142 544 294 544 c 0
 446 544 546 435 546 266 c 0
 546 97 446 -12 294 -12 c 0
294 80 m 0
 384 80 436 149 436 266 c 0
 436 383 384 452 294 452 c 0
 204 452 152 383 152 266 c 0
 152 149 204 80 294 80 c 0
EndSplineSet
EndChar

StartChar: ocircumflex
Encoding: 244 244 249
Width: 588
GlyphClass: 2
Flags: MW
HStem: -12 92<249 339 249 370> 452 92<249 339> 596 139<147 350 147 350 239 360 239 442>
VStem: 42 110<207.5 324.5 207.5 350.5> 436 110<207.5 324.5>
AnchorPoint: "Anchor-3" 294 532 basechar 0
AnchorPoint: "Anchor-1" 294 266 basechar 0
AnchorPoint: "Anchor-0" 294 0 basechar 0
LayerCount: 2
Fore
SplineSet
147 596 m 1
 239 735 l 1
 350 735 l 1
 442 596 l 1
 360 596 l 1
 294 685 l 1
 229 596 l 1
 147 596 l 1
294 -12 m 0
 142 -12 42 97 42 266 c 0
 42 435 142 544 294 544 c 0
 446 544 546 435 546 266 c 0
 546 97 446 -12 294 -12 c 0
294 80 m 0
 384 80 436 149 436 266 c 0
 436 383 384 452 294 452 c 0
 204 452 152 383 152 266 c 0
 152 149 204 80 294 80 c 0
EndSplineSet
EndChar

StartChar: odieresis
Encoding: 246 246 250
Width: 588
GlyphClass: 2
Flags: MW
HStem: -12 92<249 339 249 370> 452 92<249 339> 608 106<147 254 147 254 335 441 147 335>
VStem: 42 110<207.5 324.5 207.5 350.5> 147 107<608 714 608 714> 335 106<608 714 608 714> 436 110<207.5 324.5>
AnchorPoint: "Anchor-3" 294 532 basechar 0
AnchorPoint: "Anchor-1" 294 266 basechar 0
AnchorPoint: "Anchor-0" 294 0 basechar 0
LayerCount: 2
Fore
SplineSet
147 608 m 1xec
 147 714 l 1
 254 714 l 1
 254 608 l 1
 147 608 l 1xec
335 608 m 1
 335 714 l 1
 441 714 l 1
 441 608 l 1
 335 608 l 1
294 -12 m 0
 142 -12 42 97 42 266 c 0
 42 435 142 544 294 544 c 0
 446 544 546 435 546 266 c 0xf2
 546 97 446 -12 294 -12 c 0
294 80 m 0
 384 80 436 149 436 266 c 0
 436 383 384 452 294 452 c 0
 204 452 152 383 152 266 c 0
 152 149 204 80 294 80 c 0
EndSplineSet
Substitution2: "'ss08' Style Set 8 in Latin lookup 41 subtable" odieresis.ss08
Substitution2: "'aalt' Access All Alternates in Latin lookup 0 subtable" odieresis.ss08
EndChar

StartChar: ograve
Encoding: 242 242 251
Width: 588
GlyphClass: 2
Flags: MW
HStem: -12 92<249 339 249 370> 452 92<249 339> 601 135<258 258 258 279 168 343>
VStem: 42 110<207.5 324.5 207.5 350.5> 436 110<207.5 324.5>
AnchorPoint: "Anchor-3" 294 532 basechar 0
AnchorPoint: "Anchor-1" 294 266 basechar 0
AnchorPoint: "Anchor-0" 294 0 basechar 0
LayerCount: 2
Fore
SplineSet
258 601 m 1
 168 736 l 1
 279 736 l 1
 343 601 l 1
 258 601 l 1
294 -12 m 0
 142 -12 42 97 42 266 c 0
 42 435 142 544 294 544 c 0
 446 544 546 435 546 266 c 0
 546 97 446 -12 294 -12 c 0
294 80 m 0
 384 80 436 149 436 266 c 0
 436 383 384 452 294 452 c 0
 204 452 152 383 152 266 c 0
 152 149 204 80 294 80 c 0
EndSplineSet
EndChar

StartChar: ohungarumlaut
Encoding: 337 337 252
Width: 588
GlyphClass: 2
Flags: MW
HStem: -12 92<249 339 249 370> 452 92<249 339> 596 134<176 351 240 261 323 351 386 408 323 323>
VStem: 42 110<207.5 324.5 207.5 350.5> 436 110<207.5 324.5>
AnchorPoint: "Anchor-3" 294 532 basechar 0
AnchorPoint: "Anchor-1" 294 266 basechar 0
AnchorPoint: "Anchor-0" 294 0 basechar 0
LayerCount: 2
Fore
SplineSet
176 596 m 1
 240 730 l 1
 351 730 l 1
 261 596 l 1
 176 596 l 1
323 596 m 1
 386 730 l 1
 498 730 l 1
 408 596 l 1
 323 596 l 1
294 -12 m 0
 142 -12 42 97 42 266 c 0
 42 435 142 544 294 544 c 0
 446 544 546 435 546 266 c 0
 546 97 446 -12 294 -12 c 0
294 80 m 0
 384 80 436 149 436 266 c 0
 436 383 384 452 294 452 c 0
 204 452 152 383 152 266 c 0
 152 149 204 80 294 80 c 0
EndSplineSet
EndChar

StartChar: omacron
Encoding: 333 333 253
Width: 588
GlyphClass: 2
Flags: MW
HStem: -12 92<249 339 249 370> 452 92<249 339> 619 85<155 434 155 434>
VStem: 42 110<207.5 324.5 207.5 350.5> 155 279<619 704 619 704> 436 110<207.5 324.5>
AnchorPoint: "Anchor-3" 294 532 basechar 0
AnchorPoint: "Anchor-1" 294 266 basechar 0
AnchorPoint: "Anchor-0" 294 0 basechar 0
LayerCount: 2
Fore
SplineSet
155 619 m 1
 155 704 l 1
 434 704 l 1
 434 619 l 1
 155 619 l 1
294 -12 m 0
 142 -12 42 97 42 266 c 0
 42 435 142 544 294 544 c 0
 446 544 546 435 546 266 c 0xf4
 546 97 446 -12 294 -12 c 0
294 80 m 0
 384 80 436 149 436 266 c 0
 436 383 384 452 294 452 c 0
 204 452 152 383 152 266 c 0
 152 149 204 80 294 80 c 0
EndSplineSet
EndChar

StartChar: oslash
Encoding: 248 248 254
Width: 588
GlyphClass: 2
Flags: MW
HStem: -14 75<62 113 113 113 113 142> -12 92<280 339 280 370> 452 92<249 308.5>
VStem: 42 110<243 324.5 243 350.5> 436 110<207.5 289>
AnchorPoint: "Anchor-3" 294 532 basechar 0
AnchorPoint: "Anchor-1" 294 266 basechar 0
AnchorPoint: "Anchor-0" 294 0 basechar 0
LayerCount: 2
Fore
SplineSet
62 -14 m 1x78
 113 61 l 1xb8
 68 109 42 180 42 266 c 0
 42 435 142 544 294 544 c 0
 343 544 387 533 423 512 c 1
 446 546 l 1
 526 546 l 1
 475 471 l 1
 520 423 546 352 546 266 c 0
 546 97 446 -12 294 -12 c 0
 245 -12 202 -1 165 20 c 1
 142 -14 l 1
 62 -14 l 1x78
152 266 m 0
 152 220 160 181 175 151 c 1
 368 432 l 1
 348 445 323 452 294 452 c 0
 204 452 152 383 152 266 c 0
294 80 m 0
 384 80 436 149 436 266 c 0
 436 312 428 351 413 381 c 1
 220 100 l 1x78
 241 87 266 80 294 80 c 0
EndSplineSet
EndChar

StartChar: otilde
Encoding: 245 245 255
Width: 588
GlyphClass: 2
Flags: MW
HStem: -12 92<249 339 249 370> 452 92<249 339> 607 67<348.5 367.5 348.5 383.5> 659 67<221.5 242>
VStem: 42 110<207.5 324.5 207.5 350.5> 132 59<600 600> 396 60<735 735> 436 110<207.5 324.5>
AnchorPoint: "Anchor-3" 294 532 basechar 0
AnchorPoint: "Anchor-1" 294 266 basechar 0
AnchorPoint: "Anchor-0" 294 0 basechar 0
LayerCount: 2
Fore
SplineSet
352 607 m 0xea
 325 607 304 616 280 635 c 0
 260 652 251 659 233 659 c 0
 210 659 194 646 191 600 c 1
 132 600 l 1
 133 681 173 726 232 726 c 0xd5
 264 726 286 715 310 696 c 0
 329 680 341 674 356 674 c 0
 379 674 393 687 396 735 c 1
 456 735 l 1
 453 655 415 607 352 607 c 0xea
294 -12 m 0
 142 -12 42 97 42 266 c 0xd9
 42 435 142 544 294 544 c 0
 446 544 546 435 546 266 c 0
 546 97 446 -12 294 -12 c 0
294 80 m 0
 384 80 436 149 436 266 c 0
 436 383 384 452 294 452 c 0
 204 452 152 383 152 266 c 0
 152 149 204 80 294 80 c 0
EndSplineSet
EndChar

StartChar: oe
Encoding: 339 339 256
Width: 971
GlyphClass: 2
Flags: MW
HStem: -12 91<648 721.5 648 748> -12 92<249 336.5> 235 80<547 817 547 930 547 817> 452 92<249 336.5 218 339> 454 90<648 722.5>
VStem: 42 110<207.5 324.5 207.5 350.5> 436 111<235 235 235 315 235 324.5> 817 113<235 315>
AnchorPoint: "Anchor-3" 487 532 basechar 0
AnchorPoint: "Anchor-2" 830 27 basechar 0
AnchorPoint: "Anchor-1" 294 266 basechar 0
AnchorPoint: "Anchor-0" 487 0 basechar 0
LayerCount: 2
Fore
SplineSet
294 -12 m 0x77
 142 -12 42 97 42 266 c 0
 42 435 142 544 294 544 c 0
 379 544 447 510 491 452 c 1
 535 510 602 544 686 544 c 0
 831 544 930 441 930 262 c 2
 930 235 l 1
 547 235 l 1
 553 131 606 79 690 79 c 0xb7
 753 79 795 110 811 160 c 1
 922 153 l 1
 893 54 807 -12 689 -12 c 0
 603 -12 535 22 491 81 c 1
 447 22 379 -12 294 -12 c 0x77
547 315 m 1
 817 315 l 1
 810 409 759 454 686 454 c 0x6f
 610 454 559 405 547 315 c 1
294 80 m 0
 384 80 436 149 436 266 c 0
 436 383 384 452 294 452 c 0x77
 204 452 152 383 152 266 c 0
 152 149 204 80 294 80 c 0
EndSplineSet
EndChar

StartChar: p
Encoding: 112 112 257
Width: 608
GlyphClass: 2
Flags: MW
HStem: -150 21G<75 75 75 181> -12 92<304 361.5 276 415.5> 452 92<302.5 361.5> 512 20G<75 175 175 175>
VStem: 75 101 75 106<-150 72 204.5 327.5> 456 110<207.5 324.5>
AnchorPoint: "Anchor-3" 305 532 basechar 0
AnchorPoint: "Anchor-0" 305 0 basechar 0
LayerCount: 2
Fore
SplineSet
75 -150 m 1xe6
 75 532 l 1xd6
 175 532 l 1xda
 177 451 l 1xea
 208 512 267 544 338 544 c 0
 494 544 566 416 566 266 c 0
 566 116 493 -12 338 -12 c 0
 270 -12 210 20 181 72 c 1
 181 -150 l 1
 75 -150 l 1xe6
319 80 m 0
 404 80 456 149 456 266 c 0
 456 383 404 452 319 452 c 0xe6
 234 452 181 389 181 266 c 0
 181 143 233 80 319 80 c 0
EndSplineSet
EndChar

